<svg width="40" height="40" viewBox="0 0 40 40" fill="none" xmlns="http://www.w3.org/2000/svg">
<path d="M20.0007 3.33331C10.8107 3.33331 3.33398 10.81 3.33398 20C3.33398 29.19 10.8107 36.6666 20.0007 36.6666C29.1907 36.6666 36.6673 29.19 36.6673 20C36.6673 10.81 29.1907 3.33331 20.0007 3.33331ZM20.0007 33.3333C12.649 33.3333 6.66732 27.3516 6.66732 20C6.66732 12.6483 12.649 6.66665 20.0007 6.66665C27.3523 6.66665 33.334 12.6483 33.334 20C33.334 27.3516 27.3523 33.3333 20.0007 33.3333Z" fill="#00B152"/>
<path d="M21.6673 11.6667H18.334V20.69L23.8223 26.1784L26.179 23.8217L21.6673 19.31V11.6667Z" fill="#00B152"/>
</svg>
