<svg width="47" height="47" viewBox="0 0 47 47" xmlns="http://www.w3.org/2000/svg">
<path d="M39.9332 0H7.06575C6.18589 0 5.47266 0.713387 5.47266 1.59309V35.6428C5.47266 36.0656 5.64056 36.4707 5.93933 36.7697L15.7055 46.5335C16.0045 46.8321 16.4096 46.9998 16.8319 46.9998H39.933C40.8129 46.9998 41.5261 46.2865 41.5261 45.4067V1.59309C41.5262 0.713387 40.8129 0 39.9332 0ZM10.9128 37.2362H15.2388V41.5611L10.9128 37.2362ZM38.3399 43.8138H18.4252V35.6428C18.4252 34.7631 17.7118 34.0498 16.8321 34.0498H8.659V3.18635H38.3401V43.8138H38.3399Z"/>
<path d="M12.5422 11.4009H26.2366C27.1164 11.4009 27.8295 10.6876 27.8295 9.80794C27.8295 8.92807 27.1163 8.21484 26.2366 8.21484H12.5422C11.6623 8.21484 10.9492 8.92807 10.9492 9.80794C10.9491 10.6876 11.6623 11.4009 12.5422 11.4009Z"/>
<path d="M31.7181 11.4009H34.4572C35.3371 11.4009 36.0502 10.6876 36.0502 9.80794C36.0502 8.92807 35.3369 8.21484 34.4572 8.21484H31.7181C30.8382 8.21484 30.125 8.92807 30.125 9.80794C30.1248 10.6876 30.8382 11.4009 31.7181 11.4009Z"/>
<path d="M12.5422 19.6159H26.2366C27.1164 19.6159 27.8295 18.9025 27.8295 18.0228C27.8295 17.1428 27.1163 16.4297 26.2366 16.4297H12.5422C11.6623 16.4297 10.9492 17.1429 10.9492 18.0228C10.9491 18.9025 11.6623 19.6159 12.5422 19.6159Z"/>
<path d="M31.7181 19.6159H34.4572C35.3371 19.6159 36.0502 18.9025 36.0502 18.0228C36.0502 17.1428 35.3369 16.4297 34.4572 16.4297H31.7181C30.8382 16.4297 30.125 17.1429 30.125 18.0228C30.1248 18.9025 30.8382 19.6159 31.7181 19.6159Z"/>
<path d="M12.5422 27.8306H26.2366C27.1164 27.8306 27.8295 27.1173 27.8295 26.2376C27.8295 25.3579 27.1163 24.6445 26.2366 24.6445H12.5422C11.6623 24.6445 10.9492 25.3579 10.9492 26.2376C10.9492 27.1173 11.6623 27.8306 12.5422 27.8306Z"/>
<path d="M31.7181 27.8306H34.4572C35.3371 27.8306 36.0502 27.1173 36.0502 26.2376C36.0502 25.3579 35.3369 24.6445 34.4572 24.6445H31.7181C30.8382 24.6445 30.125 25.3579 30.125 26.2376C30.125 27.1173 30.8382 27.8306 31.7181 27.8306Z"/>
<path d="M28.9758 36.0454H34.4537C35.3336 36.0454 36.0466 35.3322 36.0466 34.4525C36.0466 33.5724 35.3334 32.8594 34.4537 32.8594H28.9758C28.0959 32.8594 27.3828 33.5726 27.3828 34.4525C27.3828 35.3322 28.096 36.0454 28.9758 36.0454Z"/>
</svg>
