<svg width="60" height="60" viewBox="0 0 60 60" fill="none" xmlns="http://www.w3.org/2000/svg">
<path d="M60 52.5V7.5C60 5.51088 59.2098 3.60322 57.8033 2.1967C56.3968 0.790176 54.4891 0 52.5 0H7.5C5.51088 0 3.60322 0.790176 2.1967 2.1967C0.790176 3.60322 0 5.51088 0 7.5V52.5C0 54.4891 0.790176 56.3968 2.1967 57.8033C3.60322 59.2098 5.51088 60 7.5 60H52.5C54.4891 60 56.3968 59.2098 57.8033 57.8033C59.2098 56.3968 60 54.4891 60 52.5Z" fill="#E5E5E5"/>
<path d="M13.22 31.06C13.22 31.74 13.3 32.3533 13.46 32.9C13.6333 33.4467 13.8733 33.92 14.18 34.32C14.5 34.7067 14.8867 35.0067 15.34 35.22C15.7933 35.4333 16.3133 35.54 16.9 35.54C17.4733 35.54 17.9867 35.4333 18.44 35.22C18.9067 35.0067 19.2933 34.7067 19.6 34.32C19.92 33.92 20.16 33.4467 20.32 32.9C20.4933 32.3533 20.58 31.74 20.58 31.06C20.58 30.38 20.4933 29.7667 20.32 29.22C20.16 28.66 19.92 28.1867 19.6 27.8C19.2933 27.4 18.9067 27.0933 18.44 26.88C17.9867 26.6667 17.4733 26.56 16.9 26.56C16.3133 26.56 15.7933 26.6733 15.34 26.9C14.8867 27.1133 14.5 27.42 14.18 27.82C13.8733 28.2067 13.6333 28.68 13.46 29.24C13.3 29.7867 13.22 30.3933 13.22 31.06ZM23.8 31.06C23.8 32.2467 23.62 33.2933 23.26 34.2C22.9133 35.0933 22.4333 35.8467 21.82 36.46C21.2067 37.06 20.4733 37.5133 19.62 37.82C18.78 38.1267 17.8733 38.28 16.9 38.28C15.9533 38.28 15.06 38.1267 14.22 37.82C13.38 37.5133 12.6467 37.06 12.02 36.46C11.3933 35.8467 10.9 35.0933 10.54 34.2C10.18 33.2933 10 32.2467 10 31.06C10 29.8733 10.1867 28.8333 10.56 27.94C10.9333 27.0333 11.4333 26.2733 12.06 25.66C12.7 25.0467 13.4333 24.5867 14.26 24.28C15.1 23.9733 15.98 23.82 16.9 23.82C17.8467 23.82 18.74 23.9733 19.58 24.28C20.42 24.5867 21.1533 25.0467 21.78 25.66C22.4067 26.2733 22.9 27.0333 23.26 27.94C23.62 28.8333 23.8 29.8733 23.8 31.06ZM29.5208 35.46C29.6674 35.4733 29.8341 35.4867 30.0208 35.5C30.2208 35.5 30.4541 35.5 30.7208 35.5C32.2808 35.5 33.4341 35.1067 34.1808 34.32C34.9408 33.5333 35.3208 32.4467 35.3208 31.06C35.3208 29.6067 34.9608 28.5067 34.2408 27.76C33.5208 27.0133 32.3808 26.64 30.8208 26.64C30.6074 26.64 30.3874 26.6467 30.1608 26.66C29.9341 26.66 29.7208 26.6733 29.5208 26.7V35.46ZM38.5408 31.06C38.5408 32.26 38.3541 33.3067 37.9808 34.2C37.6074 35.0933 37.0741 35.8333 36.3808 36.42C35.7008 37.0067 34.8674 37.4467 33.8808 37.74C32.8941 38.0333 31.7874 38.18 30.5608 38.18C30.0008 38.18 29.3474 38.1533 28.6008 38.1C27.8541 38.06 27.1208 37.9667 26.4008 37.82V24.32C27.1208 24.1867 27.8674 24.1 28.6408 24.06C29.4274 24.0067 30.1008 23.98 30.6608 23.98C31.8474 23.98 32.9208 24.1133 33.8808 24.38C34.8541 24.6467 35.6874 25.0667 36.3808 25.64C37.0741 26.2133 37.6074 26.9467 37.9808 27.84C38.3541 28.7333 38.5408 29.8067 38.5408 31.06ZM44.9269 35.62C45.3669 35.62 45.7269 35.5867 46.0069 35.52C46.3002 35.44 46.5335 35.34 46.7069 35.22C46.8802 35.0867 47.0002 34.9333 47.0669 34.76C47.1335 34.5867 47.1669 34.3933 47.1669 34.18C47.1669 33.7267 46.9535 33.3533 46.5269 33.06C46.1002 32.7533 45.3669 32.4267 44.3269 32.08C43.8735 31.92 43.4202 31.74 42.9669 31.54C42.5135 31.3267 42.1069 31.0667 41.7469 30.76C41.3869 30.44 41.0935 30.06 40.8669 29.62C40.6402 29.1667 40.5269 28.62 40.5269 27.98C40.5269 27.34 40.6469 26.7667 40.8869 26.26C41.1269 25.74 41.4669 25.3 41.9069 24.94C42.3469 24.58 42.8802 24.3067 43.5069 24.12C44.1335 23.92 44.8402 23.82 45.6269 23.82C46.5602 23.82 47.3669 23.92 48.0469 24.12C48.7269 24.32 49.2869 24.54 49.7269 24.78L48.8269 27.24C48.4402 27.04 48.0069 26.8667 47.5269 26.72C47.0602 26.56 46.4935 26.48 45.8269 26.48C45.0802 26.48 44.5402 26.5867 44.2069 26.8C43.8869 27 43.7269 27.3133 43.7269 27.74C43.7269 27.9933 43.7869 28.2067 43.9069 28.38C44.0269 28.5533 44.1935 28.7133 44.4069 28.86C44.6335 28.9933 44.8869 29.12 45.1669 29.24C45.4602 29.3467 45.7802 29.46 46.1269 29.58C46.8469 29.8467 47.4735 30.1133 48.0069 30.38C48.5402 30.6333 48.9802 30.9333 49.3269 31.28C49.6869 31.6267 49.9535 32.0333 50.1269 32.5C50.3002 32.9667 50.3869 33.5333 50.3869 34.2C50.3869 35.4933 49.9335 36.5 49.0269 37.22C48.1202 37.9267 46.7535 38.28 44.9269 38.28C44.3135 38.28 43.7602 38.24 43.2669 38.16C42.7735 38.0933 42.3335 38.0067 41.9469 37.9C41.5735 37.7933 41.2469 37.68 40.9669 37.56C40.7002 37.44 40.4735 37.3267 40.2869 37.22L41.1669 34.74C41.5802 34.9667 42.0869 35.1733 42.6869 35.36C43.3002 35.5333 44.0469 35.62 44.9269 35.62Z" fill="white"/>
</svg>
