<svg width="60" height="60" viewBox="0 0 60 60" fill="none" xmlns="http://www.w3.org/2000/svg">
<path d="M60 52.5V7.5C60 5.51088 59.2098 3.60322 57.8033 2.1967C56.3968 0.790176 54.4891 0 52.5 0H7.5C5.51088 0 3.60322 0.790176 2.1967 2.1967C0.790176 3.60322 0 5.51088 0 7.5V52.5C0 54.4891 0.790176 56.3968 2.1967 57.8033C3.60322 59.2098 5.51088 60 7.5 60H52.5C54.4891 60 56.3968 59.2098 57.8033 57.8033C59.2098 56.3968 60 54.4891 60 52.5Z" fill="#E5E5E5"/>
<path d="M14.56 38C14.1733 37.2267 13.7467 36.4467 13.28 35.66C12.8267 34.86 12.3 34.0467 11.7 33.22C11.5133 33.46 11.2733 33.7933 10.98 34.22C10.7 34.6467 10.4133 35.1 10.12 35.58C9.84 36.06 9.57333 36.52 9.32 36.96C9.06667 37.4 8.88 37.7467 8.76 38H5.2C5.78667 36.92 6.46667 35.7867 7.24 34.6C8.02667 33.4133 8.9 32.1533 9.86 30.82L5.4 24.14H9.18L11.88 28.46L14.52 24.14H18.08L13.68 30.86C14.8 32.3133 15.74 33.66 16.5 34.9C17.26 36.1267 17.86 37.16 18.3 38H14.56ZM29.3561 35.32V38H20.0961V24.14H23.2161V35.32H29.3561ZM35.4777 35.62C35.9177 35.62 36.2777 35.5867 36.5577 35.52C36.851 35.44 37.0843 35.34 37.2577 35.22C37.431 35.0867 37.551 34.9333 37.6177 34.76C37.6843 34.5867 37.7177 34.3933 37.7177 34.18C37.7177 33.7267 37.5043 33.3533 37.0777 33.06C36.651 32.7533 35.9177 32.4267 34.8777 32.08C34.4243 31.92 33.971 31.74 33.5177 31.54C33.0643 31.3267 32.6577 31.0667 32.2977 30.76C31.9377 30.44 31.6443 30.06 31.4177 29.62C31.191 29.1667 31.0777 28.62 31.0777 27.98C31.0777 27.34 31.1977 26.7667 31.4377 26.26C31.6777 25.74 32.0177 25.3 32.4577 24.94C32.8977 24.58 33.431 24.3067 34.0577 24.12C34.6843 23.92 35.391 23.82 36.1777 23.82C37.111 23.82 37.9177 23.92 38.5977 24.12C39.2777 24.32 39.8377 24.54 40.2777 24.78L39.3777 27.24C38.991 27.04 38.5577 26.8667 38.0777 26.72C37.611 26.56 37.0443 26.48 36.3777 26.48C35.631 26.48 35.091 26.5867 34.7577 26.8C34.4377 27 34.2777 27.3133 34.2777 27.74C34.2777 27.9933 34.3377 28.2067 34.4577 28.38C34.5777 28.5533 34.7443 28.7133 34.9577 28.86C35.1843 28.9933 35.4377 29.12 35.7177 29.24C36.011 29.3467 36.331 29.46 36.6777 29.58C37.3977 29.8467 38.0243 30.1133 38.5577 30.38C39.091 30.6333 39.531 30.9333 39.8777 31.28C40.2377 31.6267 40.5043 32.0333 40.6777 32.5C40.851 32.9667 40.9377 33.5333 40.9377 34.2C40.9377 35.4933 40.4843 36.5 39.5777 37.22C38.671 37.9267 37.3043 38.28 35.4777 38.28C34.8643 38.28 34.311 38.24 33.8177 38.16C33.3243 38.0933 32.8843 38.0067 32.4977 37.9C32.1243 37.7933 31.7977 37.68 31.5177 37.56C31.251 37.44 31.0243 37.3267 30.8377 37.22L31.7177 34.74C32.131 34.9667 32.6377 35.1733 33.2377 35.36C33.851 35.5333 34.5977 35.62 35.4777 35.62ZM51.2983 38C50.9116 37.2267 50.4849 36.4467 50.0183 35.66C49.5649 34.86 49.0383 34.0467 48.4383 33.22C48.2516 33.46 48.0116 33.7933 47.7183 34.22C47.4383 34.6467 47.1516 35.1 46.8583 35.58C46.5783 36.06 46.3116 36.52 46.0583 36.96C45.8049 37.4 45.6183 37.7467 45.4983 38H41.9383C42.5249 36.92 43.2049 35.7867 43.9783 34.6C44.7649 33.4133 45.6383 32.1533 46.5983 30.82L42.1383 24.14H45.9183L48.6183 28.46L51.2583 24.14H54.8183L50.4183 30.86C51.5383 32.3133 52.4783 33.66 53.2383 34.9C53.9983 36.1267 54.5983 37.16 55.0383 38H51.2983Z" fill="white"/>
</svg>
