<svg width="40" height="40" viewBox="0 0 40 40" fill="none" xmlns="http://www.w3.org/2000/svg">
<path d="M27.611 36.665H27.6577C28.5377 36.665 29.3693 36.3183 29.9993 35.6883L34.5193 31.1683C34.6743 31.0137 34.7971 30.83 34.881 30.6278C34.9649 30.4256 35.008 30.2089 35.008 29.99C35.008 29.7711 34.9649 29.5544 34.881 29.3522C34.7971 29.15 34.6743 28.9663 34.5193 28.8116L27.8527 22.145C27.698 21.9901 27.5144 21.8672 27.3122 21.7833C27.11 21.6995 26.8932 21.6563 26.6743 21.6563C26.4555 21.6563 26.2387 21.6995 26.0365 21.7833C25.8343 21.8672 25.6507 21.9901 25.496 22.145L22.8393 24.8016C21.6077 24.435 19.3093 23.6016 17.8527 22.145C16.396 20.6883 15.5627 18.39 15.196 17.1583L17.8527 14.5016C18.0076 14.347 18.1305 14.1633 18.2143 13.9611C18.2982 13.7589 18.3413 13.5422 18.3413 13.3233C18.3413 13.1044 18.2982 12.8877 18.2143 12.6855C18.1305 12.4833 18.0076 12.2996 17.8527 12.145L11.186 5.47831C10.8674 5.17757 10.4458 5.01004 10.0077 5.01004C9.56953 5.01004 9.14797 5.17757 8.82934 5.47831L4.31101 9.99831C3.67768 10.6316 3.32101 11.5016 3.33435 12.39C3.37268 14.7633 4.00101 23.0066 10.4977 29.5033C16.9943 36 25.2377 36.6266 27.611 36.665ZM10.0093 9.01331L14.3193 13.3233L12.1643 15.4783C11.9682 15.6739 11.8242 15.9154 11.7453 16.1809C11.6664 16.4464 11.6552 16.7274 11.7127 16.9983C11.7527 17.19 12.731 21.735 15.4977 24.5016C18.2643 27.2683 22.8093 28.2466 23.001 28.2866C23.2719 28.3444 23.553 28.3334 23.8186 28.2545C24.0841 28.1756 24.3256 28.0313 24.521 27.835L26.676 25.68L30.986 29.99L27.6427 33.3316C25.5627 33.2966 18.446 32.7383 12.8543 27.145C7.24434 21.535 6.70101 14.3933 6.66768 12.355L10.0093 9.01331ZM33.3327 18.3316H36.666C36.666 9.78165 30.211 3.33331 21.6493 3.33331V6.66665C28.4193 6.66665 33.3327 11.5716 33.3327 18.3316Z" fill="#00C25A"/>
<path d="M21.6641 13.3333C25.1691 13.3333 26.6641 14.8283 26.6641 18.3333H29.9974C29.9974 12.9583 27.0391 10 21.6641 10V13.3333Z" fill="#00C25A"/>
</svg>
