<svg width="40" height="40" viewBox="0 0 40 40" xmlns="http://www.w3.org/2000/svg">
<path d="M33.332 6.66602H6.66536C5.78131 6.66602 4.93346 7.0172 4.30834 7.64233C3.68322 8.26745 3.33203 9.11529 3.33203 9.99935V29.9993C3.33203 30.8834 3.68322 31.7312 4.30834 32.3564C4.93346 32.9815 5.78131 33.3327 6.66536 33.3327H33.332C34.2161 33.3327 35.0639 32.9815 35.6891 32.3564C36.3142 31.7312 36.6654 30.8834 36.6654 29.9993V9.99935C36.6654 9.11529 36.3142 8.26745 35.6891 7.64233C35.0639 7.0172 34.2161 6.66602 33.332 6.66602ZM33.332 9.99935V13.3327H6.66536V9.99935H33.332ZM6.66536 29.9993V19.9993H33.332V29.9993H6.66536ZM9.9987 23.3327H21.6654V26.666H9.9987V23.3327ZM24.9987 23.3327H29.9987V26.666H24.9987V23.3327Z"/>
</svg>
