<svg width="26" height="22" viewBox="0 0 26 22" xmlns="http://www.w3.org/2000/svg">
<path d="M0 10.1081C0 10.1081 4.94945 2.97297 13 2.97297C14.1192 2.97297 15.1745 3.11568 16.1649 3.35589L8.69818 10.8692C8.41935 10.2572 8.27426 9.59215 8.27273 8.91892C8.27273 7.80465 8.66864 6.79384 9.30682 5.98162C6.47991 6.94962 4.32545 8.82022 3.09636 10.1081C4.14447 11.2061 5.32804 12.1645 6.61818 12.9598L4.90455 14.6865C1.77036 12.6411 0 10.1081 0 10.1081ZM26 10.1081C26 10.1081 21.0505 17.2432 13 17.2432C11.882 17.2432 10.8302 17.0958 9.83745 16.8591L4.72727 22L2.95455 20.2162L23.0455 0L24.8182 1.78378L21.099 5.52616C24.2273 7.57514 26 10.1081 26 10.1081ZM22.9095 10.1152C21.8607 9.01303 20.6741 8.05247 19.3795 7.25762L17.7273 8.91892C17.7273 11.547 15.6118 13.6757 13 13.6757L11.8808 14.8018C12.2472 14.8375 12.6183 14.8649 13 14.8649C17.7013 14.8649 21.2054 11.9181 22.9095 10.1152Z"/>
</svg>
