<svg width="21" height="20" viewBox="0 0 21 20" fill="none" xmlns="http://www.w3.org/2000/svg">
<path d="M19.7883 7.66271C19.9358 7.77986 20.0467 7.93813 20.1077 8.11831C20.1547 8.29845 20.1506 8.48849 20.0959 8.66635C20.0411 8.84421 19.9381 9.00259 19.7986 9.12308L15.8095 13.0634L16.7754 18.6586C16.8099 18.8433 16.7918 19.0341 16.7234 19.2087C16.6549 19.3832 16.5389 19.5342 16.389 19.6437C16.2233 19.766 16.0238 19.8316 15.8192 19.8308C15.6635 19.8313 15.5104 19.7906 15.3749 19.7126L10.4488 17.0825L5.52283 19.7126C5.36081 19.806 5.17577 19.8497 4.98998 19.8384C4.80418 19.8272 4.62554 19.7614 4.47555 19.649C4.32555 19.5366 4.21059 19.3824 4.1445 19.2049C4.0784 19.0275 4.06398 18.8343 4.10298 18.6487L5.06886 13.0535L1.07976 9.11323C0.955598 8.98687 0.867523 8.82841 0.824982 8.65487C0.78244 8.48132 0.787039 8.29924 0.838284 8.12816C0.894267 7.95309 0.997246 7.79752 1.13554 7.67912C1.27383 7.56072 1.44189 7.48422 1.62065 7.45831L7.11654 6.63085L9.57955 1.54788C9.65864 1.38133 9.78213 1.24087 9.93587 1.14259C10.0896 1.04431 10.2674 0.992188 10.4488 0.992188C10.6303 0.992188 10.8081 1.04431 10.9618 1.14259C11.1156 1.24087 11.239 1.38133 11.3181 1.54788L13.7811 6.6407L19.277 7.45831C19.4633 7.47456 19.6409 7.54556 19.7883 7.66271Z" fill="#BDBDBD"/>
</svg>
