<svg width="30" height="30" viewBox="0 0 30 30" fill="none" xmlns="http://www.w3.org/2000/svg">
<path d="M26.992 12.0426C26.9131 11.814 26.7695 11.6132 26.5787 11.4645C26.3879 11.3159 26.158 11.2258 25.917 11.2051L18.8045 10.1676L15.617 3.70514C15.5147 3.4938 15.3549 3.31557 15.1559 3.19085C14.9569 3.06614 14.7269 3 14.492 3C14.2572 3 14.0271 3.06614 13.8282 3.19085C13.6292 3.31557 13.4694 3.4938 13.367 3.70514L10.1795 10.1551L3.06704 11.2051C2.83569 11.238 2.61819 11.3351 2.43923 11.4853C2.26026 11.6356 2.12699 11.833 2.05454 12.0551C1.98822 12.2722 1.98227 12.5033 2.03732 12.7235C2.09238 12.9437 2.20636 13.1448 2.36704 13.3051L7.52954 18.3051L6.27954 25.4051C6.22907 25.6407 6.24773 25.8858 6.33327 26.1109C6.41881 26.3361 6.56758 26.5318 6.7617 26.6744C6.95581 26.817 7.187 26.9005 7.42745 26.9148C7.6679 26.9291 7.90736 26.8737 8.11704 26.7551L14.492 23.4176L20.867 26.7551C21.0425 26.8541 21.2406 26.9058 21.442 26.9051C21.7068 26.9061 21.9651 26.8229 22.1795 26.6676C22.3735 26.5287 22.5236 26.3372 22.6122 26.1157C22.7008 25.8942 22.7242 25.652 22.6795 25.4176L21.4295 18.3176L26.592 13.3176C26.7725 13.1647 26.9059 12.9638 26.9767 12.7381C27.0475 12.5124 27.0528 12.2712 26.992 12.0426ZM19.3045 17.0426C19.1599 17.1831 19.0513 17.3566 18.9882 17.5481C18.9251 17.7397 18.9092 17.9436 18.942 18.1426L19.842 23.3926L15.142 20.8926C14.9594 20.8023 14.7583 20.7553 14.5545 20.7553C14.3507 20.7553 14.1497 20.8023 13.967 20.8926L9.26704 23.3926L10.167 18.1426C10.1998 17.9436 10.184 17.7397 10.1209 17.5481C10.0578 17.3566 9.94922 17.1831 9.80454 17.0426L6.05454 13.2926L11.317 12.5301C11.5195 12.502 11.712 12.4246 11.8777 12.3047C12.0433 12.1848 12.177 12.0262 12.267 11.8426L14.492 7.08014L16.842 11.8551C16.9321 12.0387 17.0658 12.1973 17.2314 12.3172C17.397 12.4371 17.5895 12.5145 17.792 12.5426L23.0545 13.3051L19.3045 17.0426Z" fill="#828282"/>
</svg>
