<svg width="746" height="51" viewBox="0 0 746 51" fill="none" xmlns="http://www.w3.org/2000/svg">
<path d="M10.68 40.04C10.68 42.3733 10.2333 44.1667 9.34 45.42C8.46 46.66 7.24 47.28 5.68 47.28C4.12 47.28 2.89333 46.66 2 45.42C1.12 44.1667 0.68 42.3733 0.68 40.04C0.68 38.88 0.793333 37.8533 1.02 36.96C1.26 36.0667 1.6 35.3133 2.04 34.7C2.48 34.0867 3.00667 33.62 3.62 33.3C4.23333 32.98 4.92 32.82 5.68 32.82C7.24 32.82 8.46 33.4467 9.34 34.7C10.2333 35.94 10.68 37.72 10.68 40.04ZM7.64 40.04C7.64 39.3467 7.60667 38.72 7.54 38.16C7.47333 37.5867 7.36667 37.0933 7.22 36.68C7.07333 36.2667 6.87333 35.9467 6.62 35.72C6.36667 35.4933 6.05333 35.38 5.68 35.38C5.30667 35.38 4.99333 35.4933 4.74 35.72C4.5 35.9467 4.3 36.2667 4.14 36.68C3.99333 37.0933 3.88667 37.5867 3.82 38.16C3.75333 38.72 3.72 39.3467 3.72 40.04C3.72 40.7333 3.75333 41.3667 3.82 41.94C3.88667 42.5133 3.99333 43.0067 4.14 43.42C4.3 43.8333 4.5 44.1533 4.74 44.38C4.99333 44.6067 5.30667 44.72 5.68 44.72C6.05333 44.72 6.36667 44.6067 6.62 44.38C6.87333 44.1533 7.07333 43.8333 7.22 43.42C7.36667 43.0067 7.47333 42.5133 7.54 41.94C7.60667 41.3667 7.64 40.7333 7.64 40.04ZM19.1472 36.7C19.1472 37.9533 18.8272 38.9133 18.1872 39.58C17.5472 40.2467 16.6872 40.58 15.6072 40.58C14.5272 40.58 13.6672 40.2467 13.0272 39.58C12.3872 38.9133 12.0672 37.9533 12.0672 36.7C12.0672 35.4467 12.3872 34.4867 13.0272 33.82C13.6672 33.1533 14.5272 32.82 15.6072 32.82C16.6872 32.82 17.5472 33.1533 18.1872 33.82C18.8272 34.4867 19.1472 35.4467 19.1472 36.7ZM16.8872 36.7C16.8872 36.02 16.7672 35.5267 16.5272 35.22C16.2872 34.9133 15.9805 34.76 15.6072 34.76C15.2205 34.76 14.9072 34.9133 14.6672 35.22C14.4405 35.5267 14.3272 36.02 14.3272 36.7C14.3272 37.38 14.4405 37.88 14.6672 38.2C14.9072 38.5067 15.2205 38.66 15.6072 38.66C15.9805 38.66 16.2872 38.5067 16.5272 38.2C16.7672 37.88 16.8872 37.38 16.8872 36.7ZM23.0472 33.14H25.8272L18.0072 47H15.2272L23.0472 33.14ZM29.0272 43.44C29.0272 44.6933 28.7072 45.6533 28.0672 46.32C27.4272 46.9867 26.5672 47.32 25.4872 47.32C24.4072 47.32 23.5472 46.9867 22.9072 46.32C22.2672 45.6533 21.9472 44.6933 21.9472 43.44C21.9472 42.1867 22.2672 41.2267 22.9072 40.56C23.5472 39.8933 24.4072 39.56 25.4872 39.56C26.5672 39.56 27.4272 39.8933 28.0672 40.56C28.7072 41.2267 29.0272 42.1867 29.0272 43.44ZM26.7672 43.44C26.7672 42.76 26.6472 42.2667 26.4072 41.96C26.1672 41.6533 25.8605 41.5 25.4872 41.5C25.1005 41.5 24.7872 41.6533 24.5472 41.96C24.3205 42.2667 24.2072 42.76 24.2072 43.44C24.2072 44.12 24.3205 44.62 24.5472 44.94C24.7872 45.2467 25.1005 45.4 25.4872 45.4C25.8605 45.4 26.1672 45.2467 26.4072 44.94C26.6472 44.62 26.7672 44.12 26.7672 43.44Z" fill="#2E2E2E"/>
<path d="M173.2 42.92C173.2 42.5333 173.113 42.1933 172.94 41.9C172.767 41.5933 172.467 41.34 172.04 41.14C171.613 40.94 171.04 40.7867 170.32 40.68C169.6 40.5733 168.693 40.52 167.6 40.52C167.747 39.28 167.867 38.02 167.96 36.74C168.053 35.46 168.127 34.26 168.18 33.14H175.68V35.64H170.68C170.653 36.12 170.62 36.5867 170.58 37.04C170.553 37.48 170.52 37.8667 170.48 38.2C172.427 38.3333 173.86 38.7933 174.78 39.58C175.713 40.3533 176.18 41.4333 176.18 42.82C176.18 43.46 176.067 44.0533 175.84 44.6C175.613 45.1467 175.273 45.62 174.82 46.02C174.367 46.42 173.793 46.7333 173.1 46.96C172.42 47.1867 171.62 47.3 170.7 47.3C170.34 47.3 169.96 47.2733 169.56 47.22C169.173 47.18 168.793 47.12 168.42 47.04C168.06 46.9733 167.733 46.9 167.44 46.82C167.147 46.74 166.92 46.66 166.76 46.58L167.3 44.12C167.633 44.2667 168.073 44.4133 168.62 44.56C169.167 44.6933 169.82 44.76 170.58 44.76C171.5 44.76 172.167 44.58 172.58 44.22C172.993 43.8467 173.2 43.4133 173.2 42.92ZM185.147 36.7C185.147 37.9533 184.827 38.9133 184.187 39.58C183.547 40.2467 182.687 40.58 181.607 40.58C180.527 40.58 179.667 40.2467 179.027 39.58C178.387 38.9133 178.067 37.9533 178.067 36.7C178.067 35.4467 178.387 34.4867 179.027 33.82C179.667 33.1533 180.527 32.82 181.607 32.82C182.687 32.82 183.547 33.1533 184.187 33.82C184.827 34.4867 185.147 35.4467 185.147 36.7ZM182.887 36.7C182.887 36.02 182.767 35.5267 182.527 35.22C182.287 34.9133 181.981 34.76 181.607 34.76C181.221 34.76 180.907 34.9133 180.667 35.22C180.441 35.5267 180.327 36.02 180.327 36.7C180.327 37.38 180.441 37.88 180.667 38.2C180.907 38.5067 181.221 38.66 181.607 38.66C181.981 38.66 182.287 38.5067 182.527 38.2C182.767 37.88 182.887 37.38 182.887 36.7ZM189.047 33.14H191.827L184.007 47H181.227L189.047 33.14ZM195.027 43.44C195.027 44.6933 194.707 45.6533 194.067 46.32C193.427 46.9867 192.567 47.32 191.487 47.32C190.407 47.32 189.547 46.9867 188.907 46.32C188.267 45.6533 187.947 44.6933 187.947 43.44C187.947 42.1867 188.267 41.2267 188.907 40.56C189.547 39.8933 190.407 39.56 191.487 39.56C192.567 39.56 193.427 39.8933 194.067 40.56C194.707 41.2267 195.027 42.1867 195.027 43.44ZM192.767 43.44C192.767 42.76 192.647 42.2667 192.407 41.96C192.167 41.6533 191.861 41.5 191.487 41.5C191.101 41.5 190.787 41.6533 190.547 41.96C190.321 42.2667 190.207 42.76 190.207 43.44C190.207 44.12 190.321 44.62 190.547 44.94C190.787 45.2467 191.101 45.4 191.487 45.4C191.861 45.4 192.167 45.2467 192.407 44.94C192.647 44.62 192.767 44.12 192.767 43.44Z" fill="white"/>
<path d="M325.4 36.02C325.787 35.86 326.187 35.68 326.6 35.48C327.027 35.2667 327.44 35.04 327.84 34.8C328.24 34.5467 328.62 34.2867 328.98 34.02C329.353 33.74 329.687 33.4467 329.98 33.14H332.06V47H329.08V37.02C328.68 37.2867 328.233 37.5333 327.74 37.76C327.247 37.9733 326.767 38.16 326.3 38.32L325.4 36.02ZM346.047 40.04C346.047 42.3733 345.601 44.1667 344.707 45.42C343.827 46.66 342.607 47.28 341.047 47.28C339.487 47.28 338.261 46.66 337.367 45.42C336.487 44.1667 336.047 42.3733 336.047 40.04C336.047 38.88 336.161 37.8533 336.387 36.96C336.627 36.0667 336.967 35.3133 337.407 34.7C337.847 34.0867 338.374 33.62 338.987 33.3C339.601 32.98 340.287 32.82 341.047 32.82C342.607 32.82 343.827 33.4467 344.707 34.7C345.601 35.94 346.047 37.72 346.047 40.04ZM343.007 40.04C343.007 39.3467 342.974 38.72 342.907 38.16C342.841 37.5867 342.734 37.0933 342.587 36.68C342.441 36.2667 342.241 35.9467 341.987 35.72C341.734 35.4933 341.421 35.38 341.047 35.38C340.674 35.38 340.361 35.4933 340.107 35.72C339.867 35.9467 339.667 36.2667 339.507 36.68C339.361 37.0933 339.254 37.5867 339.187 38.16C339.121 38.72 339.087 39.3467 339.087 40.04C339.087 40.7333 339.121 41.3667 339.187 41.94C339.254 42.5133 339.361 43.0067 339.507 43.42C339.667 43.8333 339.867 44.1533 340.107 44.38C340.361 44.6067 340.674 44.72 341.047 44.72C341.421 44.72 341.734 44.6067 341.987 44.38C342.241 44.1533 342.441 43.8333 342.587 43.42C342.734 43.0067 342.841 42.5133 342.907 41.94C342.974 41.3667 343.007 40.7333 343.007 40.04ZM354.514 36.7C354.514 37.9533 354.194 38.9133 353.554 39.58C352.914 40.2467 352.054 40.58 350.974 40.58C349.894 40.58 349.034 40.2467 348.394 39.58C347.754 38.9133 347.434 37.9533 347.434 36.7C347.434 35.4467 347.754 34.4867 348.394 33.82C349.034 33.1533 349.894 32.82 350.974 32.82C352.054 32.82 352.914 33.1533 353.554 33.82C354.194 34.4867 354.514 35.4467 354.514 36.7ZM352.254 36.7C352.254 36.02 352.134 35.5267 351.894 35.22C351.654 34.9133 351.348 34.76 350.974 34.76C350.588 34.76 350.274 34.9133 350.034 35.22C349.808 35.5267 349.694 36.02 349.694 36.7C349.694 37.38 349.808 37.88 350.034 38.2C350.274 38.5067 350.588 38.66 350.974 38.66C351.348 38.66 351.654 38.5067 351.894 38.2C352.134 37.88 352.254 37.38 352.254 36.7ZM358.414 33.14H361.194L353.374 47H350.594L358.414 33.14ZM364.394 43.44C364.394 44.6933 364.074 45.6533 363.434 46.32C362.794 46.9867 361.934 47.32 360.854 47.32C359.774 47.32 358.914 46.9867 358.274 46.32C357.634 45.6533 357.314 44.6933 357.314 43.44C357.314 42.1867 357.634 41.2267 358.274 40.56C358.914 39.8933 359.774 39.56 360.854 39.56C361.934 39.56 362.794 39.8933 363.434 40.56C364.074 41.2267 364.394 42.1867 364.394 43.44ZM362.134 43.44C362.134 42.76 362.014 42.2667 361.774 41.96C361.534 41.6533 361.228 41.5 360.854 41.5C360.468 41.5 360.154 41.6533 359.914 41.96C359.688 42.2667 359.574 42.76 359.574 43.44C359.574 44.12 359.688 44.62 359.914 44.94C360.154 45.2467 360.468 45.4 360.854 45.4C361.228 45.4 361.534 45.2467 361.774 44.94C362.014 44.62 362.134 44.12 362.134 43.44Z" fill="white"/>
<path d="M491.4 36.02C491.787 35.86 492.187 35.68 492.6 35.48C493.027 35.2667 493.44 35.04 493.84 34.8C494.24 34.5467 494.62 34.2867 494.98 34.02C495.353 33.74 495.687 33.4467 495.98 33.14H498.06V47H495.08V37.02C494.68 37.2867 494.233 37.5333 493.74 37.76C493.247 37.9733 492.767 38.16 492.3 38.32L491.4 36.02ZM508.567 42.92C508.567 42.5333 508.481 42.1933 508.307 41.9C508.134 41.5933 507.834 41.34 507.407 41.14C506.981 40.94 506.407 40.7867 505.687 40.68C504.967 40.5733 504.061 40.52 502.967 40.52C503.114 39.28 503.234 38.02 503.327 36.74C503.421 35.46 503.494 34.26 503.547 33.14H511.047V35.64H506.047C506.021 36.12 505.987 36.5867 505.947 37.04C505.921 37.48 505.887 37.8667 505.847 38.2C507.794 38.3333 509.227 38.7933 510.147 39.58C511.081 40.3533 511.547 41.4333 511.547 42.82C511.547 43.46 511.434 44.0533 511.207 44.6C510.981 45.1467 510.641 45.62 510.187 46.02C509.734 46.42 509.161 46.7333 508.467 46.96C507.787 47.1867 506.987 47.3 506.067 47.3C505.707 47.3 505.327 47.2733 504.927 47.22C504.541 47.18 504.161 47.12 503.787 47.04C503.427 46.9733 503.101 46.9 502.807 46.82C502.514 46.74 502.287 46.66 502.127 46.58L502.667 44.12C503.001 44.2667 503.441 44.4133 503.987 44.56C504.534 44.6933 505.187 44.76 505.947 44.76C506.867 44.76 507.534 44.58 507.947 44.22C508.361 43.8467 508.567 43.4133 508.567 42.92ZM520.514 36.7C520.514 37.9533 520.194 38.9133 519.554 39.58C518.914 40.2467 518.054 40.58 516.974 40.58C515.894 40.58 515.034 40.2467 514.394 39.58C513.754 38.9133 513.434 37.9533 513.434 36.7C513.434 35.4467 513.754 34.4867 514.394 33.82C515.034 33.1533 515.894 32.82 516.974 32.82C518.054 32.82 518.914 33.1533 519.554 33.82C520.194 34.4867 520.514 35.4467 520.514 36.7ZM518.254 36.7C518.254 36.02 518.134 35.5267 517.894 35.22C517.654 34.9133 517.348 34.76 516.974 34.76C516.588 34.76 516.274 34.9133 516.034 35.22C515.808 35.5267 515.694 36.02 515.694 36.7C515.694 37.38 515.808 37.88 516.034 38.2C516.274 38.5067 516.588 38.66 516.974 38.66C517.348 38.66 517.654 38.5067 517.894 38.2C518.134 37.88 518.254 37.38 518.254 36.7ZM524.414 33.14H527.194L519.374 47H516.594L524.414 33.14ZM530.394 43.44C530.394 44.6933 530.074 45.6533 529.434 46.32C528.794 46.9867 527.934 47.32 526.854 47.32C525.774 47.32 524.914 46.9867 524.274 46.32C523.634 45.6533 523.314 44.6933 523.314 43.44C523.314 42.1867 523.634 41.2267 524.274 40.56C524.914 39.8933 525.774 39.56 526.854 39.56C527.934 39.56 528.794 39.8933 529.434 40.56C530.074 41.2267 530.394 42.1867 530.394 43.44ZM528.134 43.44C528.134 42.76 528.014 42.2667 527.774 41.96C527.534 41.6533 527.228 41.5 526.854 41.5C526.468 41.5 526.154 41.6533 525.914 41.96C525.688 42.2667 525.574 42.76 525.574 43.44C525.574 44.12 525.688 44.62 525.914 44.94C526.154 45.2467 526.468 45.4 526.854 45.4C527.228 45.4 527.534 45.2467 527.774 44.94C528.014 44.62 528.134 44.12 528.134 43.44Z" fill="white"/>
<path d="M665.92 36.78C665.92 37.2867 665.82 37.7733 665.62 38.24C665.42 38.7067 665.16 39.16 664.84 39.6C664.52 40.0267 664.16 40.44 663.76 40.84C663.36 41.24 662.967 41.62 662.58 41.98C662.38 42.1667 662.16 42.38 661.92 42.62C661.693 42.8467 661.473 43.08 661.26 43.32C661.047 43.56 660.853 43.7867 660.68 44C660.52 44.2 660.42 44.3667 660.38 44.5H666.34V47H657.1C657.073 46.8533 657.06 46.6667 657.06 46.44C657.06 46.2133 657.06 46.0533 657.06 45.96C657.06 45.32 657.16 44.7333 657.36 44.2C657.573 43.6667 657.847 43.1733 658.18 42.72C658.513 42.2533 658.887 41.82 659.3 41.42C659.727 41.02 660.147 40.62 660.56 40.22C660.88 39.9133 661.18 39.6267 661.46 39.36C661.74 39.08 661.987 38.8133 662.2 38.56C662.413 38.2933 662.58 38.0333 662.7 37.78C662.82 37.5133 662.88 37.2467 662.88 36.98C662.88 36.3933 662.713 35.98 662.38 35.74C662.047 35.5 661.633 35.38 661.14 35.38C660.78 35.38 660.44 35.44 660.12 35.56C659.813 35.6667 659.527 35.8 659.26 35.96C659.007 36.1067 658.787 36.26 658.6 36.42C658.413 36.5667 658.273 36.6867 658.18 36.78L656.7 34.7C657.287 34.1533 657.967 33.7067 658.74 33.36C659.527 33 660.367 32.82 661.26 32.82C662.073 32.82 662.773 32.9133 663.36 33.1C663.947 33.2867 664.427 33.5533 664.8 33.9C665.187 34.2333 665.467 34.6467 665.64 35.14C665.827 35.62 665.92 36.1667 665.92 36.78ZM678.047 40.04C678.047 42.3733 677.601 44.1667 676.707 45.42C675.827 46.66 674.607 47.28 673.047 47.28C671.487 47.28 670.261 46.66 669.367 45.42C668.487 44.1667 668.047 42.3733 668.047 40.04C668.047 38.88 668.161 37.8533 668.387 36.96C668.627 36.0667 668.967 35.3133 669.407 34.7C669.847 34.0867 670.374 33.62 670.987 33.3C671.601 32.98 672.287 32.82 673.047 32.82C674.607 32.82 675.827 33.4467 676.707 34.7C677.601 35.94 678.047 37.72 678.047 40.04ZM675.007 40.04C675.007 39.3467 674.974 38.72 674.907 38.16C674.841 37.5867 674.734 37.0933 674.587 36.68C674.441 36.2667 674.241 35.9467 673.987 35.72C673.734 35.4933 673.421 35.38 673.047 35.38C672.674 35.38 672.361 35.4933 672.107 35.72C671.867 35.9467 671.667 36.2667 671.507 36.68C671.361 37.0933 671.254 37.5867 671.187 38.16C671.121 38.72 671.087 39.3467 671.087 40.04C671.087 40.7333 671.121 41.3667 671.187 41.94C671.254 42.5133 671.361 43.0067 671.507 43.42C671.667 43.8333 671.867 44.1533 672.107 44.38C672.361 44.6067 672.674 44.72 673.047 44.72C673.421 44.72 673.734 44.6067 673.987 44.38C674.241 44.1533 674.441 43.8333 674.587 43.42C674.734 43.0067 674.841 42.5133 674.907 41.94C674.974 41.3667 675.007 40.7333 675.007 40.04ZM686.514 36.7C686.514 37.9533 686.194 38.9133 685.554 39.58C684.914 40.2467 684.054 40.58 682.974 40.58C681.894 40.58 681.034 40.2467 680.394 39.58C679.754 38.9133 679.434 37.9533 679.434 36.7C679.434 35.4467 679.754 34.4867 680.394 33.82C681.034 33.1533 681.894 32.82 682.974 32.82C684.054 32.82 684.914 33.1533 685.554 33.82C686.194 34.4867 686.514 35.4467 686.514 36.7ZM684.254 36.7C684.254 36.02 684.134 35.5267 683.894 35.22C683.654 34.9133 683.348 34.76 682.974 34.76C682.588 34.76 682.274 34.9133 682.034 35.22C681.808 35.5267 681.694 36.02 681.694 36.7C681.694 37.38 681.808 37.88 682.034 38.2C682.274 38.5067 682.588 38.66 682.974 38.66C683.348 38.66 683.654 38.5067 683.894 38.2C684.134 37.88 684.254 37.38 684.254 36.7ZM690.414 33.14H693.194L685.374 47H682.594L690.414 33.14ZM696.394 43.44C696.394 44.6933 696.074 45.6533 695.434 46.32C694.794 46.9867 693.934 47.32 692.854 47.32C691.774 47.32 690.914 46.9867 690.274 46.32C689.634 45.6533 689.314 44.6933 689.314 43.44C689.314 42.1867 689.634 41.2267 690.274 40.56C690.914 39.8933 691.774 39.56 692.854 39.56C693.934 39.56 694.794 39.8933 695.434 40.56C696.074 41.2267 696.394 42.1867 696.394 43.44ZM694.134 43.44C694.134 42.76 694.014 42.2667 693.774 41.96C693.534 41.6533 693.228 41.5 692.854 41.5C692.468 41.5 692.154 41.6533 691.914 41.96C691.688 42.2667 691.574 42.76 691.574 43.44C691.574 44.12 691.688 44.62 691.914 44.94C692.154 45.2467 692.468 45.4 692.854 45.4C693.228 45.4 693.534 45.2467 693.774 44.94C694.014 44.62 694.134 44.12 694.134 43.44Z" fill="white"/>
<rect x="11" y="9" width="735" height="4" fill="white"/>
<rect x="11" width="4" height="22" fill="#2E2E2E"/>
<rect x="177" width="4" height="22" fill="white"/>
<rect x="343" width="4" height="22" fill="white"/>
<rect x="509" width="4" height="22" fill="white"/>
<rect x="675" width="4" height="22" fill="white"/>
</svg>
