<svg width="50" height="50" viewBox="0 0 50 50" fill="none" xmlns="http://www.w3.org/2000/svg">
<path d="M22.9167 12.5H18.75V18.75H12.5V22.9167H18.75V29.1667H22.9167V22.9167H29.1667V18.75H22.9167V12.5Z" fill="#E5E5E5"/>
<path d="M20.8327 4.16675C11.6431 4.16675 4.16602 11.6438 4.16602 20.8334C4.16602 30.023 11.6431 37.5001 20.8327 37.5001C24.5306 37.4993 28.1219 36.2614 31.0348 33.9834L40.1931 43.1417L43.1389 40.1959L33.9806 31.0376C36.2598 28.1244 37.4985 24.5322 37.4993 20.8334C37.4993 11.6438 30.0223 4.16675 20.8327 4.16675ZM20.8327 33.3334C13.9389 33.3334 8.33268 27.7272 8.33268 20.8334C8.33268 13.9397 13.9389 8.33341 20.8327 8.33341C27.7264 8.33341 33.3327 13.9397 33.3327 20.8334C33.3327 27.7272 27.7264 33.3334 20.8327 33.3334Z" fill="#E5E5E5"/>
</svg>
