<svg width="442" height="100" viewBox="0 0 442 100" fill="none" xmlns="http://www.w3.org/2000/svg">
<g clip-path="url(#clip0)">
<path fill-rule="evenodd" clip-rule="evenodd" d="M57.542 93.266C52.4221 88.4059 54.8325 88.2519 56.9095 79.2248L58.1232 74.8695C58.183 74.6812 58.2599 74.4844 58.3112 74.2876C61.1831 64.0113 61.8412 67.9473 73.0894 70.4543C83.6624 72.7988 83.9787 73.2523 84.1154 79.2847L65.1234 90.622C61.9438 92.436 61.5164 92.4275 57.542 93.266ZM6.75405 58.6378L9.54046 54.8815C11.4721 53.1958 28.6009 58.2271 32.0796 60.4945L29.2163 75.4941C28.5496 77.4364 27.3957 82.2195 25.1905 83.2549C20.2417 85.5822 16.0706 76.1102 14.1645 73.0641C12.2756 70.0351 7.42074 62.1802 6.75405 58.6378ZM68.3628 39.437C68.0637 35.0475 71.6535 21.3228 75.2519 16.882L80.4145 17.0274C82.7991 20.4415 85.2437 24.6513 87.4916 28.3734C92.0388 35.9202 101.937 48.9946 81.8504 43.6639C77.2776 42.4489 72.0125 41.5932 68.3628 39.437ZM33.4215 89.7921C33.1993 87.0369 33.1737 87.9182 33.7207 85.4453C35.6695 76.5551 42.174 62.6166 36.4986 55.3093C33.3959 51.322 26.3615 50.6973 21.6349 49.4909C21.4554 49.4481 21.2502 49.3967 21.0707 49.3368C15.3526 47.6683 9.1131 47.1293 6.23267 42.6628C5.42068 35.6635 8.66864 32.0869 15.0364 33.6185C36.3276 38.7182 44.7638 46.2822 49.6699 26.4311L50.9264 21.3143C52.3367 16.3001 52.9692 9.2239 56.5419 6.93931C59.8326 4.84296 70.8244 3.84185 65.9183 19.7826L63.1661 29.5285C57.9779 44.4596 64.0293 46.7528 78.2349 50.3551C82.5855 51.4589 90.8849 52.6054 93.261 55.1809C97.15 59.4079 94.2269 66.8777 87.4403 66.6638C84.2009 66.5526 74.7733 63.8487 71.1663 62.8561C65.9525 61.4186 60.6617 58.6634 56.3539 62.6765C47.9434 70.5142 51.764 96.9453 39.1226 94.4468C36.8917 94.0104 34.7635 91.5633 33.4215 89.7921ZM38.7551 32.0356C35.943 31.8987 33.866 31.0858 31.0796 30.3756C27.7889 29.5285 19.1561 27.7145 17.4723 25.6096C15.5663 23.2224 16.3014 21.28 18.1818 19.68C19.5408 18.5248 22.4725 17.0189 24.0879 16.0434L28.7804 13.5278C28.9941 13.408 29.6009 13.0572 29.8061 12.946C29.8915 12.8946 30.9343 12.2786 31.3018 12.0561L38.2337 7.82063C38.473 7.7094 39.1226 6.18634 43.2338 7.24734C43.4048 7.29013 44.1484 7.46981 44.4048 7.52115C47.3451 12.5609 45.4048 14.2038 43.4219 22.6662L41.9945 27.6119C41.3021 30.2473 42.0201 29.0836 40.9175 30.4868C40.2423 31.3425 39.6269 31.5136 38.7551 32.0356ZM50.7212 5.86119C44.1484 0.864184 43.1654 -2.6611 33.601 3.11455C33.4472 3.20867 33.2506 3.32846 33.1053 3.41403C33.0797 3.43114 31.5241 4.20978 31.4899 4.22689L13.797 14.4862C8.39513 19.4318 11.361 22.4095 11.5747 28.9467C5.42068 29.5456 1.33508 31.5735 0.283765 37.1096C-1.16072 44.6992 3.65139 46.4447 5.95061 49.8502C-2.477 59.5105 -1.49407 59.8699 7.63442 74.7925C8.39513 76.0332 8.69428 76.4011 9.46354 77.753C17.686 92.1451 15.9766 89.1075 29.0026 88.2262C30.0539 102.404 41.8577 100.667 45.251 98.6652C47.516 97.3389 47.4049 95.9784 49.9263 94.4126C53.4051 96.449 56.5077 101.48 63.8413 98.8448L87.4745 85.0432C92.5858 80.2259 88.8934 74.185 88.8421 71.233C94.8679 69.4789 99.039 69.3078 100.689 63.0358C102.398 56.5243 97.5347 52.5028 94.7055 50.6118C101.013 40.3439 105.885 44.9559 89.9105 19.757C82.9188 8.72762 85.2608 10.4732 72.192 11.5598C70.9184 6.08366 69.8244 1.75406 64.1148 0.385019C55.9693 -1.58298 52.6187 4.59483 50.7212 5.86119Z" fill="white"/>
<path fill-rule="evenodd" clip-rule="evenodd" d="M396.689 57.0377C394.988 38.7182 397.869 36.8358 409.801 36.3823C415.365 36.1683 421.801 36.0913 427.34 36.5448C434.46 37.1181 435.699 37.8625 436.255 45.0158C437.819 65.2006 435.203 65.8338 422.605 65.8509C416.886 65.8595 411.057 66.0819 405.382 65.5771C398.476 64.9696 397.296 63.6519 396.689 57.0377ZM441.366 59.4335C442.332 53.3841 442.169 44.297 440.853 39.0006C439.186 32.3094 433.178 31.796 425.784 31.4537C409.339 30.6922 394.057 28.7242 391.809 42.0467C390.945 47.2234 390.826 58.8517 392.416 63.3438C394.681 69.7527 399.698 70.4201 407.416 70.7024C426.981 71.4297 439.161 73.3892 441.366 59.4335Z" fill="white"/>
<path fill-rule="evenodd" clip-rule="evenodd" d="M212.333 59.4335C211.145 65.4744 208.128 65.56 201.564 65.8167C196.093 66.022 189.418 66.0049 183.948 65.7226C178.093 65.4145 174.554 65.0979 173.708 59.425C173.144 55.6002 173.11 45.8287 173.836 42.0895C174.939 36.425 178.905 36.7245 184.76 36.4507C190.375 36.1855 196.769 36.0913 202.367 36.4422C208.624 36.8358 211.461 36.7416 212.444 42.9708C213.171 47.54 213.179 55.1125 212.333 59.4335ZM168.204 57.842C168.947 65.5942 170.417 68.9056 177.751 70.1891C183.503 71.1987 193.922 71.0362 199.948 70.8137C207.333 70.5399 213.658 70.3516 216.342 64.653C218.453 60.1694 218.376 49.8331 217.889 44.3741C216.53 28.9552 208.683 31.2312 186.384 31.3596C167.887 31.4708 166.494 39.9247 168.204 57.842Z" fill="white"/>
<path fill-rule="evenodd" clip-rule="evenodd" d="M271.352 54.2055C270.344 50.0128 270.173 41.037 271.138 36.8358C276.156 36.1256 285.583 36.4593 290.951 36.6219C297.473 36.8272 301.575 37.4604 301.609 45.0415C301.644 53.4611 297.686 53.8461 290.113 53.8547C284.113 53.8718 277.019 52.9734 271.352 54.2055ZM270.831 59.3908C283.976 58.8859 301.763 62.0775 305.584 54.0087C307.028 50.9455 307.37 47.1378 306.969 42.62C306.174 33.6185 301.644 31.4024 291.729 31.3596C286.327 31.3339 269.959 30.3414 266.053 32.1297C264.078 35.9887 264.933 64.8327 265.335 70.788L270.702 70.2661L270.831 59.3908Z" fill="white"/>
<path fill-rule="evenodd" clip-rule="evenodd" d="M144.322 70.7281C147.605 65.637 165.562 35.0132 167.135 30.6494C166.733 30.4611 164.733 29.2889 164.648 29.2632L162.554 29.0579C162.408 28.7755 162.015 29.1349 161.75 29.1777L140.399 65.2862L136.527 65.2947L114.492 28.2365L109.407 30.2558C111.039 35.4924 117.894 45.5805 120.877 50.723C132.895 71.4126 129.254 72.1485 144.322 70.7281Z" fill="white"/>
<path fill-rule="evenodd" clip-rule="evenodd" d="M327.918 38.1022C329.371 36.3053 330.157 36.7417 333.602 36.8016C338.217 46.7357 351.859 66.6809 354.423 73.7999L359.799 71.7549C358.466 67.7077 338.064 32.4035 337.055 31.7447C333.157 30.7435 330.072 30.8719 326.029 31.2313C322.67 34.4913 303.208 68.7601 302.225 71.9945C304.746 72.833 304.729 73.0641 307.575 73.5946L327.918 38.1022Z" fill="white"/>
<path fill-rule="evenodd" clip-rule="evenodd" d="M388.424 36.7416L388.646 31.8815C383.219 30.7178 351.996 30.2216 347.927 32.2922L348.602 36.6304L364.774 36.6646C366.329 46.6757 363.551 61.2988 365.56 70.6425L370.765 70.9506L371.039 36.6047L388.424 36.7416Z" fill="white"/>
<path fill-rule="evenodd" clip-rule="evenodd" d="M223.573 31.8046C223.333 35.9374 223.043 67.2884 223.803 69.1024C224.898 71.695 228.128 70.7453 231.864 70.7367L260.129 71.0447L260.241 65.0808L229.214 64.5418L229.052 31.4965L223.573 31.8046Z" fill="white"/>
</g>
<defs>
<clipPath id="clip0">
<rect width="442" height="100" fill="white"/>
</clipPath>
</defs>
</svg>
