<svg width="283" height="59" viewBox="0 0 283 59" fill="none" xmlns="http://www.w3.org/2000/svg">
<path d="M12.88 29.24C12.88 31.96 13.2 34.4133 13.84 36.6C14.5333 38.7867 15.4933 40.68 16.72 42.28C18 43.8267 19.5467 45.0267 21.36 45.88C23.1733 46.7333 25.2533 47.16 27.6 47.16C29.8933 47.16 31.9467 46.7333 33.76 45.88C35.6267 45.0267 37.1733 43.8267 38.4 42.28C39.68 40.68 40.64 38.7867 41.28 36.6C41.9733 34.4133 42.32 31.96 42.32 29.24C42.32 26.52 41.9733 24.0667 41.28 21.88C40.64 19.64 39.68 17.7467 38.4 16.2C37.1733 14.6 35.6267 13.3733 33.76 12.52C31.9467 11.6667 29.8933 11.24 27.6 11.24C25.2533 11.24 23.1733 11.6933 21.36 12.6C19.5467 13.4533 18 14.68 16.72 16.28C15.4933 17.8267 14.5333 19.72 13.84 21.96C13.2 24.1467 12.88 26.5733 12.88 29.24ZM55.2 29.24C55.2 33.9867 54.48 38.1733 53.04 41.8C51.6533 45.3733 49.7333 48.3867 47.28 50.84C44.8267 53.24 41.8933 55.0533 38.48 56.28C35.12 57.5067 31.4933 58.12 27.6 58.12C23.8133 58.12 20.24 57.5067 16.88 56.28C13.52 55.0533 10.5867 53.24 8.08 50.84C5.57333 48.3867 3.6 45.3733 2.16 41.8C0.72 38.1733 5.96046e-08 33.9867 5.96046e-08 29.24C5.96046e-08 24.4933 0.746667 20.3333 2.24 16.76C3.73333 13.1333 5.73333 10.0933 8.24 7.64C10.8 5.18666 13.7333 3.34666 17.04 2.12C20.4 0.893329 23.92 0.279996 27.6 0.279996C31.3867 0.279996 34.96 0.893329 38.32 2.12C41.68 3.34666 44.6133 5.18666 47.12 7.64C49.6267 10.0933 51.6 13.1333 53.04 16.76C54.48 20.3333 55.2 24.4933 55.2 29.24ZM111.203 1.56V57H98.7231V12.12H78.0831V57H65.6031V1.56H111.203ZM140.681 0.919997C148.947 0.919997 155.294 2.38666 159.721 5.32C164.147 8.2 166.361 12.9467 166.361 19.56C166.361 26.2267 164.121 31.0533 159.641 34.04C155.161 36.9733 148.761 38.44 140.441 38.44H136.521V57H124.041V2.36C126.761 1.82666 129.641 1.45333 132.681 1.24C135.721 1.02666 138.387 0.919997 140.681 0.919997ZM141.481 11.56C140.574 11.56 139.667 11.5867 138.761 11.64C137.907 11.6933 137.161 11.7467 136.521 11.8V27.8H140.441C144.761 27.8 148.014 27.2133 150.201 26.04C152.387 24.8667 153.481 22.68 153.481 19.48C153.481 17.9333 153.187 16.6533 152.601 15.64C152.067 14.6267 151.267 13.8267 150.201 13.24C149.187 12.6 147.934 12.1733 146.441 11.96C144.947 11.6933 143.294 11.56 141.481 11.56ZM186.005 29.24C186.005 31.96 186.325 34.4133 186.965 36.6C187.658 38.7867 188.618 40.68 189.845 42.28C191.125 43.8267 192.672 45.0267 194.485 45.88C196.298 46.7333 198.378 47.16 200.725 47.16C203.018 47.16 205.072 46.7333 206.885 45.88C208.752 45.0267 210.298 43.8267 211.525 42.28C212.805 40.68 213.765 38.7867 214.405 36.6C215.098 34.4133 215.445 31.96 215.445 29.24C215.445 26.52 215.098 24.0667 214.405 21.88C213.765 19.64 212.805 17.7467 211.525 16.2C210.298 14.6 208.752 13.3733 206.885 12.52C205.072 11.6667 203.018 11.24 200.725 11.24C198.378 11.24 196.298 11.6933 194.485 12.6C192.672 13.4533 191.125 14.68 189.845 16.28C188.618 17.8267 187.658 19.72 186.965 21.96C186.325 24.1467 186.005 26.5733 186.005 29.24ZM228.325 29.24C228.325 33.9867 227.605 38.1733 226.165 41.8C224.778 45.3733 222.858 48.3867 220.405 50.84C217.952 53.24 215.018 55.0533 211.605 56.28C208.245 57.5067 204.618 58.12 200.725 58.12C196.938 58.12 193.365 57.5067 190.005 56.28C186.645 55.0533 183.712 53.24 181.205 50.84C178.698 48.3867 176.725 45.3733 175.285 41.8C173.845 38.1733 173.125 33.9867 173.125 29.24C173.125 24.4933 173.872 20.3333 175.365 16.76C176.858 13.1333 178.858 10.0933 181.365 7.64C183.925 5.18666 186.858 3.34666 190.165 2.12C193.525 0.893329 197.045 0.279996 200.725 0.279996C204.512 0.279996 208.085 0.893329 211.445 2.12C214.805 3.34666 217.738 5.18666 220.245 7.64C222.752 10.0933 224.725 13.1333 226.165 16.76C227.605 20.3333 228.325 24.4933 228.325 29.24ZM264.008 58.12C254.995 58.12 248.115 55.6133 243.368 50.6C238.675 45.5867 236.328 38.4667 236.328 29.24C236.328 24.6533 237.048 20.5733 238.488 17C239.928 13.3733 241.901 10.3333 244.408 7.88C246.915 5.37333 249.901 3.48 253.368 2.2C256.835 0.919996 260.595 0.279996 264.648 0.279996C266.995 0.279996 269.128 0.466663 271.048 0.839998C272.968 1.16 274.648 1.56 276.088 2.04C277.528 2.46666 278.728 2.92 279.688 3.4C280.648 3.88 281.341 4.25333 281.768 4.52L278.168 14.6C276.461 13.6933 274.461 12.92 272.168 12.28C269.928 11.64 267.368 11.32 264.488 11.32C262.568 11.32 260.675 11.64 258.808 12.28C256.995 12.92 255.368 13.96 253.928 15.4C252.541 16.7867 251.421 18.6 250.568 20.84C249.715 23.08 249.288 25.8 249.288 29C249.288 31.56 249.555 33.96 250.088 36.2C250.675 38.3867 251.581 40.28 252.808 41.88C254.088 43.48 255.741 44.76 257.768 45.72C259.795 46.6267 262.248 47.08 265.128 47.08C266.941 47.08 268.568 46.9733 270.008 46.76C271.448 46.5467 272.728 46.3067 273.848 46.04C274.968 45.72 275.955 45.3733 276.808 45C277.661 44.6267 278.435 44.28 279.128 43.96L282.568 53.96C280.808 55.0267 278.328 55.9867 275.128 56.84C271.928 57.6933 268.221 58.12 264.008 58.12Z" fill="#F9F9F9"/>
</svg>
