<?xml version="1.0" encoding="UTF-8"?>
<!DOCTYPE svg PUBLIC "-//W3C//DTD SVG 1.1//EN" "http://www.w3.org/Graphics/SVG/1.1/DTD/svg11.dtd">
<!-- Creator: CorelDRAW 2018 (64-Bit) -->
<svg xmlns="http://www.w3.org/2000/svg" xml:space="preserve" width="1649px" height="626px" version="1.1" style="shape-rendering:geometricPrecision; text-rendering:geometricPrecision; image-rendering:optimizeQuality; fill-rule:evenodd; clip-rule:evenodd"
viewBox="0 0 128941 48942"
 xmlns:xlink="http://www.w3.org/1999/xlink">
 <defs>
  <style type="text/css">
   <![CDATA[
    .str0 {stroke:#F87AFF;stroke-width:70;stroke-miterlimit:22.9256}
    .fil0 {fill:none}
   ]]>
  </style>
 </defs>
 <g id="Слой_x0020_1">
  <metadata id="CorelCorpID_0Corel-Layer"/>
  <g id="_2331806795680">
   <rect class="fil0" x="48" width="128846" height="48942"/>
   <path class="fil0 str0" d="M37009 11072c10902,-1468 21509,-2902 31834,-4294 10051,-1355 19841,-2674 29391,-3963 1167,-156 2333,-314 3500,-472 359,-49 719,-97 1079,-147 2177,1934 4399,3921 6684,5956 1119,996 2251,2004 3398,3026l1 0c1455,1294 2937,2615 4442,3955 -388,61 -776,121 -1164,181 1897,1707 3840,3448 5826,5233 2233,2005 4520,4072 6864,6184 -3896,681 -7829,1368 -11801,2063 300,295 600,590 913,888 -9721,1713 -19720,3473 -29984,5282 -10541,1857 -21398,3773 -32571,5737 -3532,-5719 -6855,-11092 -9992,-16135 -2958,-4755 -5765,-9244 -8420,-13494z"/>
   <path class="fil0 str0" d="M46152 25738c1236,-190 2472,-381 3696,-575 740,1137 1476,2282 2233,3444 -1257,200 -2514,404 -3771,603 -724,-1172 -1439,-2329 -2158,-3472z"/>
   <path class="fil0 str0" d="M49418 30078c409,-68 842,-139 1275,-205 351,555 706,1121 1059,1683 -436,72 -873,140 -1285,210 -350,-564 -701,-1128 -1049,-1688z"/>
   <path class="fil0 str0" d="M50994 29823c409,-68 842,-138 1275,-205 355,554 714,1118 1071,1678 -436,68 -860,140 -1285,209 -354,-561 -709,-1123 -1061,-1682z"/>
   <path class="fil0 str0" d="M56706 36191c2171,-369 4342,-739 6488,-1106 -167,-254 -349,-514 -518,-771 -2151,363 -4315,729 -6465,1095 161,264 335,525 495,782z"/>
   <path class="fil0 str0" d="M56469 34480c1884,-317 3793,-636 5665,-952 -388,-573 -772,-1136 -1157,-1702 -1869,309 -3751,621 -5620,931 370,573 739,1147 1112,1723z"/>
   <path class="fil0 str0" d="M52057 28800c2073,-328 4122,-658 6170,-988 704,1015 1403,2040 2108,3075 -2080,344 -4171,688 -6275,1030 -674,-1046 -1342,-2089 -2003,-3117z"/>
   <path class="fil0 str0" d="M52085 28123c1911,-302 3822,-607 5734,-912 108,146 202,288 295,430 -1915,307 -3831,614 -5746,919 -102,-145 -191,-289 -283,-437z"/>
   <path class="fil0 str0" d="M50142 25122c1884,-294 3767,-587 5650,-879 116,177 231,351 357,525 -1889,291 -3777,586 -5665,881 -120,-175 -231,-351 -342,-527z"/>
   <path class="fil0 str0" d="M69046 22187c4002,-619 7945,-1231 11864,-1841 730,850 1468,1707 2210,2571 -3974,633 -7983,1268 -12027,1911 -688,-887 -1371,-1768 -2047,-2641z"/>
   <path class="fil0 str0" d="M86430 19491c-1753,272 -3507,545 -5261,817 732,847 1470,1706 2213,2566 1778,-280 3556,-563 5322,-845 -767,-852 -1518,-1699 -2274,-2538z"/>
   <path class="fil0 str0" d="M92433 18562c-1777,274 -3578,554 -5379,833 758,835 1524,1684 2282,2535 1826,-291 3651,-581 5453,-868 -795,-838 -1573,-1675 -2356,-2500z"/>
   <path class="fil0 str0" d="M65528 26764c4232,-677 8404,-1347 12540,-2013 612,745 1225,1490 1832,2246 -4184,683 -8403,1377 -12684,2075 -570,-773 -1136,-1542 -1688,-2308z"/>
   <path class="fil0 str0" d="M79758 24481c4579,-735 9123,-1462 13606,-2181 646,707 1293,1411 1959,2124 -4534,744 -9117,1494 -13748,2250 -614,-735 -1210,-1464 -1817,-2193z"/>
   <path class="fil0 str0" d="M65513 30658c4146,-685 8232,-1359 12292,-2031 694,870 1381,1748 2083,2628 -4114,696 -8253,1398 -12441,2107 -648,-905 -1294,-1809 -1934,-2704z"/>
   <path class="fil0 str0" d="M81041 29579c6751,-1130 13380,-2239 19898,-3331 1014,1071 2042,2156 3082,3259 -6628,1139 -13368,2304 -20220,3484 -928,-1153 -1856,-2292 -2760,-3412z"/>
   <path class="fil0 str0" d="M86591 35209c1944,-340 3889,-684 5833,-1026 -219,-247 -429,-500 -651,-753 -1924,336 -3874,677 -5811,1014 215,256 417,512 629,765z"/>
   <path class="fil0 str0" d="M66543 38744c2071,-365 4116,-727 6148,-1085 -145,-208 -290,-417 -451,-626 -2027,355 -4066,714 -6131,1073 155,215 295,427 434,638z"/>
   <path class="fil0 str0" d="M93034 18468c1467,-228 2926,-453 4391,-680l-1 -1 182 -27 12 -1 1 -1 568 -88 13 -1 13 -3 6 7 6 7c697,711 1399,1429 2106,2150 -274,44 -536,86 -798,128 -567,-584 -1130,-1164 -1690,-1740 -1462,228 -2925,455 -4397,685 -145,-144 -279,-288 -412,-435z"/>
   <path class="fil0 str0" d="M105129 25687c-1569,-1602 -3099,-3179 -4610,-4724 263,-43 527,-86 802,-127 1506,1539 3055,3113 4618,4715 -270,48 -540,93 -810,136z"/>
   <path class="fil0 str0" d="M108989 29655l-1 -1c-1316,230 -2632,461 -3948,689 -152,-163 -319,-332 -474,-497 1310,-229 2630,-455 3940,-683 -758,-776 -1504,-1549 -2243,-2313 259,-47 531,-93 815,-141 899,924 1822,1861 2738,2804 -288,50 -551,94 -827,142z"/>
   <path class="fil0 str0" d="M99754 17427c1531,-239 3061,-477 4603,-713 415,411 844,821 1261,1235 -1541,243 -3082,485 -4622,729 -419,-418 -837,-836 -1242,-1251z"/>
   <path class="fil0 str0" d="M112432 24586c1282,1243 2571,2508 3891,3795 -2081,361 -4150,720 -6244,1086 -1278,-1305 -2538,-2591 -3780,-3855 2052,-342 4093,-684 6133,-1026z"/>
   <path class="fil0 str0" d="M104334 18325c424,411 836,826 1260,1238 478,-77 967,-156 1445,-231 -415,-410 -843,-824 -1258,-1234 -487,77 -973,151 -1447,227z"/>
   <path class="fil0 str0" d="M55421 40701c3472,-610 6931,-1218 10365,-1825 -836,-1212 -1652,-2418 -2457,-3607 -3377,577 -6779,1159 -10182,1744 749,1214 1508,2446 2274,3688z"/>
   <path class="fil0 str0" d="M65840 24211c1339,-209 2655,-417 3982,-625 -349,-452 -700,-908 -1047,-1357 -1318,204 -2625,408 -3955,613 338,453 680,913 1020,1369z"/>
   <path class="fil0 str0" d="M53946 33197c375,593 764,1185 1142,1782 -974,165 -1936,325 -2897,490 -371,-601 -739,-1197 -1107,-1793 954,-161 1908,-317 2862,-479z"/>
   <path class="fil0 str0" d="M105150 17199c3766,-586 7485,-1165 11192,-1741 1970,1773 3988,3589 6047,5443 2105,1894 4269,3842 6475,5830 -3896,681 -7829,1368 -11801,2063 -2106,-2047 -4160,-4049 -6167,-6002 -1954,-1902 -3878,-3772 -5746,-5593z"/>
   <path class="fil0 str0" d="M102813 2196c-3805,513 -7653,1032 -11523,1557 2122,2060 4316,4178 6559,6357 2309,2242 4702,4561 7151,6943 2206,-345 4400,-686 6593,-1026 -1521,-1404 -3009,-2789 -4469,-4148 1877,-277 3754,-557 5620,-837 -1738,-1548 -3443,-3069 -5111,-4553 -1635,-1454 -3245,-2890 -4820,-4293z"/>
   <path class="fil0 str0" d="M37009 11072c9539,-1287 18871,-2545 27963,-3772 8885,-1199 17585,-2372 26078,-3517 2042,1986 4152,4024 6306,6120 2215,2157 4494,4377 6840,6662 -9079,1406 -18406,2852 -27955,4329 -9797,1516 -19863,3075 -30189,4677 -1617,-2606 -3196,-5134 -4719,-7580 -1477,-2372 -2916,-4679 -4324,-6919z"/>
   <path class="fil0 str0" d="M48 16049c6366,-862 12689,-1712 18881,-2548 6105,-824 12133,-1638 18075,-2436 2657,4250 5461,8735 8421,13494 3138,5046 6462,10420 9996,16142 -6944,1224 -14014,2472 -21197,3737 -7322,1290 -14784,2604 -22358,3941 -2297,-6285 -4446,-12163 -6461,-17673 -1893,-5178 -3675,-10053 -5357,-14657z"/>
   <path class="fil0 str0" d="M19316 47071c-2474,434 -4961,875 -7449,1312 -705,-1929 -1398,-3826 -2077,-5681 2418,-413 4835,-822 7252,-1230 748,1832 1511,3698 2274,5599z"/>
   <path class="fil0 str0" d="M111829 15989c1840,-287 3681,-570 5509,-856 -1505,-1340 -2987,-2661 -4442,-3955 -1787,268 -3584,537 -5394,807 1425,1308 2865,2647 4327,4004z"/>
  </g>
 </g>
</svg>
