<?xml version="1.0" encoding="UTF-8"?>
<!DOCTYPE svg PUBLIC "-//W3C//DTD SVG 1.1//EN" "http://www.w3.org/Graphics/SVG/1.1/DTD/svg11.dtd">
<!-- Creator: CorelDRAW 2018 (64-Bit) -->
<svg xmlns="http://www.w3.org/2000/svg" xml:space="preserve" width="1650px" height="626px" version="1.1" style="shape-rendering:geometricPrecision; text-rendering:geometricPrecision; image-rendering:optimizeQuality; fill-rule:evenodd; clip-rule:evenodd"
viewBox="0 0 91107 34573"
 xmlns:xlink="http://www.w3.org/1999/xlink">
 <defs>
  <style type="text/css">
   <![CDATA[
    .str0 {stroke:#F5B2B6;stroke-width:50;stroke-miterlimit:22.9256}
    .fil0 {fill:none}
   ]]>
  </style>
 </defs>
 <g id="Слой_x0020_1">
  <metadata id="CorelCorpID_0Corel-Layer"/>
  <g id="_2332120457728">
   <polygon class="fil0" points="34,0 91052,0 91052,34573 34,34573 "/>
   <path class="fil0 str0" d="M26013 7074c1858,2974 3833,6117 5909,9448 2202,3534 4537,7299 7022,11304 -4885,860 -9846,1734 -14906,2625 -5153,907 -10398,1830 -15726,2770 -1609,-4400 -3115,-8519 -4527,-12383 -1325,-3625 -2574,-7042 -3751,-10263 4483,-605 8916,-1202 13270,-1790 4296,-579 8528,-1149 12709,-1711z"/>
   <path class="fil0 str0" d="M16133 13361c1855,-267 3711,-533 5544,-797 473,839 946,1693 1424,2556 486,879 980,1771 1480,2678 -1912,294 -3847,591 -5781,888 -464,-922 -918,-1832 -1363,-2725 -439,-880 -880,-1746 -1304,-2600z"/>
   <path class="fil0 str0" d="M18657 18857c-890,137 -1789,277 -2680,413 -457,-956 -902,-1895 -1342,-2822 -431,-908 -857,-1805 -1274,-2691 -1341,194 -2690,387 -4039,580 391,895 787,1801 1188,2724 409,939 823,1890 1245,2858 48,95 89,190 128,283 726,1678 1480,3405 2255,5180 2409,-394 4802,-787 7179,-1179 -911,-1833 -1798,-3616 -2660,-5346z"/>
   <path class="fil0 str0" d="M24661 17932c-1921,296 -3858,595 -5794,892 863,1729 1753,3511 2666,5343 2024,-329 4032,-660 6031,-988 -994,-1799 -1962,-3547 -2903,-5247z"/>
   <path class="fil0 str0" d="M3882 21103c571,1563 1157,3166 1758,4810 2205,-361 4418,-721 6615,-1077 -685,-1610 -1346,-3182 -1991,-4715 -2122,325 -4252,655 -6382,982z"/>
   <path class="fil0 str0" d="M26017 7082c470,755 952,1525 1436,2297 494,788 994,1586 1504,2395 -1956,282 -3926,565 -5905,851 -201,-354 -402,-707 -601,-1056 -2222,315 -4451,632 -6702,951 -58,-119 -116,-238 -174,-357 -1012,141 -2017,284 -3021,425 55,123 111,243 173,361 -1659,234 -3311,470 -4977,706 -570,-1327 -1119,-2625 -1657,-3897 3419,-461 6802,-915 10135,-1361 3296,-442 6565,-881 9789,-1315zm-20125 2703c-1950,262 -3908,526 -5858,790 587,1608 1190,3257 1811,4958 641,1752 1303,3562 1984,5425 2128,-327 4256,-655 6376,-979 -775,-1828 -1525,-3606 -2252,-5326 -705,-1669 -1398,-3289 -2061,-4868zm23138 2112c898,1440 1826,2920 2770,4437 -2023,308 -4062,619 -6115,935 -877,-1547 -1732,-3053 -2565,-4519 1988,-287 3953,-571 5910,-853z"/>
   <path class="fil0 str0" d="M31886 16464c-2032,310 -4073,624 -6128,938 481,853 969,1716 1463,2592 2101,-333 4179,-662 6249,-990 -540,-859 -1066,-1705 -1584,-2540z"/>
   <path class="fil0 str0" d="M33913 19716c-2080,333 -4168,666 -6280,1004 737,1303 1491,2640 2258,4003 784,1392 1587,2820 2406,4274 2238,-394 4451,-784 6647,-1171 -888,-1423 -1748,-2824 -2594,-4185 -830,-1337 -1644,-2644 -2437,-3925z"/>
   <path class="fil0 str0" d="M13599 32289c-1762,310 -3525,620 -5287,932 -560,-1531 -1108,-3030 -1645,-4500 1707,-287 3414,-573 5122,-859 590,1444 1193,2921 1810,4427z"/>
   <path class="fil0 str0" d="M21273 30937c-2463,434 -4935,870 -7441,1310 -451,-1113 -904,-2212 -1349,-3291 1236,-209 2464,-418 3700,-627 -298,-673 -586,-1337 -879,-1997 1181,-197 2361,-392 3533,-586 791,1686 1604,3418 2436,5191z"/>
   <path class="fil0 str0" d="M32113 29030c-3491,614 -7023,1236 -10606,1866 -835,-1772 -1650,-3503 -2451,-5187 3452,-573 6864,-1142 10235,-1701 912,1633 1855,3307 2822,5022z"/>
   <path class="fil0 str0" d="M5697 26069c384,-63 768,-127 1168,-190 301,803 606,1618 915,2444 -398,68 -796,135 -1186,201 -303,-829 -602,-1648 -897,-2455z"/>
   <path class="fil0 str0" d="M8120 25672c-344,57 -679,113 -1015,167 104,278 209,557 314,835 338,-53 675,-110 1021,-167 -107,-277 -213,-556 -320,-835z"/>
   <path class="fil0 str0" d="M8502 26666c-347,57 -684,115 -1022,170 56,151 113,302 169,451 339,-56 686,-113 1025,-171 -57,-148 -115,-299 -172,-450z"/>
   <path class="fil0 str0" d="M8735 27276c-339,57 -686,115 -1026,171 105,280 210,557 314,835 341,-55 690,-114 1040,-172 -107,-277 -221,-556 -328,-834z"/>
   <path class="fil0 str0" d="M9064 25519c-240,39 -472,78 -712,115 107,279 213,555 320,832 241,-40 483,-80 724,-120 -116,-275 -224,-551 -332,-827z"/>
   <path class="fil0 str0" d="M10719 25249c-471,78 -951,154 -1415,231 109,278 216,551 325,829 474,-78 948,-157 1431,-236 -111,-275 -221,-549 -341,-824z"/>
   <path class="fil0 str0" d="M11125 26235c-805,131 -1593,263 -2390,393 184,478 369,959 563,1442 796,-135 1600,-268 2412,-404 -193,-478 -394,-958 -585,-1431z"/>
   <path class="fil0 str0" d="M12311 24991c-456,75 -912,147 -1360,221 330,793 656,1598 994,2415 455,-77 918,-153 1372,-230 -337,-813 -678,-1615 -1006,-2406z"/>
   <path class="fil0 str0" d="M69729 12471c4399,-690 8735,-1369 13009,-2037 1312,1168 2653,2362 4021,3579 1399,1244 2831,2517 4293,3819 -4494,781 -9055,1578 -13699,2387 -1340,-1365 -2650,-2702 -3933,-4003 -1260,-1277 -2489,-2523 -3691,-3745z"/>
  </g>
 </g>
</svg>
