<?xml version="1.0" encoding="UTF-8"?>
<!DOCTYPE svg PUBLIC "-//W3C//DTD SVG 1.1//EN" "http://www.w3.org/Graphics/SVG/1.1/DTD/svg11.dtd">
<!-- Creator: CorelDRAW 2018 (64-Bit) -->
<svg xmlns="http://www.w3.org/2000/svg" xml:space="preserve" width="1650px" height="626px" version="1.1" style="shape-rendering:geometricPrecision; text-rendering:geometricPrecision; image-rendering:optimizeQuality; fill-rule:evenodd; clip-rule:evenodd"
viewBox="0 0 165038 62628"
 xmlns:xlink="http://www.w3.org/1999/xlink">
 <defs>
  <style type="text/css">
   <![CDATA[
    .str0 {stroke:#FFED00;stroke-width:90;stroke-miterlimit:22.9256}
    .fil0 {fill:none}
   ]]>
  </style>
 </defs>
 <g id="Слой_x0020_1">
  <metadata id="CorelCorpID_0Corel-Layer"/>
  <g id="_2331817572880">
   <path class="fil0 str0" d="M48467 16496c-815,-1313 -1623,-2611 -2434,-3898 15250,-2054 30047,-4048 44421,-5983 13974,-1881 27551,-3710 40783,-5489 2910,2591 5904,5253 8979,7989 3168,2818 6432,5723 9792,8715 -819,124 -1639,251 -2429,376 1284,1157 2583,2329 3897,3515 307,-49 628,-100 935,-148 2010,1790 4045,3620 6106,5469 2100,1884 4246,3811 6422,5765 -6392,1117 -12876,2247 -19436,3394 -227,-213 -442,-429 -656,-644 -1850,323 -3715,646 -5565,969 583,606 1184,1213 1786,1819 -5899,1038 -11858,2088 -17911,3154 -6129,1078 -12335,2170 -18618,3277 -294,-362 -572,-724 -869,-1093 -3573,627 -7162,1256 -10797,1890 282,372 545,744 824,1113 -12489,2197 -25286,4451 -38407,6762 -13460,2370 -27320,4810 -41503,7310 -2623,-7170 -5099,-13948 -7436,-20337 -2208,-6038 -4303,-11772 -6290,-17205 8367,-1160 16613,-2307 24737,-3435 8015,-1114 15896,-2205 23669,-3285z"/>
   <path class="fil0 str0" d="M59758 16724c7162,-1009 14228,-2001 21200,-2980 1460,1833 2955,3705 4471,5606 1551,1945 3126,3922 4739,5939 -7324,1126 -14734,2266 -22273,3424 -1413,-2097 -2811,-4160 -4176,-6171 -1344,-1980 -2660,-3917 -3961,-5818z"/>
   <path class="fil0 str0" d="M83051 13447c3343,-469 6686,-937 9989,-1405 1094,1265 2213,2541 3333,3837 -3373,489 -6760,981 -10161,1471 -1062,-1317 -2110,-2617 -3161,-3903zm10315 -1448c3329,-470 6632,-934 9934,-1396 1139,1241 2303,2496 3483,3768 -3345,486 -6705,970 -10078,1460 -1123,-1293 -2243,-2571 -3339,-3832zm13580 2552c2162,2326 4359,4704 6624,7144 -3456,532 -6911,1062 -10395,1595 -2155,-2483 -4259,-4909 -6315,-7275 3390,-492 6738,-977 10086,-1464zm-4113 8792c-3470,535 -6968,1071 -10466,1608 -2056,-2531 -4048,-5001 -5995,-7413 3404,-492 6794,-985 10156,-1475 2053,2368 4153,4792 6305,7280z"/>
   <path class="fil0 str0" d="M105434 10305c2935,-416 5857,-826 8779,-1236 1715,1731 3461,3493 5237,5286 1808,1826 3638,3691 5513,5589 -3041,467 -6096,938 -9166,1408 -1813,-1926 -3585,-3818 -5329,-5679 -1706,-1820 -3390,-3611 -5034,-5368zm9091 -1280c2188,-310 4376,-616 6564,-922 1241,1203 2494,2416 3763,3649 -2225,322 -4437,643 -6663,965 -1246,-1245 -2460,-2474 -3664,-3692zm6877 -965c2066,-294 4145,-583 6211,-876 1278,1191 2554,2389 3862,3607 -2102,303 -4203,611 -6305,916 -1271,-1233 -2525,-2445 -3768,-3647zm10256 2903c2376,2227 4807,4500 7297,6833 -2156,331 -4312,660 -6482,993 -2421,-2357 -4799,-4658 -7125,-6908 2104,-306 4207,-610 6310,-918zm501 7876c-2284,351 -4569,702 -6867,1054 -2361,-2388 -4679,-4719 -6931,-7000 2228,-323 4442,-644 6669,-967 2322,2252 4697,4554 7129,6913z"/>
   <path class="fil0 str0" d="M68928 30228c4482,-696 8920,-1385 13315,-2072 1410,1891 2864,3826 4322,5784 1484,1994 2998,4033 4536,6104 -4604,778 -9253,1564 -13947,2357 -1444,-2123 -2850,-4210 -4228,-6254 -1353,-2007 -2689,-3984 -3998,-5919zm13674 -2125c2930,-455 5832,-907 8719,-1354 1479,1858 2988,3760 4518,5690 1377,1738 2780,3507 4213,5304l-2764 1259c-1932,325 -3871,651 -5811,978 -1541,-2070 -3057,-4104 -4545,-6100 -1459,-1957 -2917,-3887 -4330,-5777z"/>
   <path class="fil0 str0" d="M93533 26406c4912,-764 9782,-1520 14608,-2271 2379,2684 4822,5438 7327,8269 40,46 80,91 116,133 26,32 50,56 73,85 2320,-384 4641,-769 6931,-1148 859,932 1722,1872 2606,2818 -6217,1048 -12499,2107 -18864,3181l-275 -342 -1338 614 -982 166 2119 -966 -1087 -1349 -2803 1276 -3862 -4799c-1547,-1923 -3073,-3817 -4569,-5667zm14952 -2324c2126,-330 4252,-661 6363,-990 2456,2652 4962,5373 7546,8167 -2185,360 -4384,726 -6584,1087 -2509,-2830 -4941,-5582 -7325,-8264z"/>
   <path class="fil0 str0" d="M127840 1582c-1049,142 -2097,283 -3146,424 1272,1182 2573,2375 3873,3581 1067,-146 2134,-294 3201,-444 -1319,-1198 -2625,-2386 -3928,-3561zm-3438 464c-2680,360 -5375,722 -8069,1086 1237,1199 2488,2411 3752,3637 2728,-383 5470,-761 8185,-1141 -1298,-1206 -2597,-2399 -3868,-3582zm-8374 1127c-2482,332 -4964,666 -7445,1002 1191,1217 2410,2444 3627,3685 2526,-350 5052,-702 7564,-1049 -1262,-1226 -2511,-2439 -3746,-3638zm-7751 1041c-4140,560 -8321,1123 -12541,1691 1129,1244 2272,2499 3427,3771 4295,-595 8536,-1188 12750,-1774 -1229,-1242 -2433,-2470 -3636,-3688zm-12847 1733c-6343,852 -12754,1717 -19243,2590 1028,1288 2056,2587 3107,3901 6592,-918 13115,-1826 19558,-2717 -1153,-1273 -2294,-2529 -3422,-3774zm-19562 2634c-5534,745 -11122,1498 -16789,2261 916,1326 1855,2664 2791,4017 5781,-801 11468,-1592 17087,-2375 -1037,-1314 -2076,-2614 -3089,-3903zm-17134 2306c-4194,566 -8427,1136 -12701,1711 852,1356 1702,2723 2574,4109 4349,-608 8658,-1206 12926,-1800 -948,-1354 -1872,-2692 -2799,-4020z"/>
   <path class="fil0 str0" d="M16951 29328c2506,-372 5011,-738 7489,-1101 1369,2907 2789,5898 4233,8970 -2578,402 -5169,806 -7776,1212 -1342,-3111 -2662,-6137 -3946,-9081z"/>
   <path class="fil0 str0" d="M30357 27358c3179,-467 6335,-931 9467,-1388 1568,2831 3164,5743 4817,8734 -3528,551 -7070,1103 -10655,1664l-1493 -2994 -2136 -6016z"/>
   <path class="fil0 str0" d="M45441 36210c-3431,539 -6892,1084 -10353,1633 1699,3406 3449,6920 5252,10541 3623,-609 7216,-1214 10795,-1817 -1954,-3559 -3851,-7009 -5694,-10357zm-10361 2486c-1815,287 -3659,577 -5489,870 -123,-265 -245,-531 -382,-801 -2563,404 -5140,810 -7718,1215 1515,3487 3077,7085 4687,10792 4615,-777 9201,-1551 13756,-2318 -1662,-3344 -3279,-6597 -4854,-9758z"/>
   <path class="fil0 str0" d="M35539 18292c-4912,681 -9878,1370 -14898,2069 1000,2105 2021,4259 3063,6462 5165,-753 10273,-1494 15327,-2228 -1187,-2148 -2351,-4249 -3492,-6303zm-15262 2116c-6667,924 -13401,1861 -20216,2808 1021,2790 2068,5654 3145,8599 3779,-555 7544,-1113 11295,-1667 -261,-627 -520,-1250 -793,-1872 3226,-469 6424,-933 9622,-1397 -1038,-2204 -2056,-4360 -3053,-6471zm-16989 11632c1019,2790 2064,5646 3136,8582 3916,-616 7832,-1225 11719,-1835 -1209,-2876 -2387,-5678 -3551,-8418 -3740,556 -7522,1111 -11304,1671zm3225 8824c920,2518 1862,5090 2826,7729 4040,-666 8080,-1326 12105,-1986 -1087,-2585 -2149,-5108 -3188,-7578 -3905,607 -7824,1222 -11743,1835z"/>
   <path class="fil0 str0" d="M39410 20865c3578,-508 7142,-1012 10679,-1513 1025,1663 2082,3356 3153,5072 -3612,533 -7251,1069 -10918,1606 -981,-1745 -1963,-3471 -2914,-5165zm13955 3765c757,1218 1522,2448 2293,3689 -3668,558 -7364,1116 -11088,1678 -717,-1261 -1429,-2518 -2118,-3756 3657,-542 7299,-1076 10913,-1611z"/>
   <path class="fil0 str0" d="M58065 17968c-2592,365 -5171,729 -7776,1100 931,1477 1861,2978 2819,4501 2655,-388 5282,-773 7922,-1159 -1008,-1506 -1986,-2985 -2965,-4442zm-4834 5804c972,1550 1947,3124 2949,4724 2707,-411 5386,-820 8080,-1228 -1053,-1574 -2078,-3129 -3101,-4657 -2629,386 -5272,772 -7928,1161z"/>
   <path class="fil0 str0" d="M58227 31784c2771,-431 5542,-862 8299,-1286 948,1430 1908,2883 2879,4351 -1577,253 -3183,512 -4790,768 1103,1738 2236,3504 3372,5295 -1236,207 -2472,411 -3709,617 -2078,-3345 -4101,-6591 -6051,-9745zm9923 9368c485,765 975,1533 1464,2302 -1247,211 -2510,421 -3758,632 -479,-773 -958,-1546 -1433,-2316 1238,-202 2490,-411 3727,-618z"/>
   <path class="fil0 str0" d="M58008 32099c-3737,582 -7488,1164 -11253,1753 824,1460 1661,2944 2508,4447 3829,-613 7658,-1227 11443,-1837 -912,-1475 -1810,-2926 -2698,-4363z"/>
   <path class="fil0 str0" d="M61438 37638c-3816,617 -7647,1235 -11508,1859 1227,2175 2461,4389 3733,6645 3954,-666 7893,-1330 11802,-1989 -1366,-2210 -2708,-4382 -4027,-6515z"/>
   <path class="fil0 str0" d="M23428 59058c-3219,565 -6422,1132 -9641,1700 -911,-2489 -1805,-4936 -2682,-7333 3128,-533 6256,-1060 9384,-1586 952,2363 1936,4770 2939,7219z"/>
   <path class="fil0 str0" d="M54689 53553c-4928,870 -9917,1747 -14953,2634 -493,87 -1001,175 -1478,260 -4774,840 -9579,1684 -14415,2536 -739,-1822 -1482,-3628 -2200,-5404 4735,-808 9441,-1609 14116,-2406 469,-81 969,-165 1453,-248 4932,-842 9834,-1675 14676,-2501 926,1686 1850,3400 2801,5129z"/>
   <path class="fil0 str0" d="M69643 50921c-4805,847 -9641,1699 -14538,2559 -954,-1728 -1880,-3441 -2808,-5126 4796,-821 9531,-1631 14252,-2435 1028,1647 2054,3313 3094,5002z"/>
   <path class="fil0 str0" d="M9432 48848c1126,-187 2266,-373 3421,-563 528,1391 1062,2800 1602,4224 -1172,198 -2328,391 -3470,586 -524,-1432 -1042,-2848 -1553,-4247z"/>
   <path class="fil0 str0" d="M15934 47778c-889,146 -1763,289 -2666,436 369,930 725,1868 1084,2810 897,-151 1794,-302 2691,-452 -382,-938 -747,-1868 -1109,-2794z"/>
   <path class="fil0 str0" d="M19118 47254c-933,155 -1851,302 -2754,454 363,925 730,1854 1098,2792 927,-152 1854,-307 2796,-466 -377,-933 -767,-1858 -1140,-2780z"/>
   <path class="fil0 str0" d="M86746 42593c-6494,1109 -13063,2232 -19723,3369 995,1611 2002,3242 3020,4888 6776,-1193 13475,-2372 20082,-3535 -1134,-1590 -2272,-3166 -3379,-4722z"/>
   <path class="fil0 str0" d="M129651 6901c2324,-330 4648,-654 6972,-979 1953,1736 3939,3502 5962,5303 -2384,349 -4754,698 -7124,1048 -1976,-1826 -3916,-3616 -5810,-5372zm13132 4500c2291,2039 4632,4120 7019,6243 -1508,235 -3002,466 -4510,698 -891,-813 -1779,-1626 -2659,-2429 -937,144 -1861,282 -2784,424 -1413,-1315 -2820,-2611 -4196,-3886 2372,-351 4744,-700 7130,-1050z"/>
   <path class="fil0 str0" d="M145503 36201c6560,-1147 13044,-2277 19436,-3394 -2176,-1954 -4322,-3881 -6422,-5765 -2061,-1849 -4096,-3679 -6106,-5469 -307,48 -628,99 -935,148 -1314,-1186 -2613,-2358 -3897,-3515 -4471,692 -8984,1394 -13526,2101 980,945 1969,1899 2963,2860 -29,4 -58,9 -73,11 -87,14 -189,29 -261,42 -2999,473 -5998,951 -9010,1431 1850,1891 3732,3814 5647,5773 1951,1995 3938,4028 5963,6102 1850,-323 3715,-646 5565,-969 214,215 429,431 656,644zm-11767 -15843c-2961,458 -5922,920 -8912,1382 878,895 1763,1801 2653,2707 3010,-476 6006,-953 9002,-1428 -924,-892 -1830,-1780 -2743,-2661z"/>
   <path class="fil0 str0" d="M108882 44011c5005,-882 9963,-1754 14876,-2620 -1328,-1493 -2627,-2980 -3925,-4442 -4843,825 -9717,1657 -14636,2497 1213,1502 2443,3030 3685,4565z"/>
   <path class="fil0 str0" d="M126053 40987c4928,-867 9825,-1728 14660,-2581 -2667,-2726 -4802,-4921 -6895,-7067 -2051,-2103 -4068,-4171 -6467,-6638 -2401,383 -4832,769 -7248,1154 1434,1533 2889,3086 4363,4660 1494,1595 3015,3221 4555,4867 -2300,390 -4616,786 -6932,1180 1310,1460 2623,2937 3964,4425z"/>
   <rect class="fil0" x="62" width="164877" height="62628"/>
  </g>
 </g>
</svg>
