<?xml version="1.0" encoding="utf-8"?><svg width="60" height="60" fill="none" xmlns="http://www.w3.org/2000/svg" viewBox="0 0 60 60"><path d="M32.5 47.5v-10H40L30 25 20 37.5h7.5v10h5z" fill="#00C25A"/><path d="M17.5 47.5h5v-5h-5c-4.135 0-7.5-3.365-7.5-7.5 0-3.51 2.998-6.89 6.683-7.538l1.452-.255.48-1.395C20.373 20.686 24.738 17.5 30 17.5c6.892 0 12.5 5.608 12.5 12.5v2.5H45c2.758 0 5 2.242 5 5s-2.242 5-5 5h-7.5v5H45c5.515 0 10-4.485 10-10a10.024 10.024 0 00-7.64-9.72C46.267 19.175 38.9 12.5 30 12.5c-6.89 0-12.875 4.027-15.607 10.375C9.023 24.48 5 29.55 5 35c0 6.892 5.607 12.5 12.5 12.5z" fill="#00C25A"/></svg>