<?xml version="1.0" encoding="utf-8"?><svg width="40" height="40" fill="none" xmlns="http://www.w3.org/2000/svg" viewBox="0 0 40 40"><path d="M27.611 36.665h.047c.88 0 1.711-.347 2.341-.977l4.52-4.52a1.664 1.664 0 000-2.356l-6.666-6.667a1.666 1.666 0 00-2.357 0l-2.657 2.657c-1.231-.367-3.53-1.2-4.986-2.657-1.457-1.457-2.29-3.755-2.657-4.987l2.657-2.656a1.664 1.664 0 000-2.357l-6.667-6.667a1.717 1.717 0 00-2.357 0l-4.518 4.52a3.33 3.33 0 00-.977 2.392c.039 2.373.667 10.617 7.164 17.113 6.496 6.497 14.74 7.124 17.113 7.162zM10.009 9.013l4.31 4.31-2.155 2.155a1.66 1.66 0 00-.451 1.52c.04.192 1.018 4.737 3.785 7.504 2.766 2.766 7.311 3.745 7.503 3.785a1.657 1.657 0 001.52-.452l2.155-2.155 4.31 4.31-3.343 3.342c-2.08-.035-9.197-.594-14.789-6.187-5.61-5.61-6.153-12.752-6.186-14.79l3.341-3.342zm23.324 9.319h3.333c0-8.55-6.455-14.999-15.017-14.999v3.334c6.77 0 11.684 4.905 11.684 11.665z" fill="#00B152"/><path d="M21.664 13.333c3.505 0 5 1.495 5 5h3.333c0-5.375-2.958-8.333-8.333-8.333v3.333z" fill="#00B152"/></svg>