<?xml version="1.0" encoding="utf-8"?><svg width="60" height="60" fill="none" xmlns="http://www.w3.org/2000/svg" viewBox="0 0 60 60"><path d="M60 52.5v-45A7.5 7.5 0 0052.5 0h-45A7.5 7.5 0 000 7.5v45A7.5 7.5 0 007.5 60h45a7.5 7.5 0 007.5-7.5z" fill="#E5E5E5"/><path d="M14.56 38a37.199 37.199 0 00-1.28-2.34c-.453-.8-.98-1.613-1.58-2.44-.187.24-.427.573-.72 1-.28.427-.567.88-.86 1.36-.28.48-.547.94-.8 1.38-.253.44-.44.787-.56 1.04H5.2a49.79 49.79 0 012.04-3.4 119.48 119.48 0 012.62-3.78L5.4 24.14h3.78l2.7 4.32 2.64-4.32h3.56l-4.4 6.72c1.12 1.453 2.06 2.8 2.82 4.04.76 1.227 1.36 2.26 1.8 3.1h-3.74zm14.796-2.68V38h-9.26V24.14h3.12v11.18h6.14zm6.122.3c.44 0 .8-.033 1.08-.1.293-.08.526-.18.7-.3.173-.133.293-.287.36-.46.066-.173.1-.367.1-.58 0-.453-.214-.827-.64-1.12-.427-.307-1.16-.633-2.2-.98-.454-.16-.907-.34-1.36-.54a5.441 5.441 0 01-1.22-.78c-.36-.32-.654-.7-.88-1.14-.227-.453-.34-1-.34-1.64 0-.64.12-1.213.36-1.72.24-.52.58-.96 1.02-1.32.44-.36.973-.633 1.6-.82.626-.2 1.333-.3 2.12-.3.933 0 1.74.1 2.42.3.68.2 1.24.42 1.68.66l-.9 2.46c-.387-.2-.82-.373-1.3-.52-.467-.16-1.034-.24-1.7-.24-.747 0-1.287.107-1.62.32-.32.2-.48.513-.48.94 0 .253.06.467.18.64s.286.333.5.48c.226.133.48.26.76.38.293.107.613.22.96.34.72.267 1.346.533 1.88.8.533.253.973.553 1.32.9.36.347.626.753.8 1.22.173.467.26 1.033.26 1.7 0 1.293-.454 2.3-1.36 3.02-.907.707-2.274 1.06-4.1 1.06-.614 0-1.167-.04-1.66-.12a10.057 10.057 0 01-1.32-.26c-.374-.107-.7-.22-.98-.34a8.01 8.01 0 01-.68-.34l.88-2.48c.413.227.92.433 1.52.62.613.173 1.36.26 2.24.26zM51.298 38a37.25 37.25 0 00-1.28-2.34c-.453-.8-.98-1.613-1.58-2.44-.186.24-.426.573-.72 1-.28.427-.566.88-.86 1.36-.28.48-.546.94-.8 1.38-.253.44-.44.787-.56 1.04h-3.56a49.733 49.733 0 012.04-3.4c.787-1.187 1.66-2.447 2.62-3.78l-4.46-6.68h3.78l2.7 4.32 2.64-4.32h3.56l-4.4 6.72c1.12 1.453 2.06 2.8 2.82 4.04.76 1.227 1.36 2.26 1.8 3.1h-3.74z" fill="#fff"/></svg>