<?xml version="1.0" encoding="utf-8"?><svg width="60" height="60" fill="none" xmlns="http://www.w3.org/2000/svg" viewBox="0 0 60 60"><path d="M60 52.5v-45A7.5 7.5 0 0052.5 0h-45A7.5 7.5 0 000 7.5v45A7.5 7.5 0 007.5 60h45a7.5 7.5 0 007.5-7.5z" fill="#E5E5E5"/><path d="M14.912 22.176c2.48 0 4.384.44 5.712 1.32 1.328.864 1.992 2.288 1.992 4.272 0 2-.672 3.448-2.016 4.344-1.344.88-3.264 1.32-5.76 1.32h-1.176V39H9.92V22.608c.816-.16 1.68-.272 2.592-.336a34.803 34.803 0 012.4-.096zm.24 3.192c-.272 0-.544.008-.816.024-.256.016-.48.032-.672.048v4.8h1.176c1.296 0 2.272-.176 2.928-.528.656-.352.984-1.008.984-1.968 0-.464-.088-.848-.264-1.152-.16-.304-.4-.544-.72-.72-.304-.192-.68-.32-1.128-.384a8.493 8.493 0 00-1.488-.12zm13.957 10.584c.176.016.376.032.6.048h.84c1.872 0 3.256-.472 4.152-1.416.912-.944 1.368-2.248 1.368-3.912 0-1.744-.432-3.064-1.296-3.96-.864-.896-2.232-1.344-4.104-1.344-.256 0-.52.008-.792.024-.272 0-.528.016-.768.048v10.512zm10.824-5.28c0 1.44-.224 2.696-.672 3.768-.448 1.072-1.088 1.96-1.92 2.664-.816.704-1.816 1.232-3 1.584-1.184.352-2.512.528-3.984.528-.672 0-1.456-.032-2.352-.096a18.044 18.044 0 01-2.64-.336v-16.2c.864-.16 1.76-.264 2.688-.312a36.628 36.628 0 012.424-.096c1.424 0 2.712.16 3.864.48 1.168.32 2.168.824 3 1.512.832.688 1.472 1.568 1.92 2.64.448 1.072.672 2.36.672 3.864zM43.061 39V22.368h11.136v3.144h-7.392v3.48h6.576v3.144h-6.576V39H43.06z" fill="#fff"/></svg>