<?xml version="1.0" encoding="utf-8"?><svg width="40" height="40" fill="none" xmlns="http://www.w3.org/2000/svg" viewBox="0 0 40 40"><path d="M9.999 31.667c0 1.833 1.5 3.333 3.333 3.333h13.333C28.5 35 30 33.5 30 31.667V15c0-1.833-1.5-3.333-3.334-3.333H13.332A3.343 3.343 0 009.999 15v16.667zm5.283-13.05a1.662 1.662 0 012.35 0l2.367 2.366 2.366-2.366a1.662 1.662 0 012.35 2.35l-2.366 2.366 2.366 2.367a1.662 1.662 0 01-2.35 2.35L20 25.683l-2.367 2.367a1.662 1.662 0 01-2.35-2.35l2.367-2.367-2.367-2.366a1.66 1.66 0 010-2.35zm10.55-11.95l-1.183-1.184c-.3-.3-.734-.483-1.167-.483h-6.967c-.433 0-.866.183-1.166.483l-1.184 1.184H10c-.917 0-1.667.75-1.667 1.666 0 .917.75 1.667 1.667 1.667h20c.916 0 1.666-.75 1.666-1.667 0-.916-.75-1.666-1.666-1.666h-4.167z" fill="#EB5757"/></svg>