<?xml version="1.0" encoding="utf-8"?><svg width="40" height="40" fill="none" xmlns="http://www.w3.org/2000/svg" viewBox="0 0 40 40"><path d="M20 16a6 6 0 100 12 6 6 0 000-12zm16-6h-4.8c-.66 0-1.371-.512-1.58-1.138l-1.24-3.724C28.17 4.512 27.46 4 26.8 4H13.2c-.66 0-1.371.512-1.58 1.138l-1.24 3.724C10.17 9.488 9.46 10 8.8 10H4c-2.2 0-4 1.8-4 4v18c0 2.2 1.8 4 4 4h32c2.2 0 4-1.8 4-4V14c0-2.2-1.8-4-4-4zM20 32c-5.523 0-10-4.477-10-10 0-5.522 4.477-10 10-10 5.522 0 10 4.478 10 10 0 5.523-4.478 10-10 10zm14.6-15.203a1.4 1.4 0 110-2.8 1.4 1.4 0 010 2.8z" fill="#00B152"/><path stroke="#fff" stroke-width="2" d="M20 18v8M16 22h8"/></svg>