<?xml version="1.0" encoding="utf-8"?><svg width="60" height="60" fill="none" xmlns="http://www.w3.org/2000/svg" viewBox="0 0 60 60"><path d="M60 52.5v-45A7.5 7.5 0 0052.5 0h-45A7.5 7.5 0 000 7.5v45A7.5 7.5 0 007.5 60h45a7.5 7.5 0 007.5-7.5z" fill="#E5E5E5"/><path d="M13.22 31.06c0 .68.08 1.293.24 1.84a4.59 4.59 0 00.72 1.42c.32.387.707.687 1.16.9.453.213.973.32 1.56.32.573 0 1.087-.107 1.54-.32a3.1 3.1 0 001.16-.9c.32-.4.56-.873.72-1.42.173-.547.26-1.16.26-1.84 0-.68-.087-1.293-.26-1.84-.16-.56-.4-1.033-.72-1.42a3.02 3.02 0 00-1.16-.92c-.453-.213-.967-.32-1.54-.32-.587 0-1.107.113-1.56.34-.453.213-.84.52-1.16.92-.307.387-.547.86-.72 1.42a6.467 6.467 0 00-.24 1.82zm10.58 0c0 1.187-.18 2.233-.54 3.14-.347.893-.827 1.647-1.44 2.26a6.005 6.005 0 01-2.2 1.36c-.84.307-1.747.46-2.72.46-.947 0-1.84-.153-2.68-.46a6.233 6.233 0 01-2.2-1.36c-.627-.613-1.12-1.367-1.48-2.26-.36-.907-.54-1.953-.54-3.14s.187-2.227.56-3.12c.373-.907.873-1.667 1.5-2.28a6.33 6.33 0 012.2-1.38c.84-.307 1.72-.46 2.64-.46.947 0 1.84.153 2.68.46.84.307 1.573.767 2.2 1.38.627.613 1.12 1.373 1.48 2.28.36.893.54 1.933.54 3.12zm5.72 4.4c.147.013.314.027.5.04h.7c1.56 0 2.714-.393 3.46-1.18.76-.787 1.14-1.873 1.14-3.26 0-1.453-.36-2.553-1.08-3.3-.72-.747-1.86-1.12-3.42-1.12-.213 0-.433.007-.66.02-.226 0-.44.013-.64.04v8.76zm9.02-4.4c0 1.2-.186 2.247-.56 3.14-.373.893-.906 1.633-1.6 2.22-.68.587-1.513 1.027-2.5 1.32-.986.293-2.093.44-3.32.44-.56 0-1.213-.027-1.96-.08-.746-.04-1.48-.133-2.2-.28v-13.5c.72-.133 1.467-.22 2.24-.26.787-.053 1.46-.08 2.02-.08 1.187 0 2.26.133 3.22.4.974.267 1.807.687 2.5 1.26.694.573 1.227 1.307 1.6 2.2.374.893.56 1.967.56 3.22zm6.387 4.56c.44 0 .8-.033 1.08-.1.293-.08.526-.18.7-.3.173-.133.293-.287.36-.46.066-.173.1-.367.1-.58 0-.453-.214-.827-.64-1.12-.427-.307-1.16-.633-2.2-.98-.453-.16-.907-.34-1.36-.54a5.441 5.441 0 01-1.22-.78c-.36-.32-.654-.7-.88-1.14-.227-.453-.34-1-.34-1.64 0-.64.12-1.213.36-1.72.24-.52.58-.96 1.02-1.32.44-.36.973-.633 1.6-.82.627-.2 1.333-.3 2.12-.3.933 0 1.74.1 2.42.3.68.2 1.24.42 1.68.66l-.9 2.46c-.387-.2-.82-.373-1.3-.52-.467-.16-1.034-.24-1.7-.24-.747 0-1.287.107-1.62.32-.32.2-.48.513-.48.94 0 .253.06.467.18.64s.287.333.5.48c.227.133.48.26.76.38.293.107.613.22.96.34.72.267 1.346.533 1.88.8.533.253.973.553 1.32.9.36.347.627.753.8 1.22.173.467.26 1.033.26 1.7 0 1.293-.453 2.3-1.36 3.02-.907.707-2.273 1.06-4.1 1.06-.614 0-1.167-.04-1.66-.12a10.057 10.057 0 01-1.32-.26c-.373-.107-.7-.22-.98-.34a8.01 8.01 0 01-.68-.34l.88-2.48c.413.227.92.433 1.52.62.613.173 1.36.26 2.24.26z" fill="#fff"/></svg>