<?xml version="1.0" encoding="utf-8"?><svg width="32" height="32" fill="none" xmlns="http://www.w3.org/2000/svg" viewBox="0 0 32 32"><circle cx="16" cy="16" r="16" fill="#fff"/><path d="M15.519 19.678c-1.396-.145-2.654-.489-3.731-1.331-.134-.105-.272-.206-.394-.323-.471-.453-.519-.972-.146-1.506.32-.457.855-.58 1.412-.317.108.05.21.114.31.183 2.007 1.379 4.765 1.417 6.78.062.2-.154.413-.278.66-.342.481-.123.93.053 1.188.474.294.48.29.95-.073 1.323-.557.572-1.227.985-1.972 1.274-.704.273-1.475.41-2.238.502.115.125.169.187.241.26 1.037 1.04 2.078 2.078 3.11 3.122.353.356.426.797.232 1.211-.212.453-.686.75-1.151.719-.295-.02-.524-.167-.729-.373-.782-.787-1.579-1.56-2.345-2.362-.223-.233-.33-.189-.527.014-.787.81-1.587 1.607-2.391 2.4-.361.357-.791.42-1.21.217-.445-.216-.729-.67-.707-1.127.015-.309.167-.545.38-.756 1.025-1.025 2.048-2.052 3.071-3.078.068-.068.131-.14.23-.245z" fill="#00C25A"/><path d="M16.369 16.111c-2.49-.009-4.53-2.072-4.516-4.566A4.563 4.563 0 0116.423 7c2.52.007 4.541 2.068 4.529 4.615-.013 2.488-2.069 4.505-4.583 4.496zm2.262-4.56a2.219 2.219 0 00-2.226-2.224 2.222 2.222 0 00-2.23 2.251 2.219 2.219 0 002.242 2.208 2.214 2.214 0 002.214-2.235z" fill="#00C25A"/></svg>