<?xml version="1.0" encoding="utf-8"?><svg width="32" height="32" fill="none" xmlns="http://www.w3.org/2000/svg" viewBox="0 0 32 32"><rect width="32" height="32" rx="16" fill="#00B152"/><path d="M19.584 8h-7.169A4.42 4.42 0 008 12.415v7.17A4.42 4.42 0 0012.415 24h7.17A4.42 4.42 0 0024 19.585v-7.17A4.42 4.42 0 0019.584 8zm2.997 11.585a3 3 0 01-2.996 2.995h-7.17a3 3 0 01-2.995-2.995v-7.17a3 3 0 012.995-2.995h7.17a3 3 0 012.995 2.995v7.17z" fill="#fff"/><path d="M16 12c-2.206 0-4 1.794-4 4s1.794 4 4 4 4-1.794 4-4-1.794-4-4-4zm0 6.623A2.626 2.626 0 0113.377 16 2.626 2.626 0 0116 13.377 2.626 2.626 0 0118.623 16 2.626 2.626 0 0116 18.623z" fill="#fff"/><path d="M20 10.667A1.339 1.339 0 0018.665 12c0 .35.143.695.392.943.247.247.591.39.941.39.352 0 .695-.143.943-.39a1.339 1.339 0 000-1.886 1.34 1.34 0 00-.943-.39z" fill="#fff"/></svg>