<?xml version="1.0" encoding="utf-8"?><svg width="47" height="47" xmlns="http://www.w3.org/2000/svg" viewBox="0 0 47 47"><path d="M39.933 0H7.066c-.88 0-1.593.713-1.593 1.593v34.05c0 .423.168.828.466 1.127l9.767 9.763c.299.3.704.467 1.126.467h23.101c.88 0 1.593-.714 1.593-1.593V1.593c0-.88-.713-1.593-1.593-1.593zm-29.02 37.236h4.326v4.325l-4.326-4.325zm27.427 6.578H18.425v-8.171c0-.88-.713-1.593-1.593-1.593H8.66V3.186H38.34v40.628z"/><path d="M12.542 11.4h13.695a1.593 1.593 0 000-3.185H12.542a1.593 1.593 0 100 3.186zM31.718 11.4h2.74a1.593 1.593 0 100-3.185h-2.74a1.593 1.593 0 100 3.186zM12.542 19.616h13.695a1.593 1.593 0 000-3.186H12.542a1.593 1.593 0 100 3.186zM31.718 19.616h2.74a1.593 1.593 0 000-3.186h-2.74a1.593 1.593 0 100 3.186zM12.542 27.83h13.695a1.593 1.593 0 000-3.185H12.542a1.593 1.593 0 000 3.186zM31.718 27.83h2.74a1.593 1.593 0 100-3.185h-2.74a1.593 1.593 0 000 3.186zM28.976 36.045h5.478a1.593 1.593 0 100-3.186h-5.478a1.593 1.593 0 100 3.186z"/></svg>