<?xml version="1.0" encoding="utf-8"?><svg width="29" height="29" fill="none" xmlns="http://www.w3.org/2000/svg" viewBox="0 0 29 29"><path fill="#2E2E2E" d="M0 0h29v29H0z"/><g clip-path="url(#aiclip0)"><path d="M17 22a2 2 0 103.998.09A2 2 0 0017 22zM7 22a2 2 0 104 0 2 2 0 00-4 0zm3.547-4.828l11.068-3.162A.564.564 0 0022 13.5V8H8V6.4c0-.22-.181-.4-.399-.4H4.399A.401.401 0 004 6.4V8h2l1.91 8.957.09.943v1.649c0 .219.18.4.4.4h13.2c.22 0 .4-.182.4-.4V18H10.752c-1.15 0-1.174-.551-.205-.828z" fill="#fff"/></g><defs><clipPath id="aiclip0"><path fill="#fff" transform="translate(4 5)" d="M0 0h20v20H0z"/></clipPath></defs></svg>