<?xml version="1.0" encoding="utf-8"?><svg width="50" height="50" fill="none" xmlns="http://www.w3.org/2000/svg" viewBox="0 0 50 50"><path d="M22.917 12.5H18.75v6.25H12.5v4.167h6.25v6.25h4.167v-6.25h6.25V18.75h-6.25V12.5z" fill="#E5E5E5"/><path d="M20.834 4.167c-9.19 0-16.667 7.477-16.667 16.666 0 9.19 7.477 16.667 16.667 16.667 3.698 0 7.289-1.239 10.202-3.517l9.158 9.159 2.946-2.946-9.158-9.158A16.567 16.567 0 0037.5 20.833c0-9.19-7.477-16.666-16.666-16.666zm0 29.166c-6.894 0-12.5-5.606-12.5-12.5 0-6.893 5.606-12.5 12.5-12.5 6.893 0 12.5 5.607 12.5 12.5 0 6.894-5.607 12.5-12.5 12.5z" fill="#E5E5E5"/></svg>