<?xml version="1.0" encoding="utf-8"?><svg width="40" height="40" fill="none" xmlns="http://www.w3.org/2000/svg" viewBox="0 0 40 40"><path d="M20 3.333C10.81 3.333 3.335 10.81 3.335 20c0 9.19 7.477 16.667 16.667 16.667 9.19 0 16.666-7.477 16.666-16.667 0-9.19-7.476-16.667-16.666-16.667zm0 30C12.65 33.333 6.668 27.352 6.668 20S12.65 6.667 20.001 6.667c7.351 0 13.333 5.981 13.333 13.333s-5.982 13.333-13.333 13.333z" fill="#00C25A"/><path d="M21.667 11.667h-3.333v9.023l5.488 5.488 2.357-2.356-4.512-4.512v-7.643z" fill="#00C25A"/></svg>