<?xml version="1.0" encoding="utf-8"?><svg width="22" height="22" fill="none" xmlns="http://www.w3.org/2000/svg" viewBox="0 0 22 22"><g clip-path="url(#bsclip0)"><path fill-rule="evenodd" clip-rule="evenodd" d="M11.256 1.53a.687.687 0 00-.512 0L2.538 4.812 11 8.196l8.462-3.384-8.206-3.282zm9.369 4.299l-8.938 3.575v10.892l8.938-3.575V5.83zM10.312 20.298V9.402L1.376 5.83v10.894l8.938 3.575zM10.235.253a2.063 2.063 0 011.532 0l9.802 3.921a.688.688 0 01.432.638v11.91A1.376 1.376 0 0121.135 18l-9.88 3.951a.687.687 0 01-.51 0L.865 18A1.375 1.375 0 010 16.723V4.813a.687.687 0 01.432-.639L10.234.253z" fill="#2E2E2E"/></g><defs><clipPath id="bsclip0"><path fill="#fff" d="M0 0h22v22H0z"/></clipPath></defs></svg>