<?xml version="1.0" encoding="utf-8"?><svg width="40" height="40" fill="none" xmlns="http://www.w3.org/2000/svg" viewBox="0 0 40 40"><path d="M20 23.333a6.673 6.673 0 006.667-6.666A6.673 6.673 0 0020.001 10a6.673 6.673 0 00-6.667 6.667 6.673 6.673 0 006.667 6.666zm0-10a3.337 3.337 0 013.334 3.334A3.337 3.337 0 0120.001 20a3.337 3.337 0 01-3.334-3.333 3.337 3.337 0 013.334-3.334z" fill="#00B152"/><path d="M19.033 36.357a1.663 1.663 0 001.933 0c.507-.359 12.415-8.957 12.367-19.69C33.333 9.315 27.35 3.333 20 3.333c-7.352 0-13.334 5.982-13.334 13.325-.048 10.742 11.86 19.34 12.367 19.699zm.966-29.69c5.516 0 10 4.485 10 10.008.036 7.397-7.313 14.038-10 16.217-2.684-2.18-10.034-8.824-10-16.225 0-5.515 4.486-10 10-10z" fill="#00B152"/></svg>