<?xml version="1.0" encoding="utf-8"?><svg width="40" height="40" xmlns="http://www.w3.org/2000/svg" viewBox="0 0 40 40"><path d="M39.056 9.996l-10.124-8.01a2.493 2.493 0 00-2.63-.289 2.492 2.492 0 00-1.406 2.242V6.91h-8.452a2.49 2.49 0 00-2.292 1.519h-6.65L6.87 5.309.564 4.257 0 7.64l3.977.662 4.22 20.357-1.853 5.89h2.562c-.145.35-.227.737-.227 1.142 0 1.579 1.203 2.859 2.687 2.859 1.484 0 2.686-1.28 2.686-2.858 0-.406-.082-.793-.225-1.142h14.166c-.144.35-.225.736-.225 1.142 0 1.578 1.202 2.858 2.686 2.858 1.482 0 2.685-1.28 2.685-2.858 0-.406-.081-.793-.225-1.142h2.271v-3.427h-24.17l.348-1.1 24.01-10.048v-3.158l3.683-2.914a2.49 2.49 0 000-3.906zm-11.637 9.912v-5.462H16.477V9.35H27.42V3.888l10.123 8.01-10.123 8.01z"/></svg>