<?xml version="1.0" encoding="utf-8"?><svg width="19" height="20" xmlns="http://www.w3.org/2000/svg" viewBox="0 0 19 20"><path d="M13.394 17.264a2.03 2.03 0 001.248 1.92 2.045 2.045 0 002.248-.451 2.034 2.034 0 00.582-1.468 2.032 2.032 0 00-.613-1.409 2.041 2.041 0 00-3.465 1.408zm-10.195 0c0 .54.215 1.057.597 1.439a2.042 2.042 0 003.481-1.439c0-.54-.215-1.057-.597-1.438a2.042 2.042 0 00-3.481 1.438zm3.616-4.91L18.1 9.138a.575.575 0 00.392-.518V3.026H4.218V1.4a.409.409 0 00-.406-.407H.547A.41.41 0 00.14 1.4v1.627h2.04l1.947 9.11.091.959v1.676a.41.41 0 00.408.407h13.458a.41.41 0 00.408-.407v-1.575H7.024c-1.172 0-1.197-.56-.209-.842z"/></svg>