<?xml version="1.0" encoding="utf-8"?><svg width="26" height="22" xmlns="http://www.w3.org/2000/svg" viewBox="0 0 26 22"><path d="M0 10.108s4.95-7.135 13-7.135c1.12 0 2.175.143 3.165.383l-7.467 7.513a4.73 4.73 0 01-.425-1.95c0-1.114.396-2.125 1.034-2.937-2.827.968-4.982 2.838-6.21 4.126a17.735 17.735 0 003.521 2.852l-1.713 1.726C1.77 12.642 0 10.108 0 10.108zm26 0s-4.95 7.135-13 7.135c-1.118 0-2.17-.147-3.163-.384L4.727 22l-1.772-1.784L23.045 0l1.773 1.784L21.1 5.526C24.227 7.576 26 10.108 26 10.108zm-3.09.007a17.546 17.546 0 00-3.53-2.857l-1.653 1.66c0 2.629-2.115 4.758-4.727 4.758l-1.12 1.126c.367.036.738.063 1.12.063 4.701 0 8.205-2.947 9.91-4.75z"/></svg>