<?xml version="1.0" encoding="utf-8"?><svg width="22" height="22" fill="none" xmlns="http://www.w3.org/2000/svg" viewBox="0 0 22 22"><path d="M2.75 2.063v17.875h7.563v-2.75h1.374v2.75h7.563V2.063H2.75zm1.375 1.374h13.75v15.126h-4.813v-2.75H8.939v2.75H4.125V3.438zM5.5 4.813v1.375h2.75V4.813H5.5zm4.125 0v1.375h2.75V4.813h-2.75zm4.125 0v1.375h2.75V4.813h-2.75zM5.5 7.563v1.375h2.75V7.562H5.5zm4.125 0v1.375h2.75V7.562h-2.75zm4.125 0v1.375h2.75V7.562h-2.75zm-8.25 2.75v1.374h2.75v-1.374H5.5zm4.125 0v1.374h2.75v-1.374h-2.75zm4.125 0v1.374h2.75v-1.374h-2.75zm-8.25 2.75v1.374h2.75v-1.374H5.5zm4.125 0v1.374h2.75v-1.374h-2.75zm4.125 0v1.374h2.75v-1.374h-2.75zm-8.25 2.75v1.374h2.75v-1.375H5.5zm8.25 0v1.374h2.75v-1.375h-2.75z" fill="#2E2E2E"/></svg>