<?xml version="1.0" encoding="utf-8"?><svg width="60" height="60" fill="none" xmlns="http://www.w3.org/2000/svg" viewBox="0 0 60 60"><path d="M60 52.5v-45A7.5 7.5 0 0052.5 0h-45A7.5 7.5 0 000 7.5v45A7.5 7.5 0 007.5 60h45a7.5 7.5 0 007.5-7.5z" fill="#E5E5E5"/><path d="M19.472 39a44.616 44.616 0 00-1.536-2.808 31.122 31.122 0 00-1.896-2.928c-.224.288-.512.688-.864 1.2-.336.512-.68 1.056-1.032 1.632-.336.576-.656 1.128-.96 1.656-.304.528-.528.944-.672 1.248H8.24a59.735 59.735 0 012.448-4.08 143.461 143.461 0 013.144-4.536L8.48 22.368h4.536l3.24 5.184 3.168-5.184h4.272l-5.28 8.064c1.344 1.744 2.472 3.36 3.384 4.848.912 1.472 1.632 2.712 2.16 3.72h-4.488zm17.755-3.216V39H26.115V22.368h3.744v13.416h7.368zm7.346.36c.528 0 .96-.04 1.296-.12.352-.096.632-.216.84-.36.208-.16.352-.344.432-.552.08-.208.12-.44.12-.696 0-.544-.256-.992-.768-1.344-.512-.368-1.392-.76-2.64-1.176a23.045 23.045 0 01-1.632-.648 6.534 6.534 0 01-1.464-.936 4.678 4.678 0 01-1.056-1.368c-.272-.544-.408-1.2-.408-1.968s.144-1.456.432-2.064a4.404 4.404 0 011.224-1.584c.528-.432 1.168-.76 1.92-.984.752-.24 1.6-.36 2.544-.36 1.12 0 2.088.12 2.904.36.816.24 1.488.504 2.016.792l-1.08 2.952a9.322 9.322 0 00-1.56-.624c-.56-.192-1.24-.288-2.04-.288-.896 0-1.544.128-1.944.384-.384.24-.576.616-.576 1.128 0 .304.072.56.216.768.144.208.344.4.6.576.272.16.576.312.912.456.352.128.736.264 1.152.408.864.32 1.616.64 2.256.96.64.304 1.168.664 1.584 1.08.432.416.752.904.96 1.464.208.56.312 1.24.312 2.04 0 1.552-.544 2.76-1.632 3.624-1.088.848-2.728 1.272-4.92 1.272-.736 0-1.4-.048-1.992-.144-.592-.08-1.12-.184-1.584-.312a9.939 9.939 0 01-1.176-.408 9.642 9.642 0 01-.816-.408l1.056-2.976c.496.272 1.104.52 1.824.744.736.208 1.632.312 2.688.312z" fill="#fff"/></svg>