<?xml version="1.0" encoding="utf-8"?><svg width="22" height="22" fill="none" xmlns="http://www.w3.org/2000/svg" viewBox="0 0 22 22"><path d="M18.828 15.08H6.034l.642-1.309 10.673-.019c.361 0 .67-.258.735-.614l1.478-8.274a.746.746 0 00-.732-.879L5.252 3.94l-.116-.545a.763.763 0 00-.744-.602h-3.32a.758.758 0 100 1.517h2.706l.507 2.41 1.248 6.044-1.607 2.623a.751.751 0 00-.064.79.756.756 0 00.676.418h1.35a2.206 2.206 0 001.762 3.53 2.206 2.206 0 001.76-3.53h3.462a2.206 2.206 0 001.762 3.53 2.206 2.206 0 001.761-3.53h2.435a.76.76 0 00.758-.759.761.761 0 00-.76-.756zM5.568 5.436l12.37.04-1.212 6.785-9.717.017-1.442-6.842zm2.081 13.163a.68.68 0 01-.679-.679.68.68 0 01.68-.679.68.68 0 01.48 1.16.679.679 0 01-.48.198zm6.985 0a.68.68 0 01-.68-.679.68.68 0 01.68-.679.68.68 0 01.48 1.16.679.679 0 01-.48.198z" fill="#2E2E2E"/></svg>