<?xml version="1.0" encoding="utf-8"?><svg width="30" height="30" fill="none" xmlns="http://www.w3.org/2000/svg" viewBox="0 0 30 30"><path d="M3.75 6.563a.937.937 0 100 1.875h2.081l2.46 9.843a1.86 1.86 0 001.816 1.407h11.69c.847 0 1.566-.563 1.789-1.379l2.43-8.934h-1.963l-2.256 8.438h-11.69l-2.46-9.844a1.86 1.86 0 00-1.816-1.406H3.75zm16.875 13.125a2.827 2.827 0 00-2.813 2.812 2.827 2.827 0 002.813 2.813 2.827 2.827 0 002.813-2.813 2.827 2.827 0 00-2.813-2.813zm-8.438 0A2.827 2.827 0 009.376 22.5a2.827 2.827 0 002.813 2.813A2.827 2.827 0 0015 22.5a2.827 2.827 0 00-2.813-2.813zM15 6.563v4.687h-2.813l3.75 3.75 3.75-3.75h-2.812V6.563H15zm-2.813 15c.53 0 .938.408.938.937a.924.924 0 01-.938.938.924.924 0 01-.937-.938c0-.529.409-.938.938-.938zm8.438 0c.529 0 .938.408.938.937a.924.924 0 01-.938.938.924.924 0 01-.938-.938c0-.529.41-.938.938-.938z" fill="#fff"/></svg>