<?xml version="1.0" encoding="utf-8"?><svg width="32" height="32" fill="none" xmlns="http://www.w3.org/2000/svg" viewBox="0 0 32 32"><rect width="32" height="32" rx="16" fill="#fff"/><path fill="#fff" d="M5.334 5.333h21.333v21.333H5.334z"/><path d="M19.585 8h-7.17A4.42 4.42 0 008 12.416v7.169A4.42 4.42 0 0012.416 24h7.169A4.42 4.42 0 0024 19.585v-7.17A4.42 4.42 0 0019.585 8zm2.996 11.585a3 3 0 01-2.996 2.996h-7.17a2.999 2.999 0 01-2.995-2.996v-7.17a3 3 0 012.996-2.995h7.169a3 3 0 012.996 2.996v7.169z" fill="#00B152"/><path d="M16 12c-2.205 0-4 1.795-4 4 0 2.206 1.795 4 4 4 2.206 0 4-1.794 4-4 0-2.205-1.794-4-4-4zm0 6.623A2.626 2.626 0 0113.378 16 2.626 2.626 0 0116 13.377 2.626 2.626 0 0118.623 16 2.626 2.626 0 0116 18.623z" fill="#00B152"/><path d="M20 10.667A1.338 1.338 0 0018.667 12c0 .35.143.695.392.943.247.248.591.39.941.39.352 0 .695-.142.944-.39.248-.248.39-.592.39-.943s-.142-.695-.39-.943a1.34 1.34 0 00-.944-.39z" fill="#00B152"/></svg>