<?xml version="1.0" encoding="utf-8"?><svg width="22" height="22" fill="none" xmlns="http://www.w3.org/2000/svg" viewBox="0 0 22 22"><path d="M16.846 22c-.294 0-.58-.088-.824-.253l-4.952-3.323a.146.146 0 00-.166 0L5.95 21.747a1.473 1.473 0 01-2.244-1.601l1.627-5.743a.153.153 0 00-.053-.159L.593 10.555a1.475 1.475 0 01.857-2.658l5.975-.226a.153.153 0 00.133-.1L9.616 1.97a1.475 1.475 0 012.229-.703c.247.173.435.419.54.703l2.057 5.602a.153.153 0 00.133.1l5.975.226a1.473 1.473 0 011.38 1.924c-.094.294-.277.55-.523.734l-4.688 3.689a.146.146 0 00-.053.16l1.627 5.742A1.484 1.484 0 0116.846 22zm-5.856-4.931c.294.009.579.106.817.279l4.952 3.323a.146.146 0 00.229-.074.147.147 0 00-.003-.092l-1.627-5.743a1.47 1.47 0 01.512-1.561l4.687-3.689a.146.146 0 00.055-.165.147.147 0 00-.141-.1l-5.976-.227a1.473 1.473 0 01-1.327-.97L11.11 2.447a.146.146 0 00-.28 0L8.794 8.043a1.475 1.475 0 01-1.328.97L1.49 9.24a.146.146 0 00-.087.265l4.694 3.696a1.475 1.475 0 01.511 1.561l-1.62 5.743a.14.14 0 00.053.16.133.133 0 00.173 0l4.953-3.324c.242-.16.526-.246.816-.246l.007-.026z" fill="#2E2E2E"/></svg>