<?xml version="1.0" encoding="utf-8"?><svg width="22" height="22" fill="none" xmlns="http://www.w3.org/2000/svg" viewBox="0 0 22 22"><path d="M11 1.375a9.625 9.625 0 100 19.25 9.625 9.625 0 000-19.25zM6.875 18.136v-1.375a2.213 2.213 0 012.063-2.323h4.124a2.214 2.214 0 012.063 2.33v1.375a8.195 8.195 0 01-8.25 0v-.007zm9.625-1.003v-.42a3.581 3.581 0 00-3.438-3.65H8.939a3.575 3.575 0 00-3.438 3.65v.406a8.25 8.25 0 1111 0v.014z" fill="#2E2E2E"/><path d="M11 4.813a3.437 3.437 0 100 6.874 3.437 3.437 0 000-6.874zm0 5.5a2.063 2.063 0 110-4.126 2.063 2.063 0 010 4.125z" fill="#2E2E2E"/></svg>