<?xml version="1.0" encoding="utf-8"?><svg width="30" height="30" fill="none" xmlns="http://www.w3.org/2000/svg" viewBox="0 0 30 30"><path d="M26.992 12.043a1.25 1.25 0 00-1.075-.838l-7.113-1.037-3.187-6.463a1.25 1.25 0 00-2.25 0l-3.188 6.45-7.112 1.05a1.25 1.25 0 00-1.012.85 1.25 1.25 0 00.312 1.25l5.163 5-1.25 7.1a1.25 1.25 0 001.837 1.35l6.375-3.337 6.375 3.337c.175.1.374.15.575.15a1.25 1.25 0 00.738-.237 1.25 1.25 0 00.5-1.25l-1.25-7.1 5.162-5a1.25 1.25 0 00.4-1.275zm-7.688 5a1.25 1.25 0 00-.362 1.1l.9 5.25-4.7-2.5a1.326 1.326 0 00-1.175 0l-4.7 2.5.9-5.25a1.25 1.25 0 00-.362-1.1l-3.75-3.75 5.262-.763a1.25 1.25 0 00.95-.687l2.225-4.763 2.35 4.775a1.25 1.25 0 00.95.688l5.262.762-3.75 3.738z" fill="#828282"/></svg>