<?xml version="1.0" encoding="utf-8"?><svg width="21" height="20" fill="none" xmlns="http://www.w3.org/2000/svg" viewBox="0 0 21 20"><path d="M19.788 7.663a.984.984 0 01.32.455 1.004 1.004 0 01-.31 1.005l-3.988 3.94.965 5.596c.035.184.017.375-.052.55a.983.983 0 01-.334.435.953.953 0 01-.57.187.884.884 0 01-.444-.118l-4.926-2.63-4.926 2.63a.95.95 0 01-1.047-.064.983.983 0 01-.332-.444 1.003 1.003 0 01-.041-.556l.966-5.596-3.99-3.94a.99.99 0 01-.24-.985.986.986 0 01.297-.449.957.957 0 01.485-.22l5.496-.828L9.58 1.548a.979.979 0 01.356-.405.952.952 0 011.026 0 .978.978 0 01.356.405l2.463 5.093 5.496.817a.955.955 0 01.511.205z" fill="#BDBDBD"/></svg>