<?xml version="1.0" encoding="utf-8"?><svg width="26" height="24" fill="none" xmlns="http://www.w3.org/2000/svg" viewBox="0 0 26 24"><path d="M24.579 8.465c.19.148.334.349.413.578a1.25 1.25 0 01-.4 1.275l-5.162 5 1.25 7.1a1.25 1.25 0 01-.5 1.25 1.25 1.25 0 01-.738.237c-.201 0-.4-.05-.575-.15l-6.375-3.337-6.375 3.337a1.25 1.25 0 01-1.837-1.35l1.25-7.1-5.163-5a1.25 1.25 0 01-.312-1.25 1.25 1.25 0 011.012-.85l7.113-1.05 3.187-6.45a1.25 1.25 0 012.25 0l3.188 6.463 7.112 1.037c.241.02.47.11.662.26z" fill="#828282"/></svg>