<?xml version="1.0" encoding="utf-8"?><svg width="22" height="18" fill="none" xmlns="http://www.w3.org/2000/svg" viewBox="0 0 22 18"><path d="M10.382 5.262l-6.827 5.59v6.033a.587.587 0 00.593.59l4.149-.012a.594.594 0 00.59-.588V13.35a.587.587 0 01.592-.589h2.37a.594.594 0 01.592.59v3.52a.586.586 0 00.365.546c.072.03.15.045.228.045l4.147.011a.594.594 0 00.593-.589v-6.037l-6.825-5.586a.453.453 0 00-.567 0zm10.784 3.8L18.07 6.524v-5.1a.44.44 0 00-.444-.441h-2.074a.446.446 0 00-.444.442v2.673l-3.315-2.712a1.784 1.784 0 00-2.259 0L.161 9.061a.442.442 0 00-.059.623l.944 1.14a.443.443 0 00.473.143.445.445 0 00.153-.082l8.71-7.132a.453.453 0 01.567 0l8.71 7.132a.444.444 0 00.625-.06l.945-1.14a.441.441 0 00-.063-.624z" fill="#BDBDBD"/></svg>