<svg width="40" height="40" viewBox="0 0 40 40" xmlns="http://www.w3.org/2000/svg">
<path d="M39.0556 9.99597L28.9315 1.98664C28.1832 1.39492 27.1604 1.28174 26.3016 1.69735C25.4423 2.11386 24.8959 2.98492 24.8959 3.93884V6.91058H16.4442C15.4143 6.91058 14.5296 7.53672 14.1516 8.42951H7.50136L6.86979 5.30881L0.564107 4.25711L0 7.63858L3.97727 8.30093L8.19676 28.6581L6.34417 34.5487H8.90574C8.76087 34.8982 8.67937 35.2853 8.67937 35.6905C8.67937 37.2687 9.88184 38.5486 11.3659 38.5486C12.85 38.5486 14.0515 37.2691 14.0515 35.6905C14.0515 35.2848 13.97 34.8982 13.827 34.5487H27.9926C27.8486 34.8982 27.768 35.2853 27.768 35.6905C27.768 37.2687 28.9696 38.5486 30.4536 38.5486C31.9363 38.5486 33.1393 37.2691 33.1393 35.6905C33.1393 35.2848 33.0578 34.8982 32.9138 34.5487H35.1852V31.1215H11.0159L11.3627 30.0213L35.3735 19.9742V17.3402V16.816L39.0556 13.9022C39.6523 13.43 40 12.711 40 11.9495C40 11.188 39.6523 10.4682 39.0556 9.99597ZM27.4185 19.9077V14.4464H16.4773V9.34992H27.4185V3.88768L37.5421 11.8979L27.4185 19.9077Z"/>
</svg>
