<svg width="22" height="22" viewBox="0 0 22 22" fill="none" xmlns="http://www.w3.org/2000/svg">
<path d="M11 1.375C9.09636 1.375 7.23546 1.9395 5.65264 2.99711C4.06982 4.05471 2.83616 5.55793 2.10766 7.31667C1.37917 9.07541 1.18856 11.0107 1.55995 12.8777C1.93133 14.7448 2.84802 16.4598 4.1941 17.8059C5.54018 19.152 7.25519 20.0687 9.12226 20.4401C10.9893 20.8114 12.9246 20.6208 14.6833 19.8923C16.4421 19.1638 17.9453 17.9302 19.0029 16.3474C20.0605 14.7645 20.625 12.9036 20.625 11C20.625 8.44729 19.6109 5.99913 17.8059 4.1941C16.0009 2.38906 13.5527 1.375 11 1.375ZM6.875 18.1362V16.7612C6.84481 16.1807 7.0442 15.6115 7.43011 15.1768C7.81602 14.742 8.35746 14.4764 8.9375 14.4375H13.0625C13.6438 14.4764 14.1863 14.7429 14.5724 15.1792C14.9585 15.6155 15.1571 16.1864 15.125 16.7681V18.1431C13.8727 18.8726 12.4493 19.257 11 19.257C9.5507 19.257 8.12732 18.8726 6.875 18.1431V18.1362ZM16.5 17.1325V16.7131C16.5188 15.7758 16.1693 14.8685 15.5266 14.186C14.8839 13.5035 13.9992 13.1001 13.0625 13.0625H8.9375C8.00016 13.0984 7.11446 13.5012 6.47141 14.1841C5.82836 14.867 5.47948 15.7753 5.5 16.7131V17.1187C4.25464 16.0049 3.37684 14.5391 2.98276 12.9154C2.58868 11.2917 2.69689 9.58663 3.29308 8.02578C3.88927 6.46494 4.94533 5.1219 6.32153 4.17439C7.69772 3.22688 9.32917 2.71956 11 2.71956C12.6708 2.71956 14.3023 3.22688 15.6785 4.17439C17.0547 5.1219 18.1107 6.46494 18.7069 8.02578C19.3031 9.58663 19.4113 11.2917 19.0173 12.9154C18.6232 14.5391 17.7454 16.0049 16.5 17.1187V17.1325Z" fill="#2E2E2E"/>
<path d="M11 4.8125C10.3201 4.8125 9.65552 5.01411 9.09023 5.39182C8.52494 5.76954 8.08434 6.3064 7.82417 6.93453C7.56399 7.56265 7.49592 8.25381 7.62855 8.92062C7.76119 9.58743 8.08858 10.1999 8.56932 10.6807C9.05007 11.1614 9.66257 11.4888 10.3294 11.6214C10.9962 11.7541 11.6874 11.686 12.3155 11.4258C12.9436 11.1657 13.4805 10.7251 13.8582 10.1598C14.2359 9.59448 14.4375 8.92987 14.4375 8.25C14.4375 7.33832 14.0753 6.46398 13.4307 5.81932C12.786 5.17466 11.9117 4.8125 11 4.8125ZM11 10.3125C10.5921 10.3125 10.1933 10.1915 9.85414 9.96491C9.51496 9.73828 9.25061 9.41616 9.0945 9.03928C8.93839 8.66241 8.89755 8.24771 8.97713 7.84763C9.05671 7.44754 9.25315 7.08004 9.54159 6.79159C9.83004 6.50315 10.1975 6.30671 10.5976 6.22713C10.9977 6.14755 11.4124 6.18839 11.7893 6.3445C12.1662 6.5006 12.4883 6.76496 12.7149 7.10414C12.9415 7.44331 13.0625 7.84208 13.0625 8.25C13.0625 8.79701 12.8452 9.32161 12.4584 9.70841C12.0716 10.0952 11.547 10.3125 11 10.3125Z" fill="#2E2E2E"/>
</svg>
