<svg width="18" height="18" viewBox="0 0 18 18" fill="none" xmlns="http://www.w3.org/2000/svg">
<path d="M17.7667 9.29159L9.66761 0.285057C9.32654 -0.0950189 8.67142 -0.0950189 8.33035 0.285057L0.23126 9.29159C0.114683 9.42092 0.0381633 9.58136 0.011004 9.7534C-0.0161553 9.92545 0.00721607 10.1017 0.0782766 10.2607C0.222261 10.5858 0.544425 10.7948 0.899885 10.7948H2.69968V17.0993C2.69968 17.3382 2.79449 17.5673 2.96326 17.7362C3.13202 17.9051 3.36091 18 3.59958 18H6.29928C6.53795 18 6.76684 17.9051 6.93561 17.7362C7.10437 17.5673 7.19918 17.3382 7.19918 17.0993V13.4967H10.7988V17.0993C10.7988 17.3382 10.8936 17.5673 11.0624 17.7362C11.2311 17.9051 11.46 18 11.6987 18H14.3984C14.637 18 14.8659 17.9051 15.0347 17.7362C15.2035 17.5673 15.2983 17.3382 15.2983 17.0993V10.7948H17.0981C17.2724 10.7955 17.4431 10.7455 17.5895 10.6508C17.7358 10.5561 17.8515 10.4208 17.9224 10.2615C17.9933 10.1021 18.0163 9.92559 17.9886 9.75337C17.961 9.58115 17.8839 9.4207 17.7667 9.29159Z" fill="#00C25A"/>
</svg>
