<svg width="22" height="22" viewBox="0 0 22 22" fill="none" xmlns="http://www.w3.org/2000/svg">
<path d="M16.8456 21.9999C16.5522 21.9997 16.2656 21.9117 16.0224 21.7474L11.0697 18.4244C11.0453 18.4075 11.0164 18.3985 10.9867 18.3985C10.9571 18.3985 10.9281 18.4075 10.9037 18.4244L5.95104 21.7474C5.70233 21.9136 5.409 22.0002 5.10999 21.9956C4.81098 21.991 4.52044 21.8955 4.27694 21.7217C4.03345 21.5479 3.84854 21.304 3.74675 21.0226C3.64496 20.7411 3.63111 20.4352 3.70705 20.1457L5.33361 14.4035C5.3413 14.3746 5.34037 14.3441 5.33093 14.3158C5.32149 14.2874 5.30396 14.2625 5.2805 14.244L0.593359 10.5554C0.346613 10.3714 0.163582 10.1147 0.0699299 9.82133C-0.023722 9.52793 -0.0232983 9.21255 0.0711416 8.9194C0.165582 8.62625 0.349302 8.37004 0.596542 8.1867C0.843782 8.00335 1.14214 7.90206 1.44979 7.89703L7.4249 7.67106C7.45427 7.66903 7.48244 7.65854 7.506 7.64086C7.52956 7.62317 7.5475 7.59904 7.55768 7.57137L9.61577 1.96876C9.71951 1.68474 9.90793 1.43948 10.1555 1.26621C10.4031 1.09293 10.6979 1 11 1C11.3021 1 11.5969 1.09293 11.8445 1.26621C12.0921 1.43948 12.2805 1.68474 12.3842 1.96876L14.4423 7.57137C14.4525 7.59904 14.4704 7.62317 14.494 7.64086C14.5176 7.65854 14.5457 7.66903 14.5751 7.67106L20.5502 7.89703C20.8579 7.90206 21.1562 8.00335 21.4035 8.1867C21.6507 8.37004 21.8344 8.62625 21.9289 8.9194C22.0233 9.21255 22.0237 9.52793 21.9301 9.82133C21.8364 10.1147 21.6534 10.3714 21.4066 10.5554L16.7195 14.244C16.6953 14.2619 16.6773 14.2868 16.6678 14.3153C16.6582 14.3439 16.6578 14.3747 16.6664 14.4035L18.2929 20.1457C18.35 20.3659 18.3557 20.5964 18.3095 20.8192C18.2633 21.042 18.1665 21.2511 18.0265 21.4304C17.8866 21.6097 17.7072 21.7544 17.5025 21.8531C17.2977 21.9519 17.0729 22.0021 16.8456 21.9999ZM10.99 17.0686C11.284 17.0776 11.5685 17.1748 11.8066 17.3477L16.7593 20.6707C16.7844 20.6898 16.815 20.7003 16.8466 20.7005C16.8781 20.7008 16.9088 20.6908 16.9342 20.6721C16.9596 20.6534 16.9783 20.627 16.9875 20.5968C16.9966 20.5666 16.9958 20.5342 16.9851 20.5046L15.3585 14.7624C15.2785 14.4807 15.2844 14.1815 15.3755 13.9032C15.4666 13.6249 15.6387 13.3802 15.8697 13.2006L20.5568 9.51202C20.5824 9.49404 20.6016 9.46833 20.6114 9.43866C20.6213 9.40899 20.6215 9.37693 20.6118 9.34718C20.6021 9.31743 20.5832 9.29157 20.5578 9.27339C20.5324 9.25521 20.5018 9.24567 20.4705 9.24618L14.4954 9.02021C14.2029 9.0088 13.9203 8.91041 13.6838 8.73759C13.4474 8.56477 13.2676 8.32536 13.1676 8.04989L11.1095 2.44728C11.1003 2.41753 11.0817 2.39153 11.0567 2.37306C11.0316 2.3546 11.0013 2.34464 10.9701 2.34464C10.939 2.34464 10.9087 2.3546 10.8836 2.37306C10.8585 2.39153 10.84 2.41753 10.8307 2.44728L8.79253 8.04324C8.69252 8.31872 8.51281 8.55813 8.27633 8.73094C8.03984 8.90376 7.7573 9.00215 7.46473 9.01357L1.48962 9.23953C1.45838 9.23903 1.4278 9.24856 1.40238 9.26674C1.37695 9.28492 1.35802 9.31079 1.34836 9.34053C1.3387 9.37028 1.33883 9.40234 1.34872 9.43201C1.35861 9.46168 1.37775 9.48739 1.40332 9.50537L6.09709 13.2006C6.32743 13.3808 6.49902 13.6255 6.59005 13.9036C6.68108 14.1817 6.68743 14.4807 6.6083 14.7624L4.98838 20.5046C4.97871 20.5333 4.97867 20.5644 4.98825 20.5932C4.99783 20.622 5.01652 20.6469 5.04149 20.6641C5.06554 20.6847 5.09615 20.696 5.1278 20.696C5.15945 20.696 5.19006 20.6847 5.21411 20.6641L10.1668 17.3411C10.4089 17.1803 10.6929 17.0948 10.9834 17.0952L10.99 17.0686Z" fill="#2E2E2E"/>
</svg>
