<svg width="60" height="60" viewBox="0 0 60 60" fill="none" xmlns="http://www.w3.org/2000/svg">
<path d="M60 52.5V7.5C60 5.51088 59.2098 3.60322 57.8033 2.1967C56.3968 0.790176 54.4891 0 52.5 0H7.5C5.51088 0 3.60322 0.790176 2.1967 2.1967C0.790176 3.60322 0 5.51088 0 7.5V52.5C0 54.4891 0.790176 56.3968 2.1967 57.8033C3.60322 59.2098 5.51088 60 7.5 60H52.5C54.4891 60 56.3968 59.2098 57.8033 57.8033C59.2098 56.3968 60 54.4891 60 52.5Z" fill="#E5E5E5"/>
<path d="M19.472 39C19.008 38.072 18.496 37.136 17.936 36.192C17.392 35.232 16.76 34.256 16.04 33.264C15.816 33.552 15.528 33.952 15.176 34.464C14.84 34.976 14.496 35.52 14.144 36.096C13.808 36.672 13.488 37.224 13.184 37.752C12.88 38.28 12.656 38.696 12.512 39H8.24C8.944 37.704 9.76 36.344 10.688 34.92C11.632 33.496 12.68 31.984 13.832 30.384L8.48 22.368H13.016L16.256 27.552L19.424 22.368H23.696L18.416 30.432C19.76 32.176 20.888 33.792 21.8 35.28C22.712 36.752 23.432 37.992 23.96 39H19.472ZM37.2273 35.784V39H26.1153V22.368H29.8593V35.784H37.2273ZM44.5732 36.144C45.1012 36.144 45.5332 36.104 45.8692 36.024C46.2212 35.928 46.5012 35.808 46.7092 35.664C46.9172 35.504 47.0612 35.32 47.1412 35.112C47.2212 34.904 47.2612 34.672 47.2612 34.416C47.2612 33.872 47.0052 33.424 46.4932 33.072C45.9812 32.704 45.1012 32.312 43.8532 31.896C43.3092 31.704 42.7652 31.488 42.2212 31.248C41.6772 30.992 41.1892 30.68 40.7572 30.312C40.3252 29.928 39.9732 29.472 39.7012 28.944C39.4292 28.4 39.2932 27.744 39.2932 26.976C39.2932 26.208 39.4372 25.52 39.7252 24.912C40.0132 24.288 40.4212 23.76 40.9492 23.328C41.4772 22.896 42.1172 22.568 42.8692 22.344C43.6212 22.104 44.4692 21.984 45.4132 21.984C46.5332 21.984 47.5012 22.104 48.3172 22.344C49.1332 22.584 49.8052 22.848 50.3332 23.136L49.2532 26.088C48.7892 25.848 48.2692 25.64 47.6932 25.464C47.1332 25.272 46.4532 25.176 45.6532 25.176C44.7572 25.176 44.1092 25.304 43.7092 25.56C43.3252 25.8 43.1332 26.176 43.1332 26.688C43.1332 26.992 43.2052 27.248 43.3492 27.456C43.4932 27.664 43.6932 27.856 43.9492 28.032C44.2212 28.192 44.5252 28.344 44.8612 28.488C45.2132 28.616 45.5972 28.752 46.0132 28.896C46.8772 29.216 47.6292 29.536 48.2692 29.856C48.9092 30.16 49.4372 30.52 49.8532 30.936C50.2852 31.352 50.6052 31.84 50.8132 32.4C51.0212 32.96 51.1252 33.64 51.1252 34.44C51.1252 35.992 50.5812 37.2 49.4932 38.064C48.4052 38.912 46.7652 39.336 44.5732 39.336C43.8372 39.336 43.1732 39.288 42.5812 39.192C41.9892 39.112 41.4612 39.008 40.9972 38.88C40.5492 38.752 40.1572 38.616 39.8212 38.472C39.5012 38.328 39.2292 38.192 39.0052 38.064L40.0612 35.088C40.5572 35.36 41.1652 35.608 41.8852 35.832C42.6212 36.04 43.5172 36.144 44.5732 36.144Z" fill="white"/>
</svg>
