<svg width="19" height="4" viewBox="0 0 19 4" fill="none" xmlns="http://www.w3.org/2000/svg">
<path d="M2 4C3.10457 4 4 3.10457 4 2C4 0.89543 3.10457 0 2 0C0.89543 0 0 0.89543 0 2C0 3.10457 0.89543 4 2 4Z" fill="white"/>
<path d="M9.5 4C10.6046 4 11.5 3.10457 11.5 2C11.5 0.89543 10.6046 0 9.5 0C8.39543 0 7.5 0.89543 7.5 2C7.5 3.10457 8.39543 4 9.5 4Z" fill="white"/>
<path d="M17 4C18.1046 4 19 3.10457 19 2C19 0.89543 18.1046 0 17 0C15.8954 0 15 0.89543 15 2C15 3.10457 15.8954 4 17 4Z" fill="white"/>
</svg>
