<svg width="40" height="40" viewBox="0 0 40 40" xmlns="http://www.w3.org/2000/svg">
<path d="M5.0013 6.66602C4.11725 6.66602 3.2694 7.0172 2.64428 7.64233C2.01916 8.26745 1.66797 9.11529 1.66797 9.99935V28.3327H5.0013C5.0013 29.6588 5.52809 30.9305 6.46577 31.8682C7.40345 32.8059 8.67522 33.3327 10.0013 33.3327C11.3274 33.3327 12.5992 32.8059 13.5368 31.8682C14.4745 30.9305 15.0013 29.6588 15.0013 28.3327H25.0013C25.0013 29.6588 25.5281 30.9305 26.4658 31.8682C27.4034 32.8059 28.6752 33.3327 30.0013 33.3327C31.3274 33.3327 32.5992 32.8059 33.5368 31.8682C34.4745 30.9305 35.0013 29.6588 35.0013 28.3327H38.3346V19.9993L33.3346 13.3327H28.3346V6.66602H5.0013ZM16.668 9.99935L23.3346 16.666L16.668 23.3327V18.3327H6.66797V14.9993H16.668V9.99935ZM28.3346 15.8327H32.5013L35.7846 19.9993H28.3346V15.8327ZM10.0013 25.8327C10.6643 25.8327 11.3002 26.0961 11.7691 26.5649C12.2379 27.0338 12.5013 27.6696 12.5013 28.3327C12.5013 28.9957 12.2379 29.6316 11.7691 30.1004C11.3002 30.5693 10.6643 30.8327 10.0013 30.8327C9.33826 30.8327 8.70237 30.5693 8.23353 30.1004C7.76469 29.6316 7.5013 28.9957 7.5013 28.3327C7.5013 27.6696 7.76469 27.0338 8.23353 26.5649C8.70237 26.0961 9.33826 25.8327 10.0013 25.8327ZM30.0013 25.8327C30.6643 25.8327 31.3002 26.0961 31.7691 26.5649C32.2379 27.0338 32.5013 27.6696 32.5013 28.3327C32.5013 28.9957 32.2379 29.6316 31.7691 30.1004C31.3002 30.5693 30.6643 30.8327 30.0013 30.8327C29.3383 30.8327 28.7024 30.5693 28.2335 30.1004C27.7647 29.6316 27.5013 28.9957 27.5013 28.3327C27.5013 27.6696 27.7647 27.0338 28.2335 26.5649C28.7024 26.0961 29.3383 25.8327 30.0013 25.8327Z"/>
</svg>
