<svg width="22" height="22" viewBox="0 0 22 22" fill="none" xmlns="http://www.w3.org/2000/svg">
<path d="M18.8275 15.0799H6.03359L6.67598 13.7715L17.3494 13.7521C17.7104 13.7521 18.0197 13.4943 18.0842 13.1377L19.5623 4.86406C19.601 4.64707 19.543 4.42363 19.4012 4.25391C19.3311 4.17038 19.2437 4.10309 19.145 4.05672C19.0463 4.01034 18.9387 3.98599 18.8297 3.98535L5.25156 3.94023L5.13555 3.39453C5.0625 3.04648 4.74883 2.79297 4.39219 2.79297H1.07285C0.871712 2.79297 0.67881 2.87287 0.536583 3.0151C0.394356 3.15733 0.314453 3.35023 0.314453 3.55137C0.314453 3.75251 0.394356 3.94541 0.536583 4.08764C0.67881 4.22986 0.871712 4.30977 1.07285 4.30977H3.77773L4.28477 6.72031L5.53301 12.7639L3.92598 15.3871C3.84252 15.4997 3.79225 15.6335 3.78086 15.7732C3.76947 15.9129 3.79741 16.0531 3.86152 16.1777C3.99043 16.4334 4.25039 16.5945 4.53828 16.5945H5.8875C5.59986 16.9766 5.4445 17.4419 5.44492 17.9201C5.44492 19.1361 6.4332 20.1244 7.64922 20.1244C8.86523 20.1244 9.85352 19.1361 9.85352 17.9201C9.85352 17.441 9.69453 16.9748 9.41094 16.5945H12.8721C12.5844 16.9766 12.4291 17.4419 12.4295 17.9201C12.4295 19.1361 13.4178 20.1244 14.6338 20.1244C15.8498 20.1244 16.8381 19.1361 16.8381 17.9201C16.8381 17.441 16.6791 16.9748 16.3955 16.5945H18.8297C19.2465 16.5945 19.5881 16.2551 19.5881 15.8361C19.5868 15.6352 19.5062 15.4429 19.3637 15.3012C19.2212 15.1596 19.0285 15.08 18.8275 15.0799ZM5.56738 5.43555L17.9381 5.47637L16.7264 12.2611L7.00898 12.2783L5.56738 5.43555ZM7.64922 18.599C7.27539 18.599 6.97031 18.2939 6.97031 17.9201C6.97031 17.5463 7.27539 17.2412 7.64922 17.2412C8.02305 17.2412 8.32812 17.5463 8.32812 17.9201C8.32812 18.1002 8.2566 18.2729 8.12928 18.4002C8.00196 18.5275 7.82928 18.599 7.64922 18.599ZM14.6338 18.599C14.26 18.599 13.9549 18.2939 13.9549 17.9201C13.9549 17.5463 14.26 17.2412 14.6338 17.2412C15.0076 17.2412 15.3127 17.5463 15.3127 17.9201C15.3127 18.1002 15.2412 18.2729 15.1138 18.4002C14.9865 18.5275 14.8138 18.599 14.6338 18.599Z" fill="#2E2E2E"/>
</svg>
