<svg width="19" height="20" viewBox="0 0 19 20" xmlns="http://www.w3.org/2000/svg">
<path d="M13.3944 17.2642C13.3882 17.5351 13.4364 17.8044 13.536 18.0565C13.6357 18.3085 13.7848 18.5382 13.9747 18.7319C14.1645 18.9257 14.3913 19.0796 14.6416 19.1848C14.892 19.2899 15.1608 19.3441 15.4324 19.3442C15.7041 19.3443 15.9729 19.2902 16.2233 19.1852C16.4737 19.0802 16.7005 18.9263 16.8905 18.7326C17.0804 18.539 17.2297 18.3094 17.3295 18.0574C17.4293 17.8054 17.4776 17.5361 17.4716 17.2652C17.4598 16.7338 17.2399 16.228 16.859 15.8563C16.4781 15.4845 15.9664 15.2763 15.4335 15.2762C14.9005 15.2761 14.3888 15.484 14.0077 15.8556C13.6265 16.2271 13.4064 16.7328 13.3944 17.2642ZM3.1988 17.2642C3.1988 17.8037 3.41364 18.321 3.79605 18.7025C4.17845 19.0839 4.69711 19.2982 5.23791 19.2982C5.77872 19.2982 6.29738 19.0839 6.67978 18.7025C7.06219 18.321 7.27703 17.8037 7.27703 17.2642C7.27703 16.7248 7.06219 16.2074 6.67978 15.8259C6.29738 15.4445 5.77872 15.2302 5.23791 15.2302C4.69711 15.2302 4.17845 15.4445 3.79605 15.8259C3.41364 16.2074 3.1988 16.7248 3.1988 17.2642ZM6.81517 12.3541L18.0996 9.13836C18.2099 9.10166 18.3065 9.03243 18.3766 8.93983C18.4467 8.84723 18.487 8.7356 18.4921 8.61969V3.02619H4.21836V1.39899C4.21836 1.17525 4.03382 0.992188 3.81156 0.992188H0.546939C0.439038 0.992724 0.335724 1.03579 0.259521 1.11199C0.183318 1.18819 0.140404 1.29136 0.140137 1.39899L0.140137 3.02619H2.17925L4.1266 12.1355L4.21836 13.0945V14.7715C4.21836 14.9943 4.40188 15.1783 4.62618 15.1783H18.0843C18.3086 15.1783 18.4921 14.9932 18.4921 14.7715V13.1962H7.02418C5.85169 13.1962 5.82722 12.6358 6.81517 12.3541Z"/>
</svg>
