<svg width="22" height="22" viewBox="0 0 22 22" fill="none" xmlns="http://www.w3.org/2000/svg">
<path d="M2.75 2.0625V19.9375H10.3125V17.1875H11.6875V19.9375H19.25V2.0625H2.75ZM4.125 3.4375H17.875V18.5625H13.0625V15.8125H8.9375V18.5625H4.125V3.4375ZM5.5 4.8125V6.1875H8.25V4.8125H5.5ZM9.625 4.8125V6.1875H12.375V4.8125H9.625ZM13.75 4.8125V6.1875H16.5V4.8125H13.75ZM5.5 7.5625V8.9375H8.25V7.5625H5.5ZM9.625 7.5625V8.9375H12.375V7.5625H9.625ZM13.75 7.5625V8.9375H16.5V7.5625H13.75ZM5.5 10.3125V11.6875H8.25V10.3125H5.5ZM9.625 10.3125V11.6875H12.375V10.3125H9.625ZM13.75 10.3125V11.6875H16.5V10.3125H13.75ZM5.5 13.0625V14.4375H8.25V13.0625H5.5ZM9.625 13.0625V14.4375H12.375V13.0625H9.625ZM13.75 13.0625V14.4375H16.5V13.0625H13.75ZM5.5 15.8125V17.1875H8.25V15.8125H5.5ZM13.75 15.8125V17.1875H16.5V15.8125H13.75Z" fill="#2E2E2E"/>
</svg>
