<svg width="32" height="32" viewBox="0 0 32 32" fill="none" xmlns="http://www.w3.org/2000/svg">
<rect width="32" height="32" rx="16" fill="#00C25A"/>
<path d="M19.5845 8.00012H12.4153C9.98072 8.00012 8 9.98093 8 12.4155V19.5847C8 22.0194 9.98072 24.0001 12.4153 24.0001H19.5845C22.0193 24.0001 24 22.0193 24 19.5847V12.4155C24.0001 9.98093 22.0193 8.00012 19.5845 8.00012ZM22.5805 19.5847C22.5805 21.2366 21.2365 22.5805 19.5846 22.5805H12.4153C10.7635 22.5806 9.4196 21.2366 9.4196 19.5847V12.4155C9.4196 10.7637 10.7635 9.41972 12.4153 9.41972H19.5845C21.2364 9.41972 22.5804 10.7637 22.5804 12.4155V19.5847H22.5805Z" fill="white"/>
<path d="M16 12.0001C13.7944 12.0001 12 13.7945 12 16.0002C12 18.2058 13.7944 20.0001 16 20.0001C18.2056 20.0001 20 18.2058 20 16.0002C20 13.7945 18.2056 12.0001 16 12.0001ZM16 18.6227C14.5539 18.6227 13.3773 17.4462 13.3773 16.0001C13.3773 14.5539 14.5538 13.3774 16 13.3774C17.4462 13.3774 18.6227 14.5539 18.6227 16.0001C18.6227 17.4462 17.4461 18.6227 16 18.6227Z" fill="white"/>
<path d="M19.9993 10.6667C19.649 10.6667 19.3049 10.8086 19.0575 11.0571C18.8089 11.3043 18.666 11.6486 18.666 12.0001C18.666 12.3505 18.809 12.6946 19.0575 12.9431C19.3048 13.1904 19.649 13.3334 19.9993 13.3334C20.3509 13.3334 20.6939 13.1904 20.9424 12.9431C21.1909 12.6946 21.3327 12.3504 21.3327 12.0001C21.3327 11.6486 21.1909 11.3043 20.9424 11.0571C20.6951 10.8086 20.3509 10.6667 19.9993 10.6667Z" fill="white"/>
</svg>
