<svg width="32" height="32" viewBox="0 0 32 32" fill="none" xmlns="http://www.w3.org/2000/svg">
<rect x="0.000488281" width="32" height="32" rx="16" fill="white"/>
<rect width="21.3333" height="21.3333" transform="translate(5.33386 5.3335)" fill="white"/>
<path d="M19.585 8.00024H12.4158C9.98121 8.00024 8.00049 9.98106 8.00049 12.4157V19.5848C8.00049 22.0195 9.98121 24.0002 12.4158 24.0002H19.585C22.0198 24.0002 24.0005 22.0194 24.0005 19.5848V12.4157C24.0006 9.98106 22.0198 8.00024 19.585 8.00024ZM22.581 19.5848C22.581 21.2368 21.237 22.5806 19.5851 22.5806H12.4158C10.764 22.5807 9.42009 21.2368 9.42009 19.5848V12.4157C9.42009 10.7638 10.764 9.41984 12.4158 9.41984H19.585C21.2369 9.41984 22.5809 10.7638 22.5809 12.4157V19.5848H22.581Z" fill="#00C25A"/>
<path d="M16.0005 12.0002C13.7949 12.0002 12.0005 13.7947 12.0005 16.0003C12.0005 18.2059 13.7949 20.0002 16.0005 20.0002C18.2061 20.0002 20.0005 18.2059 20.0005 16.0003C20.0005 13.7947 18.2061 12.0002 16.0005 12.0002ZM16.0005 18.6228C14.5544 18.6228 13.3778 17.4464 13.3778 16.0002C13.3778 14.554 14.5543 13.3775 16.0005 13.3775C17.4467 13.3775 18.6232 14.554 18.6232 16.0002C18.6232 17.4464 17.4466 18.6228 16.0005 18.6228Z" fill="#00C25A"/>
<path d="M20.0004 10.667C19.6501 10.667 19.306 10.8088 19.0586 11.0573C18.81 11.3046 18.6671 11.6488 18.6671 12.0003C18.6671 12.3507 18.8101 12.6949 19.0586 12.9434C19.3059 13.1906 19.6501 13.3337 20.0004 13.3337C20.352 13.3337 20.695 13.1906 20.9435 12.9434C21.192 12.6949 21.3338 12.3506 21.3338 12.0003C21.3338 11.6488 21.192 11.3046 20.9435 11.0573C20.6962 10.8088 20.352 10.667 20.0004 10.667Z" fill="#00C25A"/>
</svg>
