<svg width="50" height="50" viewBox="0 0 50 50" fill="none" xmlns="http://www.w3.org/2000/svg">
<path d="M22.9167 12.5H18.75V18.75H12.5V22.9167H18.75V29.1667H22.9167V22.9167H29.1667V18.75H22.9167V12.5Z" fill="#E5E5E5"/>
<path d="M20.8337 4.16675C11.6441 4.16675 4.16699 11.6438 4.16699 20.8334C4.16699 30.023 11.6441 37.5001 20.8337 37.5001C24.5315 37.4993 28.1228 36.2614 31.0357 33.9834L40.1941 43.1417L43.1399 40.1959L33.9816 31.0376C36.2607 28.1244 37.4994 24.5322 37.5003 20.8334C37.5003 11.6438 30.0232 4.16675 20.8337 4.16675ZM20.8337 33.3334C13.9399 33.3334 8.33366 27.7272 8.33366 20.8334C8.33366 13.9397 13.9399 8.33341 20.8337 8.33341C27.7274 8.33341 33.3337 13.9397 33.3337 20.8334C33.3337 27.7272 27.7274 33.3334 20.8337 33.3334Z" fill="#E5E5E5"/>
</svg>
