<svg width="32" height="32" viewBox="0 0 32 32" fill="none" xmlns="http://www.w3.org/2000/svg">
<circle cx="16.0005" cy="16" r="16" fill="white"/>
<path d="M15.5187 19.6785C14.1233 19.5329 12.8651 19.1893 11.7879 18.3468C11.6543 18.242 11.5163 18.1409 11.3943 18.0238C10.9228 17.571 10.8753 17.0524 11.2484 16.518C11.5676 16.0606 12.1033 15.9383 12.6602 16.2009C12.7681 16.2518 12.8708 16.3153 12.9692 16.3835C14.9767 17.7629 17.7346 17.801 19.7497 16.4456C19.9493 16.2925 20.1627 16.1677 20.4101 16.104C20.891 15.9805 21.3395 16.1571 21.5975 16.5779C21.8924 17.0584 21.8886 17.5275 21.5253 17.9006C20.9681 18.4725 20.2979 18.8863 19.5532 19.1751C18.8491 19.4481 18.0779 19.5855 17.3146 19.6768C17.4298 19.8021 17.484 19.8638 17.5561 19.9362C18.5925 20.9776 19.6335 22.0146 20.6666 23.0592C21.0186 23.4151 21.0921 23.8564 20.8983 24.2704C20.6864 24.7229 20.2121 25.0205 19.747 24.9887C19.4524 24.9683 19.2226 24.8217 19.0184 24.616C18.2362 23.8289 17.4394 23.0564 16.673 22.2544C16.45 22.0212 16.3428 22.0653 16.1459 22.2678C15.3591 23.0779 14.5594 23.8755 13.7549 24.6686C13.3937 25.0247 12.9639 25.0888 12.545 24.8854C12.0998 24.6695 11.8164 24.215 11.8383 23.7582C11.8534 23.4492 12.0053 23.2132 12.2174 23.0015C13.2431 21.9773 14.266 20.9504 15.2893 19.9245C15.357 19.8562 15.4201 19.7839 15.5187 19.6785Z" fill="#00C25A"/>
<path d="M16.3688 16.111C13.8794 16.1025 11.8381 14.0388 11.8526 11.5454C11.8669 9.02453 13.9095 6.99304 16.4235 7.00002C18.9424 7.0068 20.9643 9.06751 20.9517 11.6146C20.9389 14.1029 18.8834 16.1196 16.3688 16.111ZM18.6312 11.5514C18.6269 10.3134 17.6409 9.32785 16.4054 9.32672C15.1594 9.3254 14.1646 10.3289 14.1742 11.5782C14.1835 12.8115 15.1779 13.7901 16.4169 13.7856C17.652 13.7812 18.6353 12.7893 18.6312 11.5514Z" fill="#00C25A"/>
</svg>
