<svg width="60" height="60" viewBox="0 0 60 60" fill="none" xmlns="http://www.w3.org/2000/svg">
<path d="M32.5 47.5V37.5H40L30 25L20 37.5H27.5V47.5H32.5Z" fill="#00C25A"/>
<path d="M17.5 47.5H22.5V42.5H17.5C13.365 42.5 10 39.135 10 35C10 31.49 12.9975 28.11 16.6825 27.4625L18.135 27.2075L18.615 25.8125C20.3725 20.685 24.7375 17.5 30 17.5C36.8925 17.5 42.5 23.1075 42.5 30V32.5H45C47.7575 32.5 50 34.7425 50 37.5C50 40.2575 47.7575 42.5 45 42.5H37.5V47.5H45C50.515 47.5 55 43.015 55 37.5C54.9962 35.259 54.2416 33.0839 52.8567 31.3221C51.4719 29.5602 49.5366 28.3131 47.36 27.78C46.2675 19.175 38.9 12.5 30 12.5C23.11 12.5 17.125 16.5275 14.3925 22.875C9.0225 24.48 5 29.55 5 35C5 41.8925 10.6075 47.5 17.5 47.5Z" fill="#00C25A"/>
</svg>
