<svg width="15" height="21" viewBox="0 0 15 21" fill="none" xmlns="http://www.w3.org/2000/svg">
<path d="M5.49626 18.6V20.6667H3.42959V18.6H0.32959V0H11.6963C12.5184 0 13.3069 0.326606 13.8883 0.907969C14.4697 1.48933 14.7963 2.27783 14.7963 3.1V15.5C14.7963 16.3222 14.4697 17.1107 13.8883 17.692C13.3069 18.2734 12.5184 18.6 11.6963 18.6H5.49626ZM3.42959 2.06667H2.39626V16.5333H3.42959V2.06667ZM5.49626 2.06667V16.5333H11.6963C11.9703 16.5333 12.2331 16.4245 12.4269 16.2307C12.6207 16.0369 12.7296 15.7741 12.7296 15.5V3.1C12.7296 2.82594 12.6207 2.56311 12.4269 2.36932C12.2331 2.17554 11.9703 2.06667 11.6963 2.06667H5.49626ZM6.52959 4.13333H11.6963V6.2H6.52959V4.13333ZM6.52959 7.23333H11.6963V9.3H6.52959V7.23333Z" fill="#BDBDBD"/>
</svg>
