<svg width="22" height="18" viewBox="0 0 22 18" fill="none" xmlns="http://www.w3.org/2000/svg">
<path d="M10.382 5.26199L3.55522 10.852V16.8852C3.55522 17.0414 3.61764 17.1912 3.72874 17.3017C3.83985 17.4121 3.99054 17.4742 4.14767 17.4742L8.297 17.4635C8.45361 17.4627 8.60354 17.4003 8.71401 17.2899C8.82447 17.1796 8.88648 17.0302 8.88648 16.8745V13.3512C8.88648 13.195 8.9489 13.0451 9.06 12.9347C9.17111 12.8242 9.3218 12.7622 9.47893 12.7622H11.8487C12.0058 12.7622 12.1565 12.8242 12.2676 12.9347C12.3787 13.0451 12.4411 13.195 12.4411 13.3512V16.8719C12.4409 16.9494 12.456 17.0262 12.4857 17.0979C12.5154 17.1696 12.559 17.2347 12.614 17.2896C12.6691 17.3445 12.7344 17.388 12.8064 17.4177C12.8784 17.4475 12.9556 17.4628 13.0336 17.4628L17.1814 17.4742C17.3386 17.4742 17.4893 17.4121 17.6004 17.3017C17.7115 17.1912 17.7739 17.0414 17.7739 16.8852V10.8479L10.9486 5.26199C10.8683 5.19769 10.7684 5.16262 10.6653 5.16262C10.5622 5.16262 10.4623 5.19769 10.382 5.26199ZM21.1656 9.06141L18.0701 6.52466V1.42576C18.0701 1.3086 18.0233 1.19624 17.94 1.11339C17.8566 1.03055 17.7436 0.984009 17.6258 0.984009H15.5522C15.4344 0.984009 15.3214 1.03055 15.238 1.11339C15.1547 1.19624 15.1079 1.3086 15.1079 1.42576V4.09871L11.7928 1.38711C11.4747 1.12683 11.0754 0.984529 10.6634 0.984529C10.2514 0.984529 9.85223 1.12683 9.5341 1.38711L0.161256 9.06141C0.116262 9.09838 0.0790372 9.1438 0.0517078 9.19508C0.0243783 9.24636 0.00747989 9.3025 0.00197808 9.36027C-0.00352373 9.41805 0.00247888 9.47633 0.0196429 9.5318C0.036807 9.58727 0.0647961 9.63883 0.102011 9.68354L1.04622 10.8247C1.08333 10.8696 1.12898 10.9067 1.18056 10.934C1.23213 10.9613 1.28861 10.9783 1.34677 10.9838C1.40493 10.9894 1.46362 10.9835 1.51949 10.9665C1.57536 10.9495 1.62731 10.9217 1.67236 10.8847L10.382 3.75268C10.4623 3.68837 10.5622 3.65331 10.6653 3.65331C10.7684 3.65331 10.8683 3.68837 10.9486 3.75268L19.6586 10.8847C19.7036 10.9217 19.7554 10.9496 19.8112 10.9666C19.867 10.9837 19.9257 10.9897 19.9838 10.9842C20.0419 10.9787 20.0983 10.9619 20.1499 10.9347C20.2015 10.9076 20.2472 10.8706 20.2844 10.8258L21.2286 9.68464C21.2658 9.63968 21.2936 9.58785 21.3106 9.53214C21.3276 9.47643 21.3333 9.41793 21.3274 9.36002C21.3216 9.3021 21.3043 9.2459 21.2765 9.19466C21.2487 9.14341 21.2111 9.09813 21.1656 9.06141Z" fill="#BDBDBD"/>
</svg>
