<svg width="40" height="40" viewBox="0 0 40 40" fill="none" xmlns="http://www.w3.org/2000/svg">
<path d="M20.0007 23.3333C23.6773 23.3333 26.6673 20.3433 26.6673 16.6667C26.6673 12.99 23.6773 10 20.0007 10C16.324 10 13.334 12.99 13.334 16.6667C13.334 20.3433 16.324 23.3333 20.0007 23.3333ZM20.0007 13.3333C21.839 13.3333 23.334 14.8283 23.334 16.6667C23.334 18.505 21.839 20 20.0007 20C18.1623 20 16.6673 18.505 16.6673 16.6667C16.6673 14.8283 18.1623 13.3333 20.0007 13.3333Z" fill="#00C25A"/>
<path d="M19.0328 36.3566C19.3149 36.5581 19.6529 36.6664 19.9995 36.6664C20.3461 36.6664 20.6841 36.5581 20.9662 36.3566C21.4728 35.9983 33.3812 27.4 33.3328 16.6666C33.3328 9.31498 27.3512 3.33331 19.9995 3.33331C12.6478 3.33331 6.66616 9.31498 6.66616 16.6583C6.61783 27.4 18.5262 35.9983 19.0328 36.3566ZM19.9995 6.66665C25.5145 6.66665 29.9995 11.1516 29.9995 16.675C30.0345 24.0716 22.6862 30.7133 19.9995 32.8916C17.3145 30.7116 9.9645 24.0683 9.9995 16.6666C9.9995 11.1516 14.4845 6.66665 19.9995 6.66665Z" fill="#00C25A"/>
</svg>
