<svg width="26" height="24" viewBox="0 0 26 24" fill="none" xmlns="http://www.w3.org/2000/svg">
<path d="M24.5787 8.46452C24.7695 8.61317 24.9131 8.814 24.992 9.04264C25.0528 9.27123 25.0475 9.51238 24.9767 9.73807C24.9059 9.96377 24.7725 10.1647 24.592 10.3176L19.4295 15.3176L20.6795 22.4176C20.7242 22.652 20.7008 22.8942 20.6122 23.1157C20.5236 23.3372 20.3735 23.5287 20.1795 23.6676C19.9651 23.8229 19.7068 23.9061 19.442 23.9051C19.2406 23.9058 19.0425 23.8541 18.867 23.7551L12.492 20.4176L6.11704 23.7551C5.90736 23.8737 5.6679 23.9291 5.42745 23.9148C5.187 23.9005 4.95581 23.817 4.7617 23.6744C4.56758 23.5318 4.41881 23.3361 4.33327 23.1109C4.24773 22.8858 4.22907 22.6407 4.27954 22.4051L5.52954 15.3051L0.367037 10.3051C0.206359 10.1448 0.0923767 9.94372 0.0373219 9.7235C-0.0177329 9.50328 -0.0117816 9.27223 0.0545372 9.05514C0.126987 8.83298 0.260258 8.63558 0.439225 8.48534C0.618192 8.33509 0.83569 8.23802 1.06704 8.20514L8.17954 7.15514L11.367 0.705138C11.4694 0.493799 11.6292 0.315565 11.8282 0.190854C12.0271 0.0661437 12.2572 0 12.492 0C12.7269 0 12.9569 0.0661437 13.1559 0.190854C13.3549 0.315565 13.5147 0.493799 13.617 0.705138L16.8045 7.16764L23.917 8.20514C24.158 8.22576 24.3879 8.31586 24.5787 8.46452Z" fill="#828282"/>
</svg>
