<svg width="60" height="60" viewBox="0 0 60 60" fill="none" xmlns="http://www.w3.org/2000/svg">
<path d="M60 52.5V7.5C60 5.51088 59.2098 3.60322 57.8033 2.1967C56.3968 0.790176 54.4891 0 52.5 0H7.5C5.51088 0 3.60322 0.790176 2.1967 2.1967C0.790176 3.60322 0 5.51088 0 7.5V52.5C0 54.4891 0.790176 56.3968 2.1967 57.8033C3.60322 59.2098 5.51088 60 7.5 60H52.5C54.4891 60 56.3968 59.2098 57.8033 57.8033C59.2098 56.3968 60 54.4891 60 52.5Z" fill="#E5E5E5"/>
<path d="M14.912 22.176C17.392 22.176 19.296 22.616 20.624 23.496C21.952 24.36 22.616 25.784 22.616 27.768C22.616 29.768 21.944 31.216 20.6 32.112C19.256 32.992 17.336 33.432 14.84 33.432H13.664V39H9.92V22.608C10.736 22.448 11.6 22.336 12.512 22.272C13.424 22.208 14.224 22.176 14.912 22.176ZM15.152 25.368C14.88 25.368 14.608 25.376 14.336 25.392C14.08 25.408 13.856 25.424 13.664 25.44V30.24H14.84C16.136 30.24 17.112 30.064 17.768 29.712C18.424 29.36 18.752 28.704 18.752 27.744C18.752 27.28 18.664 26.896 18.488 26.592C18.328 26.288 18.088 26.048 17.768 25.872C17.464 25.68 17.088 25.552 16.64 25.488C16.192 25.408 15.696 25.368 15.152 25.368ZM29.1093 35.952C29.2853 35.968 29.4853 35.984 29.7093 36C29.9493 36 30.2293 36 30.5493 36C32.4213 36 33.8053 35.528 34.7013 34.584C35.6133 33.64 36.0693 32.336 36.0693 30.672C36.0693 28.928 35.6373 27.608 34.7733 26.712C33.9093 25.816 32.5413 25.368 30.6693 25.368C30.4133 25.368 30.1493 25.376 29.8773 25.392C29.6053 25.392 29.3493 25.408 29.1093 25.44V35.952ZM39.9333 30.672C39.9333 32.112 39.7093 33.368 39.2613 34.44C38.8133 35.512 38.1733 36.4 37.3413 37.104C36.5253 37.808 35.5253 38.336 34.3413 38.688C33.1573 39.04 31.8293 39.216 30.3573 39.216C29.6853 39.216 28.9013 39.184 28.0053 39.12C27.1093 39.072 26.2293 38.96 25.3653 38.784V22.584C26.2293 22.424 27.1253 22.32 28.0533 22.272C28.9973 22.208 29.8053 22.176 30.4773 22.176C31.9013 22.176 33.1893 22.336 34.3413 22.656C35.5093 22.976 36.5093 23.48 37.3413 24.168C38.1733 24.856 38.8133 25.736 39.2613 26.808C39.7093 27.88 39.9333 29.168 39.9333 30.672ZM43.0606 39V22.368H54.1966V25.512H46.8046V28.992H53.3806V32.136H46.8046V39H43.0606Z" fill="white"/>
</svg>
