<svg width="40" height="40" viewBox="0 0 40 40" fill="none" xmlns="http://www.w3.org/2000/svg">
<path d="M9.9987 31.6667C9.9987 33.5 11.4987 35 13.332 35H26.6654C28.4987 35 29.9987 33.5 29.9987 31.6667V15C29.9987 13.1667 28.4987 11.6667 26.6654 11.6667H13.332C11.4987 11.6667 9.9987 13.1667 9.9987 15V31.6667ZM15.282 18.6167C15.4362 18.4622 15.6194 18.3396 15.821 18.2559C16.0226 18.1723 16.2388 18.1293 16.457 18.1293C16.6753 18.1293 16.8915 18.1723 17.0931 18.2559C17.2947 18.3396 17.4778 18.4622 17.632 18.6167L19.9987 20.9833L22.3654 18.6167C22.5197 18.4624 22.7029 18.34 22.9045 18.2565C23.1061 18.1729 23.3221 18.13 23.5404 18.13C23.7586 18.13 23.9747 18.1729 24.1763 18.2565C24.3779 18.34 24.5611 18.4624 24.7154 18.6167C24.8697 18.771 24.9921 18.9542 25.0756 19.1558C25.1591 19.3574 25.2021 19.5734 25.2021 19.7917C25.2021 20.0099 25.1591 20.226 25.0756 20.4276C24.9921 20.6292 24.8697 20.8124 24.7154 20.9667L22.3487 23.3333L24.7154 25.7C24.8697 25.8543 24.9921 26.0375 25.0756 26.2391C25.1591 26.4407 25.2021 26.6568 25.2021 26.875C25.2021 27.0932 25.1591 27.3093 25.0756 27.5109C24.9921 27.7125 24.8697 27.8957 24.7154 28.05C24.5611 28.2043 24.3779 28.3267 24.1763 28.4102C23.9747 28.4937 23.7586 28.5367 23.5404 28.5367C23.3221 28.5367 23.1061 28.4937 22.9045 28.4102C22.7029 28.3267 22.5197 28.2043 22.3654 28.05L19.9987 25.6833L17.632 28.05C17.4777 28.2043 17.2945 28.3267 17.0929 28.4102C16.8913 28.4937 16.6753 28.5367 16.457 28.5367C16.2388 28.5367 16.0227 28.4937 15.8211 28.4102C15.6195 28.3267 15.4363 28.2043 15.282 28.05C15.1277 27.8957 15.0053 27.7125 14.9218 27.5109C14.8383 27.3093 14.7953 27.0932 14.7953 26.875C14.7953 26.6568 14.8383 26.4407 14.9218 26.2391C15.0053 26.0375 15.1277 25.8543 15.282 25.7L17.6487 23.3333L15.282 20.9667C15.1275 20.8125 15.0049 20.6293 14.9213 20.4277C14.8377 20.2261 14.7946 20.0099 14.7946 19.7917C14.7946 19.5734 14.8377 19.3572 14.9213 19.1556C15.0049 18.954 15.1275 18.7709 15.282 18.6167ZM25.832 6.66667L24.6487 5.48333C24.3487 5.18333 23.9154 5 23.482 5H16.5154C16.082 5 15.6487 5.18333 15.3487 5.48333L14.1654 6.66667H9.9987C9.08203 6.66667 8.33203 7.41667 8.33203 8.33333C8.33203 9.25 9.08203 10 9.9987 10H29.9987C30.9154 10 31.6654 9.25 31.6654 8.33333C31.6654 7.41667 30.9154 6.66667 29.9987 6.66667H25.832Z" fill="#EB5757"/>
</svg>
