<svg width="29" height="29" viewBox="0 0 29 29" fill="none" xmlns="http://www.w3.org/2000/svg">
<rect width="29" height="29" fill="#2E2E2E"/>
<g clip-path="url(#clip0)">
<path d="M17 22C16.994 22.2663 17.0412 22.5312 17.139 22.779C17.2367 23.0269 17.383 23.2527 17.5692 23.4432C17.7554 23.6337 17.9778 23.7851 18.2233 23.8885C18.4689 23.9919 18.7326 24.0451 18.999 24.0452C19.2654 24.0453 19.5291 23.9921 19.7747 23.8889C20.0203 23.7856 20.2428 23.6343 20.4291 23.4439C20.6154 23.2535 20.7618 23.0277 20.8596 22.78C20.9575 22.5322 21.0049 22.2673 20.999 22.001C20.9874 21.4784 20.7718 20.9812 20.3982 20.6156C20.0245 20.2501 19.5227 20.0453 19 20.0452C18.4773 20.0451 17.9753 20.2496 17.6015 20.6149C17.2277 20.9803 17.0118 21.4774 17 22ZM7 22C7 22.5304 7.21071 23.0391 7.58579 23.4142C7.96086 23.7893 8.46957 24 9 24C9.53043 24 10.0391 23.7893 10.4142 23.4142C10.7893 23.0391 11 22.5304 11 22C11 21.4696 10.7893 20.9609 10.4142 20.5858C10.0391 20.2107 9.53043 20 9 20C8.46957 20 7.96086 20.2107 7.58579 20.5858C7.21071 20.9609 7 21.4696 7 22ZM10.547 17.172L21.615 14.01C21.7232 13.9739 21.818 13.9058 21.8867 13.8148C21.9554 13.7237 21.9949 13.614 22 13.5V8H8V6.4C8 6.18 7.819 6 7.601 6H4.399C4.29317 6.00053 4.19184 6.04287 4.11709 6.1178C4.04235 6.19273 4.00026 6.29417 4 6.4V8H6L7.91 16.957L8 17.9V19.549C8 19.768 8.18 19.949 8.4 19.949H21.6C21.82 19.949 22 19.767 22 19.549V18H10.752C9.602 18 9.578 17.449 10.547 17.172Z" fill="white"/>
</g>
<defs>
<clipPath id="clip0">
<rect width="20" height="20" fill="white" transform="translate(4 5)"/>
</clipPath>
</defs>
</svg>
