<svg width="26" height="14" viewBox="0 0 26 14" xmlns="http://www.w3.org/2000/svg">
<path d="M13 0C4.94945 0 0 7 0 7C0 7 4.94945 14 13 14C21.0505 14 26 7 26 7C26 7 21.0505 0 13 0ZM13 11.6667C8.34009 11.6667 4.81473 8.76867 3.09636 7C4.32545 5.73417 6.47991 3.90017 9.30682 2.95167C8.64159 3.76895 8.27702 4.78491 8.27273 5.83333C8.27273 8.41167 10.3882 10.5 13 10.5C15.6118 10.5 17.7273 8.41167 17.7273 5.83333C17.7273 4.74017 17.3314 3.7485 16.6932 2.95167C19.5213 3.90017 21.6757 5.73533 22.9025 7C21.1817 8.771 17.6575 11.6667 12.9988 11.6667H13Z"/>
</svg>
