<?xml version="1.0" encoding="utf-8"?><svg viewBox="0 0 32 32" xmlns="http://www.w3.org/2000/svg" xmlns:xlink="http://www.w3.org/1999/xlink"><style>:root>svg{display:none}:root>svg:target{display:block}</style><svg fill="none" viewBox="0 0 29 29" id="icon-card" xmlns="http://www.w3.org/2000/svg"><path fill="#2E2E2E" d="M0 0h29v29H0z"/><g clip-path="url(#aclip0)"><path d="M17 22a2 2 0 103.998.09A2 2 0 0017 22zM7 22a2 2 0 104 0 2 2 0 00-4 0zm3.547-4.828l11.068-3.162A.564.564 0 0022 13.5V8H8V6.4c0-.22-.181-.4-.399-.4H4.399A.401.401 0 004 6.4V8h2l1.91 8.957.09.943v1.649c0 .219.18.4.4.4h13.2c.22 0 .4-.182.4-.4V18H10.752c-1.15 0-1.174-.551-.205-.828z" fill="#fff"/></g><defs><clipPath id="aclip0"><path fill="#fff" transform="translate(4 5)" d="M0 0h20v20H0z"/></clipPath></defs></svg><svg fill="none" viewBox="0 0 21 21" id="icon-close" xmlns="http://www.w3.org/2000/svg"><path d="M13.734 10.521L21 17.787l-3.234 3.234-7.266-7.266-7.266 7.266L0 17.787l7.266-7.266L0 3.255 3.234.021 10.5 7.287 17.766.021 21 3.255l-7.266 7.266z" fill="#fff"/></svg><svg fill="none" viewBox="0 0 32 32" id="icon-fb" xmlns="http://www.w3.org/2000/svg"><path d="M32 16.097C32 7.205 24.839 0 16 0S0 7.205 0 16.097C0 24.132 5.851 30.791 13.5 32V20.75H9.435v-4.653H13.5v-3.546c0-4.034 2.387-6.263 6.043-6.263 1.751 0 3.582.315 3.582.315v3.959h-2.018c-1.987 0-2.607 1.241-2.607 2.514v3.021h4.437l-.71 4.654H18.5V32C26.149 30.791 32 24.132 32 16.097z" fill="#fff"/></svg><svg fill="none" viewBox="0 0 18 18" id="icon-home" xmlns="http://www.w3.org/2000/svg"><path d="M17.767 9.292L9.667.285c-.34-.38-.996-.38-1.337 0L.231 9.292A.9.9 0 00.9 10.795h1.8v6.304a.901.901 0 00.9.901h2.7a.9.9 0 00.9-.9v-3.603h3.599v3.602a.9.9 0 00.9.901h2.7a.9.9 0 00.9-.9v-6.305h1.8a.898.898 0 00.668-1.503z" fill="#2E2E2E"/></svg><svg fill="none" viewBox="0 0 32 32" id="icon-inst" xmlns="http://www.w3.org/2000/svg"><rect width="32" height="32" rx="16" fill="#fff"/><path fill="#fff" d="M5.334 5.333h21.333v21.333H5.334z"/><path d="M19.585 8h-7.17A4.42 4.42 0 008 12.416v7.169A4.42 4.42 0 0012.416 24h7.169A4.42 4.42 0 0024 19.585v-7.17A4.42 4.42 0 0019.585 8zm2.996 11.585a3 3 0 01-2.996 2.996h-7.17a2.999 2.999 0 01-2.995-2.996v-7.17a3 3 0 012.996-2.995h7.169a3 3 0 012.996 2.996v7.169z" fill="#00C25A"/><path d="M16 12c-2.205 0-4 1.795-4 4 0 2.206 1.795 4 4 4 2.206 0 4-1.794 4-4 0-2.205-1.794-4-4-4zm0 6.623A2.626 2.626 0 0113.378 16 2.626 2.626 0 0116 13.377 2.626 2.626 0 0118.623 16 2.626 2.626 0 0116 18.623z" fill="#00C25A"/><path d="M20 10.667A1.338 1.338 0 0018.667 12c0 .35.143.695.392.943.247.248.591.39.941.39.352 0 .695-.142.944-.39.248-.248.39-.592.39-.943s-.142-.695-.39-.943a1.34 1.34 0 00-.944-.39z" fill="#00C25A"/></svg><svg fill="none" viewBox="0 0 32 32" id="icon-ok" xmlns="http://www.w3.org/2000/svg"><circle cx="16" cy="16" r="16" fill="#fff"/><path d="M15.519 19.678c-1.396-.145-2.654-.489-3.731-1.331-.134-.105-.272-.206-.394-.323-.471-.453-.519-.972-.146-1.506.32-.457.855-.58 1.412-.317.108.05.21.114.31.183 2.007 1.379 4.765 1.417 6.78.062.2-.154.413-.278.66-.342.481-.123.93.053 1.188.474.294.48.29.95-.073 1.323-.557.572-1.227.985-1.972 1.274-.704.273-1.475.41-2.238.502.115.125.169.187.241.26 1.037 1.04 2.078 2.078 3.11 3.122.353.356.426.797.232 1.211-.212.453-.686.75-1.151.719-.295-.02-.524-.167-.729-.373-.782-.787-1.579-1.56-2.345-2.362-.223-.233-.33-.189-.527.014-.787.81-1.587 1.607-2.391 2.4-.361.357-.791.42-1.21.217-.445-.216-.729-.67-.707-1.127.015-.309.167-.545.38-.756 1.025-1.025 2.048-2.052 3.071-3.078.068-.068.131-.14.23-.245z" fill="#00C25A"/><path d="M16.369 16.111c-2.49-.009-4.53-2.072-4.516-4.566A4.563 4.563 0 0116.423 7c2.52.007 4.541 2.068 4.529 4.615-.013 2.488-2.069 4.505-4.583 4.496zm2.262-4.56a2.219 2.219 0 00-2.226-2.224 2.222 2.222 0 00-2.23 2.251 2.219 2.219 0 002.242 2.208 2.214 2.214 0 002.214-2.235z" fill="#00C25A"/></svg><svg fill="none" viewBox="0 0 29 29" id="icon-profile" xmlns="http://www.w3.org/2000/svg"><path fill="#2E2E2E" d="M0 0h29v29H0z"/><path d="M10.563 8.688a3.942 3.942 0 003.937 3.937 3.942 3.942 0 003.938-3.938A3.942 3.942 0 0014.5 4.75a3.942 3.942 0 00-3.938 3.938zM21.5 21.374h.875V20.5a6.133 6.133 0 00-6.125-6.125h-3.5A6.132 6.132 0 006.625 20.5v.875H21.5z" fill="#fff"/></svg><svg fill="none" viewBox="0 0 24 24" id="icon-search" xmlns="http://www.w3.org/2000/svg"><path d="M23.632 21.591l-5.44-5.44a10.05 10.05 0 002.014-6.048C20.206 4.533 15.674 0 10.103 0 4.533 0 0 4.532 0 10.103c0 5.57 4.532 10.103 10.103 10.103a10.05 10.05 0 006.047-2.014l5.441 5.44a1.446 1.446 0 002.041-2.041zM2.887 10.103a7.216 7.216 0 117.216 7.217 7.225 7.225 0 01-7.216-7.217z" fill="#2E2E2E"/></svg><svg fill="none" viewBox="0 0 18 12" id="icon-top-menu" xmlns="http://www.w3.org/2000/svg"><path d="M1 12h11c.55 0 1-.45 1-1s-.45-1-1-1H1c-.55 0-1 .45-1 1s.45 1 1 1zm0-5h8c.55 0 1-.45 1-1s-.45-1-1-1H1c-.55 0-1 .45-1 1s.45 1 1 1zM0 1c0 .55.45 1 1 1h11c.55 0 1-.45 1-1s-.45-1-1-1H1C.45 0 0 .45 0 1zm17.3 7.88L14.42 6l2.88-2.88a.997.997 0 10-1.41-1.41L12.3 5.3a.995.995 0 000 1.41l3.59 3.59c.39.39 1.02.39 1.41 0 .38-.39.39-1.03 0-1.42z" fill="#333"/></svg><svg fill="none" viewBox="0 0 32 32" id="icon-vk" xmlns="http://www.w3.org/2000/svg"><path d="M16 0C7.163 0 0 7.163 0 16s7.163 16 16 16 16-7.163 16-16S24.837 0 16 0zm6.153 18.052s1.415 1.396 1.764 2.045c.01.013.015.026.018.033.142.238.175.423.105.562-.117.23-.517.343-.653.353h-2.5c-.174 0-.537-.045-.977-.348-.338-.237-.672-.625-.997-1.004-.485-.563-.905-1.05-1.328-1.05a.51.51 0 00-.158.025c-.32.104-.73.56-.73 1.777 0 .38-.3.598-.512.598H15.04c-.39 0-2.422-.136-4.222-2.035-2.203-2.325-4.186-6.988-4.203-7.031-.125-.302.133-.464.415-.464h2.525c.337 0 .447.205.523.387.09.212.42 1.053.962 2 .878 1.543 1.417 2.17 1.848 2.17a.5.5 0 00.232-.06c.563-.313.458-2.322.433-2.738 0-.079-.001-.899-.29-1.292-.206-.285-.558-.393-.771-.433.086-.12.2-.216.331-.282.387-.193 1.084-.222 1.775-.222h.385c.75.01.944.059 1.215.127.55.132.562.487.514 1.702-.015.345-.03.735-.03 1.195 0 .1-.005.206-.005.32-.017.618-.037 1.32.4 1.608a.36.36 0 00.19.055c.151 0 .608 0 1.845-2.122.381-.683.713-1.392.991-2.123.025-.043.099-.177.185-.228a.444.444 0 01.207-.049h2.968c.324 0 .545.049.587.174.073.198-.013.803-1.368 2.638l-.605.798c-1.229 1.61-1.229 1.692.076 2.914z" fill="#fff"/></svg></svg>