<?xml version="1.0" encoding="utf-8"?><svg viewBox="0 0 512 512" xmlns="http://www.w3.org/2000/svg" xmlns:xlink="http://www.w3.org/1999/xlink"><style>:root>svg{display:none}:root>svg:target{display:block}</style><svg fill="none" viewBox="0 0 30 30" id="icon-add-card" xmlns="http://www.w3.org/2000/svg"><path d="M3.75 6.563a.937.937 0 100 1.875h2.081l2.46 9.843a1.86 1.86 0 001.816 1.407h11.69c.847 0 1.566-.563 1.789-1.379l2.43-8.934h-1.963l-2.256 8.438h-11.69l-2.46-9.844a1.86 1.86 0 00-1.816-1.406H3.75zm16.875 13.125a2.827 2.827 0 00-2.813 2.812 2.827 2.827 0 002.813 2.813 2.827 2.827 0 002.813-2.813 2.827 2.827 0 00-2.813-2.813zm-8.438 0A2.827 2.827 0 009.376 22.5a2.827 2.827 0 002.813 2.813A2.827 2.827 0 0015 22.5a2.827 2.827 0 00-2.813-2.813zM15 6.563v4.687h-2.813l3.75 3.75 3.75-3.75h-2.812V6.563H15zm-2.813 15c.53 0 .938.408.938.937a.924.924 0 01-.938.938.924.924 0 01-.937-.938c0-.529.409-.938.938-.938zm8.438 0c.529 0 .938.408.938.937a.924.924 0 01-.938.938.924.924 0 01-.938-.938c0-.529.41-.938.938-.938z" fill="#fff"/></svg><svg fill="none" viewBox="0 0 10 6" id="icon-arrow" xmlns="http://www.w3.org/2000/svg"><path d="M9 5L5 1 1 5" stroke="#333" stroke-width="2" stroke-linecap="round" stroke-linejoin="round"/></svg><svg fill="none" viewBox="0 0 10 6" id="icon-arrow-bottom" xmlns="http://www.w3.org/2000/svg"><path d="M1 1l4 4 4-4" stroke="#828282" stroke-width="2" stroke-linecap="round" stroke-linejoin="round"/></svg><svg fill="none" viewBox="0 0 10 6" id="icon-arrow-top" xmlns="http://www.w3.org/2000/svg"><path d="M9 5L5 1 1 5" stroke="#828282" stroke-width="2" stroke-linecap="round" stroke-linejoin="round"/></svg><svg fill="none" viewBox="0 0 71 12" id="icon-back" xmlns="http://www.w3.org/2000/svg"><path d="M.47 5.47a.75.75 0 000 1.06l4.773 4.773a.75.75 0 101.06-1.06L2.061 6l4.242-4.243a.75.75 0 00-1.06-1.06L.47 5.47zM71 5.25H1v1.5h70v-1.5z" fill="#2E2E2E"/></svg><svg fill="none" viewBox="0 0 6 10" id="icon-breadcrumb-arrow" xmlns="http://www.w3.org/2000/svg"><path d="M1 9l4-4-4-4" stroke="#333" stroke-width="2" stroke-linecap="round" stroke-linejoin="round"/></svg><svg fill="none" viewBox="0 0 40 40" id="icon-call" xmlns="http://www.w3.org/2000/svg"><path d="M27.611 36.665h.047c.88 0 1.711-.347 2.341-.977l4.52-4.52a1.664 1.664 0 000-2.356l-6.666-6.667a1.666 1.666 0 00-2.357 0l-2.657 2.657c-1.231-.367-3.53-1.2-4.986-2.657-1.457-1.457-2.29-3.755-2.657-4.987l2.657-2.656a1.664 1.664 0 000-2.357l-6.667-6.667a1.717 1.717 0 00-2.357 0l-4.518 4.52a3.33 3.33 0 00-.977 2.392c.039 2.373.667 10.617 7.164 17.113 6.496 6.497 14.74 7.124 17.113 7.162zM10.009 9.013l4.31 4.31-2.155 2.155a1.66 1.66 0 00-.451 1.52c.04.192 1.018 4.737 3.785 7.504 2.766 2.766 7.311 3.745 7.503 3.785a1.657 1.657 0 001.52-.452l2.155-2.155 4.31 4.31-3.343 3.342c-2.08-.035-9.197-.594-14.789-6.187-5.61-5.61-6.153-12.752-6.186-14.79l3.341-3.342zm23.324 9.319h3.333c0-8.55-6.455-14.999-15.017-14.999v3.334c6.77 0 11.684 4.905 11.684 11.665z" fill="#00C25A"/><path d="M21.664 13.333c3.505 0 5 1.495 5 5h3.333c0-5.375-2.958-8.333-8.333-8.333v3.333z" fill="#00C25A"/></svg><svg fill="none" viewBox="0 0 40 40" id="icon-camera" xmlns="http://www.w3.org/2000/svg"><path d="M20 16a6 6 0 100 12 6 6 0 000-12zm16-6h-4.8c-.66 0-1.371-.512-1.58-1.138l-1.24-3.724C28.17 4.512 27.46 4 26.8 4H13.2c-.66 0-1.371.512-1.58 1.138l-1.24 3.724C10.17 9.488 9.46 10 8.8 10H4c-2.2 0-4 1.8-4 4v18c0 2.2 1.8 4 4 4h32c2.2 0 4-1.8 4-4V14c0-2.2-1.8-4-4-4zM20 32c-5.523 0-10-4.477-10-10 0-5.522 4.477-10 10-10 5.522 0 10 4.478 10 10 0 5.523-4.478 10-10 10zm14.6-15.203a1.4 1.4 0 110-2.8 1.4 1.4 0 010 2.8z" fill="#00C25A"/><path stroke="#fff" stroke-width="2" d="M20 18v8M16 22h8"/></svg><svg fill="none" viewBox="0 0 29 29" id="icon-card" xmlns="http://www.w3.org/2000/svg"><path fill="#2E2E2E" d="M0 0h29v29H0z"/><g clip-path="url(#aiclip0)"><path d="M17 22a2 2 0 103.998.09A2 2 0 0017 22zM7 22a2 2 0 104 0 2 2 0 00-4 0zm3.547-4.828l11.068-3.162A.564.564 0 0022 13.5V8H8V6.4c0-.22-.181-.4-.399-.4H4.399A.401.401 0 004 6.4V8h2l1.91 8.957.09.943v1.649c0 .219.18.4.4.4h13.2c.22 0 .4-.182.4-.4V18H10.752c-1.15 0-1.174-.551-.205-.828z" fill="#fff"/></g><defs><clipPath id="aiclip0"><path fill="#fff" transform="translate(4 5)" d="M0 0h20v20H0z"/></clipPath></defs></svg><svg fill="none" viewBox="0 0 30 30" id="icon-card-2" xmlns="http://www.w3.org/2000/svg"><path d="M3.75 6.563a.937.937 0 100 1.875h2.081l2.46 9.843a1.86 1.86 0 001.816 1.407h11.69c.847 0 1.566-.563 1.789-1.379l2.43-8.934h-1.963l-2.256 8.438h-11.69l-2.46-9.844a1.86 1.86 0 00-1.816-1.406H3.75zm16.875 13.125a2.827 2.827 0 00-2.813 2.812 2.827 2.827 0 002.813 2.813 2.827 2.827 0 002.813-2.813 2.827 2.827 0 00-2.813-2.813zm-8.438 0A2.827 2.827 0 009.376 22.5a2.827 2.827 0 002.813 2.813A2.827 2.827 0 0015 22.5a2.827 2.827 0 00-2.813-2.813zM15 6.563v4.687h-2.813l3.75 3.75 3.75-3.75h-2.812V6.563H15zm-2.813 15c.53 0 .938.408.938.937a.924.924 0 01-.938.938.924.924 0 01-.937-.938c0-.529.409-.938.938-.938zm8.438 0c.529 0 .938.408.938.937a.924.924 0 01-.938.938.924.924 0 01-.938-.938c0-.529.41-.938.938-.938z" fill="#fff"/></svg><svg fill="none" viewBox="0 0 9 7" id="icon-check" xmlns="http://www.w3.org/2000/svg"><path d="M1 3l3 3 4-5" stroke="#fff" stroke-width="2" stroke-linecap="round" stroke-linejoin="round"/></svg><svg viewBox="0 0 40 40" id="icon-check-card" xmlns="http://www.w3.org/2000/svg"><path d="M33.332 6.666H6.665a3.333 3.333 0 00-3.333 3.333v20a3.334 3.334 0 003.333 3.334h26.667a3.334 3.334 0 003.333-3.334V10a3.333 3.333 0 00-3.333-3.333zm0 3.333v3.334H6.665V9.999h26.667zM6.665 30V20h26.667v10H6.665zM10 23.333h11.666v3.333H10v-3.333zm15 0h5v3.333h-5v-3.333z"/></svg><svg fill="none" viewBox="0 0 9 7" id="icon-check-light" xmlns="http://www.w3.org/2000/svg"><path d="M1 3l3 3 4-5" stroke="#fff" stroke-width="2" stroke-linecap="round" stroke-linejoin="round"/></svg><svg viewBox="0 0 47 47" id="icon-check-paper" xmlns="http://www.w3.org/2000/svg"><path d="M39.933 0H7.066c-.88 0-1.593.713-1.593 1.593v34.05c0 .423.168.828.466 1.127l9.767 9.763c.299.3.704.467 1.126.467h23.101c.88 0 1.593-.714 1.593-1.593V1.593c0-.88-.713-1.593-1.593-1.593zm-29.02 37.236h4.326v4.325l-4.326-4.325zm27.427 6.578H18.425v-8.171c0-.88-.713-1.593-1.593-1.593H8.66V3.186H38.34v40.628z"/><path d="M12.542 11.4h13.695a1.593 1.593 0 000-3.185H12.542a1.593 1.593 0 100 3.186zM31.718 11.4h2.74a1.593 1.593 0 100-3.185h-2.74a1.593 1.593 0 100 3.186zM12.542 19.616h13.695a1.593 1.593 0 000-3.186H12.542a1.593 1.593 0 100 3.186zM31.718 19.616h2.74a1.593 1.593 0 000-3.186h-2.74a1.593 1.593 0 100 3.186zM12.542 27.83h13.695a1.593 1.593 0 000-3.185H12.542a1.593 1.593 0 000 3.186zM31.718 27.83h2.74a1.593 1.593 0 100-3.185h-2.74a1.593 1.593 0 000 3.186zM28.976 36.045h5.478a1.593 1.593 0 100-3.186h-5.478a1.593 1.593 0 100 3.186z"/></svg><svg viewBox="0 0 40 40" id="icon-check-shipping" xmlns="http://www.w3.org/2000/svg"><path d="M39.056 9.996l-10.124-8.01a2.493 2.493 0 00-2.63-.289 2.492 2.492 0 00-1.406 2.242V6.91h-8.452a2.49 2.49 0 00-2.292 1.519h-6.65L6.87 5.309.564 4.257 0 7.64l3.977.662 4.22 20.357-1.853 5.89h2.562c-.145.35-.227.737-.227 1.142 0 1.579 1.203 2.859 2.687 2.859 1.484 0 2.686-1.28 2.686-2.858 0-.406-.082-.793-.225-1.142h14.166c-.144.35-.225.736-.225 1.142 0 1.578 1.202 2.858 2.686 2.858 1.482 0 2.685-1.28 2.685-2.858 0-.406-.081-.793-.225-1.142h2.271v-3.427h-24.17l.348-1.1 24.01-10.048v-3.158l3.683-2.914a2.49 2.49 0 000-3.906zm-11.637 9.912v-5.462H16.477V9.35H27.42V3.888l10.123 8.01-10.123 8.01z"/></svg><svg viewBox="0 0 40 40" id="icon-check-shipping-2" xmlns="http://www.w3.org/2000/svg"><path d="M5.001 6.666a3.333 3.333 0 00-3.333 3.333v18.334h3.333a5 5 0 0010 0h10a5 5 0 0010 0h3.334v-8.334l-5-6.666h-5V6.666H5zm11.667 3.333l6.667 6.667-6.667 6.667v-5h-10v-3.334h10v-5zm11.667 5.834H32.5l3.284 4.166h-7.45v-4.166zM10 25.833a2.5 2.5 0 110 5 2.5 2.5 0 010-5zm20 0a2.5 2.5 0 110 5 2.5 2.5 0 010-5z"/></svg><svg fill="none" viewBox="0 0 40 40" id="icon-clock" xmlns="http://www.w3.org/2000/svg"><path d="M20 3.333C10.81 3.333 3.335 10.81 3.335 20c0 9.19 7.477 16.667 16.667 16.667 9.19 0 16.666-7.477 16.666-16.667 0-9.19-7.476-16.667-16.666-16.667zm0 30C12.65 33.333 6.668 27.352 6.668 20S12.65 6.667 20.001 6.667c7.351 0 13.333 5.981 13.333 13.333s-5.982 13.333-13.333 13.333z" fill="#00C25A"/><path d="M21.667 11.667h-3.333v9.023l5.488 5.488 2.357-2.356-4.512-4.512v-7.643z" fill="#00C25A"/></svg><svg fill="none" viewBox="0 0 21 21" id="icon-close" xmlns="http://www.w3.org/2000/svg"><path d="M13.734 10.521L21 17.787l-3.234 3.234-7.266-7.266-7.266 7.266L0 17.787l7.266-7.266L0 3.255 3.234.021 10.5 7.287 17.766.021 21 3.255l-7.266 7.266z" fill="#fff"/></svg><svg fill="none" viewBox="0 0 10 10" id="icon-close-filter" xmlns="http://www.w3.org/2000/svg"><path d="M9 9L5 5 1 9M1 1l4 4 4-4" stroke="#BDBDBD" stroke-width="2" stroke-linecap="round" stroke-linejoin="round"/></svg><svg fill="none" viewBox="0 0 32 32" id="icon-fb" xmlns="http://www.w3.org/2000/svg"><path d="M32 16.097C32 7.205 24.839 0 16 0S0 7.205 0 16.097C0 24.132 5.851 30.791 13.5 32V20.75H9.435v-4.653H13.5v-3.546c0-4.034 2.387-6.263 6.043-6.263 1.751 0 3.582.315 3.582.315v3.959h-2.018c-1.987 0-2.607 1.241-2.607 2.514v3.021h4.437l-.71 4.654H18.5V32C26.149 30.791 32 24.132 32 16.097z" fill="#fff"/></svg><svg fill="none" viewBox="0 0 32 32" id="icon-fb-green" xmlns="http://www.w3.org/2000/svg"><path d="M32 16.097C32 7.205 24.839 0 16 0S0 7.205 0 16.097C0 24.132 5.851 30.791 13.5 32V20.75H9.435v-4.653H13.5v-3.546c0-4.034 2.387-6.263 6.043-6.263 1.751 0 3.582.315 3.582.315v3.959h-2.018c-1.987 0-2.607 1.241-2.607 2.514v3.021h4.437l-.71 4.654H18.5V32C26.149 30.791 32 24.132 32 16.097z" fill="#00C25A"/></svg><svg fill="none" viewBox="0 0 19 20" id="icon-footer-cart" xmlns="http://www.w3.org/2000/svg"><path d="M13.394 17.264a2.03 2.03 0 001.248 1.92 2.045 2.045 0 002.248-.451 2.034 2.034 0 00.582-1.468 2.032 2.032 0 00-.613-1.409 2.041 2.041 0 00-3.465 1.408zm-10.195 0c0 .54.215 1.057.597 1.439a2.042 2.042 0 003.481-1.439c0-.54-.215-1.057-.597-1.438a2.042 2.042 0 00-3.481 1.438zm3.616-4.91L18.1 9.138a.575.575 0 00.392-.518V3.026H4.218V1.4a.409.409 0 00-.406-.407H.547A.41.41 0 00.14 1.4v1.627h2.04l1.947 9.11.091.959v1.676a.41.41 0 00.408.407h13.458a.41.41 0 00.408-.407v-1.575H7.024c-1.172 0-1.197-.56-.209-.842z" fill="#BDBDBD"/></svg><svg fill="none" viewBox="0 0 15 21" id="icon-footer-catalog" xmlns="http://www.w3.org/2000/svg"><path d="M5.496 18.6v2.067H3.43V18.6H.33V0h11.366a3.1 3.1 0 013.1 3.1v12.4a3.1 3.1 0 01-3.1 3.1h-6.2zM3.43 2.067H2.396v14.466H3.43V2.067zm2.066 0v14.466h6.2A1.033 1.033 0 0012.73 15.5V3.1a1.033 1.033 0 00-1.034-1.033h-6.2zM6.53 4.133h5.166V6.2H6.53V4.133zm0 3.1h5.166V9.3H6.53V7.233z" fill="#BDBDBD"/></svg><svg fill="none" viewBox="0 0 21 20" id="icon-footer-favorites" xmlns="http://www.w3.org/2000/svg"><path d="M19.788 7.663a.984.984 0 01.32.455 1.004 1.004 0 01-.31 1.005l-3.988 3.94.965 5.596c.035.184.017.375-.052.55a.983.983 0 01-.334.435.953.953 0 01-.57.187.884.884 0 01-.444-.118l-4.926-2.63-4.926 2.63a.95.95 0 01-1.047-.064.983.983 0 01-.332-.444 1.003 1.003 0 01-.041-.556l.966-5.596-3.99-3.94a.99.99 0 01-.24-.985.986.986 0 01.297-.449.957.957 0 01.485-.22l5.496-.828L9.58 1.548a.979.979 0 01.356-.405.952.952 0 011.026 0 .978.978 0 01.356.405l2.463 5.093 5.496.817a.955.955 0 01.511.205z" fill="#BDBDBD"/></svg><svg fill="none" viewBox="0 0 22 18" id="icon-footer-home" xmlns="http://www.w3.org/2000/svg"><path d="M10.382 5.262l-6.827 5.59v6.033a.587.587 0 00.593.59l4.149-.012a.594.594 0 00.59-.588V13.35a.587.587 0 01.592-.589h2.37a.594.594 0 01.592.59v3.52a.586.586 0 00.365.546c.072.03.15.045.228.045l4.147.011a.594.594 0 00.593-.589v-6.037l-6.825-5.586a.453.453 0 00-.567 0zm10.784 3.8L18.07 6.524v-5.1a.44.44 0 00-.444-.441h-2.074a.446.446 0 00-.444.442v2.673l-3.315-2.712a1.784 1.784 0 00-2.259 0L.161 9.061a.442.442 0 00-.059.623l.944 1.14a.443.443 0 00.473.143.445.445 0 00.153-.082l8.71-7.132a.453.453 0 01.567 0l8.71 7.132a.444.444 0 00.625-.06l.945-1.14a.441.441 0 00-.063-.624z" fill="#BDBDBD"/></svg><svg fill="none" viewBox="0 0 18 19" id="icon-footer-profile" xmlns="http://www.w3.org/2000/svg"><path d="M4.5 4.5C4.5 6.981 6.519 9 9 9s4.5-2.019 4.5-4.5S11.481 0 9 0a4.505 4.505 0 00-4.5 4.5zM17 19h1v-1c0-3.859-3.141-7-7-7H7c-3.86 0-7 3.141-7 7v1h17z" fill="#BDBDBD"/></svg><svg fill="none" viewBox="0 0 18 18" id="icon-home" xmlns="http://www.w3.org/2000/svg"><path d="M17.767 9.292L9.667.285c-.34-.38-.996-.38-1.337 0L.231 9.292A.9.9 0 00.9 10.795h1.8v6.304a.901.901 0 00.9.901h2.7a.9.9 0 00.9-.9v-3.603h3.599v3.602a.9.9 0 00.9.901h2.7a.9.9 0 00.9-.9v-6.305h1.8a.898.898 0 00.668-1.503z" fill="#2E2E2E"/></svg><svg fill="none" viewBox="0 0 32 32" id="icon-inst" xmlns="http://www.w3.org/2000/svg"><rect width="32" height="32" rx="16" fill="#fff"/><path fill="#fff" d="M5.334 5.333h21.333v21.333H5.334z"/><path d="M19.585 8h-7.17A4.42 4.42 0 008 12.416v7.169A4.42 4.42 0 0012.416 24h7.169A4.42 4.42 0 0024 19.585v-7.17A4.42 4.42 0 0019.585 8zm2.996 11.585a3 3 0 01-2.996 2.996h-7.17a2.999 2.999 0 01-2.995-2.996v-7.17a3 3 0 012.996-2.995h7.169a3 3 0 012.996 2.996v7.169z" fill="#00C25A"/><path d="M16 12c-2.205 0-4 1.795-4 4 0 2.206 1.795 4 4 4 2.206 0 4-1.794 4-4 0-2.205-1.794-4-4-4zm0 6.623A2.626 2.626 0 0113.378 16 2.626 2.626 0 0116 13.377 2.626 2.626 0 0118.623 16 2.626 2.626 0 0116 18.623z" fill="#00C25A"/><path d="M20 10.667A1.338 1.338 0 0018.667 12c0 .35.143.695.392.943.247.248.591.39.941.39.352 0 .695-.142.944-.39.248-.248.39-.592.39-.943s-.142-.695-.39-.943a1.34 1.34 0 00-.944-.39z" fill="#00C25A"/></svg><svg fill="none" viewBox="0 0 32 32" id="icon-inst-green" xmlns="http://www.w3.org/2000/svg"><rect width="32" height="32" rx="16" fill="#00C25A"/><path d="M19.584 8h-7.169A4.42 4.42 0 008 12.415v7.17A4.42 4.42 0 0012.415 24h7.17A4.42 4.42 0 0024 19.585v-7.17A4.42 4.42 0 0019.584 8zm2.997 11.585a3 3 0 01-2.996 2.995h-7.17a3 3 0 01-2.995-2.995v-7.17a3 3 0 012.995-2.995h7.17a3 3 0 012.995 2.995v7.17z" fill="#fff"/><path d="M16 12c-2.206 0-4 1.794-4 4s1.794 4 4 4 4-1.794 4-4-1.794-4-4-4zm0 6.623A2.626 2.626 0 0113.377 16 2.626 2.626 0 0116 13.377 2.626 2.626 0 0118.623 16 2.626 2.626 0 0116 18.623z" fill="#fff"/><path d="M20 10.667A1.339 1.339 0 0018.665 12c0 .35.143.695.392.943.247.247.591.39.941.39.352 0 .695-.143.943-.39a1.339 1.339 0 000-1.886 1.34 1.34 0 00-.943-.39z" fill="#fff"/></svg><svg viewBox="0 0 16 16" id="icon-list" xmlns="http://www.w3.org/2000/svg"><path d="M0 0h4v4H0V0zm0 6h4v4H0V6zm0 6h4v4H0v-4zM6 0h10v4H6zM6 6h10v4H6zM6 12h10v4H6z"/></svg><svg fill="none" viewBox="0 0 40 40" id="icon-marker" xmlns="http://www.w3.org/2000/svg"><path d="M20 23.333a6.673 6.673 0 006.667-6.666A6.673 6.673 0 0020.001 10a6.673 6.673 0 00-6.667 6.667 6.673 6.673 0 006.667 6.666zm0-10a3.337 3.337 0 013.334 3.334A3.337 3.337 0 0120.001 20a3.337 3.337 0 01-3.334-3.333 3.337 3.337 0 013.334-3.334z" fill="#00C25A"/><path d="M19.033 36.357a1.663 1.663 0 001.933 0c.507-.359 12.415-8.957 12.367-19.69C33.333 9.315 27.35 3.333 20 3.333c-7.352 0-13.334 5.982-13.334 13.325-.048 10.742 11.86 19.34 12.367 19.699zm.966-29.69c5.516 0 10 4.485 10 10.008.036 7.397-7.313 14.038-10 16.217-2.684-2.18-10.034-8.824-10-16.225 0-5.515 4.486-10 10-10z" fill="#00C25A"/></svg><svg viewBox="0 0 16 17" id="icon-masonry" xmlns="http://www.w3.org/2000/svg"><path d="M0 0h4v4.25H0V0zm6 0h4v4.25H6V0zm6 0h4v4.25h-4V0zM0 6.375h4v4.25H0v-4.25zm6 0h4v4.25H6v-4.25zm6 0h4v4.25h-4v-4.25zM0 12.75h4V17H0v-4.25zm6 0h4V17H6v-4.25zm6 0h4V17h-4v-4.25z"/></svg><svg viewBox="0 -53 384 384" id="icon-menu" xmlns="http://www.w3.org/2000/svg"><path d="M368 154.668H16c-8.832 0-16-7.168-16-16s7.168-16 16-16h352c8.832 0 16 7.168 16 16s-7.168 16-16 16zm0 0M368 32H16C7.168 32 0 24.832 0 16S7.168 0 16 0h352c8.832 0 16 7.168 16 16s-7.168 16-16 16zm0 0M368 277.332H16c-8.832 0-16-7.168-16-16s7.168-16 16-16h352c8.832 0 16 7.168 16 16s-7.168 16-16 16zm0 0"/></svg><svg fill="none" viewBox="0 0 20 1" id="icon-minus" xmlns="http://www.w3.org/2000/svg"><path fill="#2E2E2E" d="M0 0h20v1H0z"/></svg><svg viewBox="0 -53 384 384" id="icon-mob-menu" xmlns="http://www.w3.org/2000/svg"><path d="M368 154.668H16c-8.832 0-16-7.168-16-16s7.168-16 16-16h352c8.832 0 16 7.168 16 16s-7.168 16-16 16zm0 0M368 32H16C7.168 32 0 24.832 0 16S7.168 0 16 0h352c8.832 0 16 7.168 16 16s-7.168 16-16 16zm0 0M368 277.332H16c-8.832 0-16-7.168-16-16s7.168-16 16-16h352c8.832 0 16 7.168 16 16s-7.168 16-16 16zm0 0"/></svg><svg fill="none" viewBox="0 0 60 60" id="icon-ods" xmlns="http://www.w3.org/2000/svg"><path d="M60 52.5v-45A7.5 7.5 0 0052.5 0h-45A7.5 7.5 0 000 7.5v45A7.5 7.5 0 007.5 60h45a7.5 7.5 0 007.5-7.5z" fill="#E5E5E5"/><path d="M13.22 31.06c0 .68.08 1.293.24 1.84a4.59 4.59 0 00.72 1.42c.32.387.707.687 1.16.9.453.213.973.32 1.56.32.573 0 1.087-.107 1.54-.32a3.1 3.1 0 001.16-.9c.32-.4.56-.873.72-1.42.173-.547.26-1.16.26-1.84 0-.68-.087-1.293-.26-1.84-.16-.56-.4-1.033-.72-1.42a3.02 3.02 0 00-1.16-.92c-.453-.213-.967-.32-1.54-.32-.587 0-1.107.113-1.56.34-.453.213-.84.52-1.16.92-.307.387-.547.86-.72 1.42a6.467 6.467 0 00-.24 1.82zm10.58 0c0 1.187-.18 2.233-.54 3.14-.347.893-.827 1.647-1.44 2.26a6.005 6.005 0 01-2.2 1.36c-.84.307-1.747.46-2.72.46-.947 0-1.84-.153-2.68-.46a6.233 6.233 0 01-2.2-1.36c-.627-.613-1.12-1.367-1.48-2.26-.36-.907-.54-1.953-.54-3.14s.187-2.227.56-3.12c.373-.907.873-1.667 1.5-2.28a6.33 6.33 0 012.2-1.38c.84-.307 1.72-.46 2.64-.46.947 0 1.84.153 2.68.46.84.307 1.573.767 2.2 1.38.627.613 1.12 1.373 1.48 2.28.36.893.54 1.933.54 3.12zm5.72 4.4c.147.013.314.027.5.04h.7c1.56 0 2.714-.393 3.46-1.18.76-.787 1.14-1.873 1.14-3.26 0-1.453-.36-2.553-1.08-3.3-.72-.747-1.86-1.12-3.42-1.12-.213 0-.433.007-.66.02-.226 0-.44.013-.64.04v8.76zm9.02-4.4c0 1.2-.186 2.247-.56 3.14-.373.893-.906 1.633-1.6 2.22-.68.587-1.513 1.027-2.5 1.32-.986.293-2.093.44-3.32.44-.56 0-1.213-.027-1.96-.08-.746-.04-1.48-.133-2.2-.28v-13.5c.72-.133 1.467-.22 2.24-.26.787-.053 1.46-.08 2.02-.08 1.187 0 2.26.133 3.22.4.974.267 1.807.687 2.5 1.26.694.573 1.227 1.307 1.6 2.2.374.893.56 1.967.56 3.22zm6.387 4.56c.44 0 .8-.033 1.08-.1.293-.08.526-.18.7-.3.173-.133.293-.287.36-.46.066-.173.1-.367.1-.58 0-.453-.214-.827-.64-1.12-.427-.307-1.16-.633-2.2-.98-.453-.16-.907-.34-1.36-.54a5.441 5.441 0 01-1.22-.78c-.36-.32-.654-.7-.88-1.14-.227-.453-.34-1-.34-1.64 0-.64.12-1.213.36-1.72.24-.52.58-.96 1.02-1.32.44-.36.973-.633 1.6-.82.627-.2 1.333-.3 2.12-.3.933 0 1.74.1 2.42.3.68.2 1.24.42 1.68.66l-.9 2.46c-.387-.2-.82-.373-1.3-.52-.467-.16-1.034-.24-1.7-.24-.747 0-1.287.107-1.62.32-.32.2-.48.513-.48.94 0 .253.06.467.18.64s.287.333.5.48c.227.133.48.26.76.38.293.107.613.22.96.34.72.267 1.346.533 1.88.8.533.253.973.553 1.32.9.36.347.627.753.8 1.22.173.467.26 1.033.26 1.7 0 1.293-.453 2.3-1.36 3.02-.907.707-2.273 1.06-4.1 1.06-.614 0-1.167-.04-1.66-.12a10.057 10.057 0 01-1.32-.26c-.373-.107-.7-.22-.98-.34a8.01 8.01 0 01-.68-.34l.88-2.48c.413.227.92.433 1.52.62.613.173 1.36.26 2.24.26z" fill="#fff"/></svg><svg fill="none" viewBox="0 0 32 32" id="icon-ok" xmlns="http://www.w3.org/2000/svg"><circle cx="16" cy="16" r="16" fill="#fff"/><path d="M15.519 19.678c-1.396-.145-2.654-.489-3.731-1.331-.134-.105-.272-.206-.394-.323-.471-.453-.519-.972-.146-1.506.32-.457.855-.58 1.412-.317.108.05.21.114.31.183 2.007 1.379 4.765 1.417 6.78.062.2-.154.413-.278.66-.342.481-.123.93.053 1.188.474.294.48.29.95-.073 1.323-.557.572-1.227.985-1.972 1.274-.704.273-1.475.41-2.238.502.115.125.169.187.241.26 1.037 1.04 2.078 2.078 3.11 3.122.353.356.426.797.232 1.211-.212.453-.686.75-1.151.719-.295-.02-.524-.167-.729-.373-.782-.787-1.579-1.56-2.345-2.362-.223-.233-.33-.189-.527.014-.787.81-1.587 1.607-2.391 2.4-.361.357-.791.42-1.21.217-.445-.216-.729-.67-.707-1.127.015-.309.167-.545.38-.756 1.025-1.025 2.048-2.052 3.071-3.078.068-.068.131-.14.23-.245z" fill="#00C25A"/><path d="M16.369 16.111c-2.49-.009-4.53-2.072-4.516-4.566A4.563 4.563 0 0116.423 7c2.52.007 4.541 2.068 4.529 4.615-.013 2.488-2.069 4.505-4.583 4.496zm2.262-4.56a2.219 2.219 0 00-2.226-2.224 2.222 2.222 0 00-2.23 2.251 2.219 2.219 0 002.242 2.208 2.214 2.214 0 002.214-2.235z" fill="#00C25A"/></svg><svg fill="none" viewBox="0 0 32 32" id="icon-ok-green" xmlns="http://www.w3.org/2000/svg"><circle cx="16" cy="16" r="16" fill="#00C25A"/><path d="M15.518 19.678c-1.395-.145-2.653-.489-3.73-1.331-.134-.105-.272-.206-.394-.323-.472-.453-.52-.972-.146-1.506.32-.457.855-.58 1.412-.317.108.05.21.114.309.183 2.007 1.379 4.765 1.417 6.78.062.2-.154.413-.278.66-.342.482-.123.93.053 1.188.474.295.48.291.95-.072 1.323-.557.572-1.228.985-1.972 1.274-.704.273-1.476.41-2.239.502.115.125.17.187.242.26 1.036 1.04 2.077 2.078 3.11 3.122.352.356.426.797.232 1.211-.212.453-.686.75-1.151.719-.295-.02-.525-.167-.73-.373-.781-.787-1.578-1.56-2.344-2.362-.223-.233-.33-.189-.527.014-.787.81-1.587 1.607-2.392 2.4-.36.357-.79.42-1.21.217-.445-.216-.728-.67-.706-1.127.015-.309.167-.545.379-.756 1.026-1.025 2.048-2.052 3.072-3.078.068-.068.13-.14.23-.245z" fill="#fff"/><path d="M16.368 16.111c-2.49-.009-4.53-2.072-4.516-4.566A4.563 4.563 0 0116.423 7c2.519.007 4.54 2.068 4.528 4.615-.013 2.488-2.068 4.505-4.583 4.496zm2.263-4.56a2.219 2.219 0 00-2.226-2.224 2.222 2.222 0 00-2.231 2.251 2.219 2.219 0 002.242 2.208 2.214 2.214 0 002.215-2.235z" fill="#fff"/></svg><svg fill="none" viewBox="0 0 60 60" id="icon-pdf" xmlns="http://www.w3.org/2000/svg"><path d="M60 52.5v-45A7.5 7.5 0 0052.5 0h-45A7.5 7.5 0 000 7.5v45A7.5 7.5 0 007.5 60h45a7.5 7.5 0 007.5-7.5z" fill="#E5E5E5"/><path d="M14.912 22.176c2.48 0 4.384.44 5.712 1.32 1.328.864 1.992 2.288 1.992 4.272 0 2-.672 3.448-2.016 4.344-1.344.88-3.264 1.32-5.76 1.32h-1.176V39H9.92V22.608c.816-.16 1.68-.272 2.592-.336a34.803 34.803 0 012.4-.096zm.24 3.192c-.272 0-.544.008-.816.024-.256.016-.48.032-.672.048v4.8h1.176c1.296 0 2.272-.176 2.928-.528.656-.352.984-1.008.984-1.968 0-.464-.088-.848-.264-1.152-.16-.304-.4-.544-.72-.72-.304-.192-.68-.32-1.128-.384a8.493 8.493 0 00-1.488-.12zm13.957 10.584c.176.016.376.032.6.048h.84c1.872 0 3.256-.472 4.152-1.416.912-.944 1.368-2.248 1.368-3.912 0-1.744-.432-3.064-1.296-3.96-.864-.896-2.232-1.344-4.104-1.344-.256 0-.52.008-.792.024-.272 0-.528.016-.768.048v10.512zm10.824-5.28c0 1.44-.224 2.696-.672 3.768-.448 1.072-1.088 1.96-1.92 2.664-.816.704-1.816 1.232-3 1.584-1.184.352-2.512.528-3.984.528-.672 0-1.456-.032-2.352-.096a18.044 18.044 0 01-2.64-.336v-16.2c.864-.16 1.76-.264 2.688-.312a36.628 36.628 0 012.424-.096c1.424 0 2.712.16 3.864.48 1.168.32 2.168.824 3 1.512.832.688 1.472 1.568 1.92 2.64.448 1.072.672 2.36.672 3.864zM43.061 39V22.368h11.136v3.144h-7.392v3.48h6.576v3.144h-6.576V39H43.06z" fill="#fff"/></svg><svg fill="none" viewBox="0 0 20 21" id="icon-plus" xmlns="http://www.w3.org/2000/svg"><path fill="#2E2E2E" d="M0 10h20v1H0z"/><path fill="#2E2E2E" d="M10.5.5v20h-1V.5z"/></svg><svg fill="none" viewBox="0 0 29 29" id="icon-profile" xmlns="http://www.w3.org/2000/svg"><path fill="#2E2E2E" d="M0 0h29v29H0z"/><path d="M10.563 8.688a3.942 3.942 0 003.937 3.937 3.942 3.942 0 003.938-3.938A3.942 3.942 0 0014.5 4.75a3.942 3.942 0 00-3.938 3.938zM21.5 21.374h.875V20.5a6.133 6.133 0 00-6.125-6.125h-3.5A6.132 6.132 0 006.625 20.5v.875H21.5z" fill="#fff"/></svg><svg fill="none" viewBox="0 0 40 40" id="icon-remove-all" xmlns="http://www.w3.org/2000/svg"><path d="M9.999 31.667c0 1.833 1.5 3.333 3.333 3.333h13.333C28.5 35 30 33.5 30 31.667V15c0-1.833-1.5-3.333-3.334-3.333H13.332A3.343 3.343 0 009.999 15v16.667zm5.283-13.05a1.662 1.662 0 012.35 0l2.367 2.366 2.366-2.366a1.662 1.662 0 012.35 2.35l-2.366 2.366 2.366 2.367a1.662 1.662 0 01-2.35 2.35L20 25.683l-2.367 2.367a1.662 1.662 0 01-2.35-2.35l2.367-2.367-2.367-2.366a1.66 1.66 0 010-2.35zm10.55-11.95l-1.183-1.184c-.3-.3-.734-.483-1.167-.483h-6.967c-.433 0-.866.183-1.166.483l-1.184 1.184H10c-.917 0-1.667.75-1.667 1.666 0 .917.75 1.667 1.667 1.667h20c.916 0 1.666-.75 1.666-1.667 0-.916-.75-1.666-1.666-1.666h-4.167z" fill="#EB5757"/></svg><svg fill="none" viewBox="0 0 24 24" id="icon-search" xmlns="http://www.w3.org/2000/svg"><path d="M23.632 21.591l-5.44-5.44a10.05 10.05 0 002.014-6.048C20.206 4.533 15.674 0 10.103 0 4.533 0 0 4.532 0 10.103c0 5.57 4.532 10.103 10.103 10.103a10.05 10.05 0 006.047-2.014l5.441 5.44a1.446 1.446 0 002.041-2.041zM2.887 10.103a7.216 7.216 0 117.216 7.217 7.225 7.225 0 01-7.216-7.217z" fill="#2E2E2E"/></svg><svg fill="none" viewBox="0 0 12 13" id="icon-slider-arrow" xmlns="http://www.w3.org/2000/svg"><path d="M0 6.5L11.25.005v12.99L0 6.5z" fill="#fff"/></svg><svg fill="none" viewBox="0 0 20 20" id="icon-sort" xmlns="http://www.w3.org/2000/svg"><path d="M1 2a1 1 0 011-1h16a1 1 0 011 1v2.586a1 1 0 01-.293.707l-6.414 6.414a1 1 0 00-.293.707V15l-4 4v-6.586a1 1 0 00-.293-.707L1.293 5.293A1 1 0 011 4.586V2z" stroke="#BDBDBD" stroke-width="2" stroke-linecap="round" stroke-linejoin="round"/></svg><svg fill="none" viewBox="0 0 30 30" id="icon-star-clear" xmlns="http://www.w3.org/2000/svg"><path d="M26.992 12.043a1.25 1.25 0 00-1.075-.838l-7.113-1.037-3.187-6.463a1.25 1.25 0 00-2.25 0l-3.188 6.45-7.112 1.05a1.25 1.25 0 00-1.012.85 1.25 1.25 0 00.312 1.25l5.163 5-1.25 7.1a1.25 1.25 0 001.837 1.35l6.375-3.337 6.375 3.337c.175.1.374.15.575.15a1.25 1.25 0 00.738-.237 1.25 1.25 0 00.5-1.25l-1.25-7.1 5.162-5a1.25 1.25 0 00.4-1.275zm-7.688 5a1.25 1.25 0 00-.362 1.1l.9 5.25-4.7-2.5a1.326 1.326 0 00-1.175 0l-4.7 2.5.9-5.25a1.25 1.25 0 00-.362-1.1l-3.75-3.75 5.262-.763a1.25 1.25 0 00.95-.687l2.225-4.763 2.35 4.775a1.25 1.25 0 00.95.688l5.262.762-3.75 3.738z" fill="#828282"/></svg><svg fill="none" viewBox="0 0 18 12" id="icon-top-menu" xmlns="http://www.w3.org/2000/svg"><path d="M1 12h11c.55 0 1-.45 1-1s-.45-1-1-1H1c-.55 0-1 .45-1 1s.45 1 1 1zm0-5h8c.55 0 1-.45 1-1s-.45-1-1-1H1c-.55 0-1 .45-1 1s.45 1 1 1zM0 1c0 .55.45 1 1 1h11c.55 0 1-.45 1-1s-.45-1-1-1H1C.45 0 0 .45 0 1zm17.3 7.88L14.42 6l2.88-2.88a.997.997 0 10-1.41-1.41L12.3 5.3a.995.995 0 000 1.41l3.59 3.59c.39.39 1.02.39 1.41 0 .38-.39.39-1.03 0-1.42z" fill="#333"/></svg><svg viewBox="0 0 26 22" id="icon-unvisible" xmlns="http://www.w3.org/2000/svg"><path d="M0 10.108s4.95-7.135 13-7.135c1.12 0 2.175.143 3.165.383l-7.467 7.513a4.73 4.73 0 01-.425-1.95c0-1.114.396-2.125 1.034-2.937-2.827.968-4.982 2.838-6.21 4.126a17.735 17.735 0 003.521 2.852l-1.713 1.726C1.77 12.642 0 10.108 0 10.108zm26 0s-4.95 7.135-13 7.135c-1.118 0-2.17-.147-3.163-.384L4.727 22l-1.772-1.784L23.045 0l1.773 1.784L21.1 5.526C24.227 7.576 26 10.108 26 10.108zm-3.09.007a17.546 17.546 0 00-3.53-2.857l-1.653 1.66c0 2.629-2.115 4.758-4.727 4.758l-1.12 1.126c.367.036.738.063 1.12.063 4.701 0 8.205-2.947 9.91-4.75z"/></svg><svg fill="none" viewBox="0 0 60 60" id="icon-upload" xmlns="http://www.w3.org/2000/svg"><path d="M32.5 47.5v-10H40L30 25 20 37.5h7.5v10h5z" fill="#00C25A"/><path d="M17.5 47.5h5v-5h-5c-4.135 0-7.5-3.365-7.5-7.5 0-3.51 2.998-6.89 6.683-7.538l1.452-.255.48-1.395C20.373 20.686 24.738 17.5 30 17.5c6.892 0 12.5 5.608 12.5 12.5v2.5H45c2.758 0 5 2.242 5 5s-2.242 5-5 5h-7.5v5H45c5.515 0 10-4.485 10-10a10.024 10.024 0 00-7.64-9.72C46.267 19.175 38.9 12.5 30 12.5c-6.89 0-12.875 4.027-15.607 10.375C9.023 24.48 5 29.55 5 35c0 6.892 5.607 12.5 12.5 12.5z" fill="#00C25A"/></svg><svg viewBox="0 0 26 14" id="icon-visible" xmlns="http://www.w3.org/2000/svg"><path d="M13 0C4.95 0 0 7 0 7s4.95 7 13 7 13-7 13-7-4.95-7-13-7zm0 11.667c-4.66 0-8.185-2.898-9.904-4.667 1.23-1.266 3.384-3.1 6.21-4.048a4.594 4.594 0 00-1.033 2.881c0 2.579 2.115 4.667 4.727 4.667s4.727-2.088 4.727-4.667c0-1.093-.396-2.085-1.034-2.881 2.828.948 4.983 2.783 6.21 4.048-1.721 1.771-5.245 4.667-9.904 4.667H13z"/></svg><svg fill="none" viewBox="0 0 32 32" id="icon-vk" xmlns="http://www.w3.org/2000/svg"><path d="M16 0C7.163 0 0 7.163 0 16s7.163 16 16 16 16-7.163 16-16S24.837 0 16 0zm6.153 18.052s1.415 1.396 1.764 2.045c.01.013.015.026.018.033.142.238.175.423.105.562-.117.23-.517.343-.653.353h-2.5c-.174 0-.537-.045-.977-.348-.338-.237-.672-.625-.997-1.004-.485-.563-.905-1.05-1.328-1.05a.51.51 0 00-.158.025c-.32.104-.73.56-.73 1.777 0 .38-.3.598-.512.598H15.04c-.39 0-2.422-.136-4.222-2.035-2.203-2.325-4.186-6.988-4.203-7.031-.125-.302.133-.464.415-.464h2.525c.337 0 .447.205.523.387.09.212.42 1.053.962 2 .878 1.543 1.417 2.17 1.848 2.17a.5.5 0 00.232-.06c.563-.313.458-2.322.433-2.738 0-.079-.001-.899-.29-1.292-.206-.285-.558-.393-.771-.433.086-.12.2-.216.331-.282.387-.193 1.084-.222 1.775-.222h.385c.75.01.944.059 1.215.127.55.132.562.487.514 1.702-.015.345-.03.735-.03 1.195 0 .1-.005.206-.005.32-.017.618-.037 1.32.4 1.608a.36.36 0 00.19.055c.151 0 .608 0 1.845-2.122.381-.683.713-1.392.991-2.123.025-.043.099-.177.185-.228a.444.444 0 01.207-.049h2.968c.324 0 .545.049.587.174.073.198-.013.803-1.368 2.638l-.605.798c-1.229 1.61-1.229 1.692.076 2.914z" fill="#fff"/></svg><svg fill="none" viewBox="0 0 32 32" id="icon-vk-green" xmlns="http://www.w3.org/2000/svg"><path d="M16 0C7.163 0 0 7.163 0 16s7.163 16 16 16 16-7.163 16-16S24.837 0 16 0zm6.153 18.052s1.415 1.396 1.764 2.045c.01.013.015.026.018.033.142.238.175.423.105.562-.117.23-.517.343-.653.353h-2.5c-.174 0-.537-.045-.977-.348-.338-.237-.672-.625-.997-1.004-.485-.563-.905-1.05-1.328-1.05a.51.51 0 00-.158.025c-.32.104-.73.56-.73 1.777 0 .38-.3.598-.512.598H15.04c-.39 0-2.422-.136-4.222-2.035-2.203-2.325-4.186-6.988-4.203-7.031-.125-.302.133-.464.415-.464h2.525c.337 0 .447.205.523.387.09.212.42 1.053.962 2 .878 1.543 1.417 2.17 1.848 2.17a.5.5 0 00.232-.06c.563-.313.458-2.322.433-2.738 0-.079-.001-.899-.29-1.292-.206-.285-.558-.393-.771-.433.086-.12.2-.216.331-.282.387-.193 1.084-.222 1.775-.222h.385c.75.01.944.059 1.215.127.55.132.562.487.514 1.702-.015.345-.03.735-.03 1.195 0 .1-.005.206-.005.32-.017.618-.037 1.32.4 1.608a.36.36 0 00.19.055c.151 0 .608 0 1.845-2.122.381-.683.713-1.392.991-2.123.025-.043.099-.177.185-.228a.444.444 0 01.207-.049h2.968c.324 0 .545.049.587.174.073.198-.013.803-1.368 2.638l-.605.798c-1.229 1.61-1.229 1.692.076 2.914z" fill="#00C25A"/></svg><svg fill="none" viewBox="0 0 60 60" id="icon-xls" xmlns="http://www.w3.org/2000/svg"><path d="M60 52.5v-45A7.5 7.5 0 0052.5 0h-45A7.5 7.5 0 000 7.5v45A7.5 7.5 0 007.5 60h45a7.5 7.5 0 007.5-7.5z" fill="#E5E5E5"/><path d="M19.472 39a44.616 44.616 0 00-1.536-2.808 31.122 31.122 0 00-1.896-2.928c-.224.288-.512.688-.864 1.2-.336.512-.68 1.056-1.032 1.632-.336.576-.656 1.128-.96 1.656-.304.528-.528.944-.672 1.248H8.24a59.735 59.735 0 012.448-4.08 143.461 143.461 0 013.144-4.536L8.48 22.368h4.536l3.24 5.184 3.168-5.184h4.272l-5.28 8.064c1.344 1.744 2.472 3.36 3.384 4.848.912 1.472 1.632 2.712 2.16 3.72h-4.488zm17.755-3.216V39H26.115V22.368h3.744v13.416h7.368zm7.346.36c.528 0 .96-.04 1.296-.12.352-.096.632-.216.84-.36.208-.16.352-.344.432-.552.08-.208.12-.44.12-.696 0-.544-.256-.992-.768-1.344-.512-.368-1.392-.76-2.64-1.176a23.045 23.045 0 01-1.632-.648 6.534 6.534 0 01-1.464-.936 4.678 4.678 0 01-1.056-1.368c-.272-.544-.408-1.2-.408-1.968s.144-1.456.432-2.064a4.404 4.404 0 011.224-1.584c.528-.432 1.168-.76 1.92-.984.752-.24 1.6-.36 2.544-.36 1.12 0 2.088.12 2.904.36.816.24 1.488.504 2.016.792l-1.08 2.952a9.322 9.322 0 00-1.56-.624c-.56-.192-1.24-.288-2.04-.288-.896 0-1.544.128-1.944.384-.384.24-.576.616-.576 1.128 0 .304.072.56.216.768.144.208.344.4.6.576.272.16.576.312.912.456.352.128.736.264 1.152.408.864.32 1.616.64 2.256.96.64.304 1.168.664 1.584 1.08.432.416.752.904.96 1.464.208.56.312 1.24.312 2.04 0 1.552-.544 2.76-1.632 3.624-1.088.848-2.728 1.272-4.92 1.272-.736 0-1.4-.048-1.992-.144-.592-.08-1.12-.184-1.584-.312a9.939 9.939 0 01-1.176-.408 9.642 9.642 0 01-.816-.408l1.056-2.976c.496.272 1.104.52 1.824.744.736.208 1.632.312 2.688.312z" fill="#fff"/></svg><svg fill="none" viewBox="0 0 60 60" id="icon-xlsx" xmlns="http://www.w3.org/2000/svg"><path d="M60 52.5v-45A7.5 7.5 0 0052.5 0h-45A7.5 7.5 0 000 7.5v45A7.5 7.5 0 007.5 60h45a7.5 7.5 0 007.5-7.5z" fill="#E5E5E5"/><path d="M14.56 38a37.199 37.199 0 00-1.28-2.34c-.453-.8-.98-1.613-1.58-2.44-.187.24-.427.573-.72 1-.28.427-.567.88-.86 1.36-.28.48-.547.94-.8 1.38-.253.44-.44.787-.56 1.04H5.2a49.79 49.79 0 012.04-3.4 119.48 119.48 0 012.62-3.78L5.4 24.14h3.78l2.7 4.32 2.64-4.32h3.56l-4.4 6.72c1.12 1.453 2.06 2.8 2.82 4.04.76 1.227 1.36 2.26 1.8 3.1h-3.74zm14.796-2.68V38h-9.26V24.14h3.12v11.18h6.14zm6.122.3c.44 0 .8-.033 1.08-.1.293-.08.526-.18.7-.3.173-.133.293-.287.36-.46.066-.173.1-.367.1-.58 0-.453-.214-.827-.64-1.12-.427-.307-1.16-.633-2.2-.98-.454-.16-.907-.34-1.36-.54a5.441 5.441 0 01-1.22-.78c-.36-.32-.654-.7-.88-1.14-.227-.453-.34-1-.34-1.64 0-.64.12-1.213.36-1.72.24-.52.58-.96 1.02-1.32.44-.36.973-.633 1.6-.82.626-.2 1.333-.3 2.12-.3.933 0 1.74.1 2.42.3.68.2 1.24.42 1.68.66l-.9 2.46c-.387-.2-.82-.373-1.3-.52-.467-.16-1.034-.24-1.7-.24-.747 0-1.287.107-1.62.32-.32.2-.48.513-.48.94 0 .253.06.467.18.64s.286.333.5.48c.226.133.48.26.76.38.293.107.613.22.96.34.72.267 1.346.533 1.88.8.533.253.973.553 1.32.9.36.347.626.753.8 1.22.173.467.26 1.033.26 1.7 0 1.293-.454 2.3-1.36 3.02-.907.707-2.274 1.06-4.1 1.06-.614 0-1.167-.04-1.66-.12a10.057 10.057 0 01-1.32-.26c-.374-.107-.7-.22-.98-.34a8.01 8.01 0 01-.68-.34l.88-2.48c.413.227.92.433 1.52.62.613.173 1.36.26 2.24.26zM51.298 38a37.25 37.25 0 00-1.28-2.34c-.453-.8-.98-1.613-1.58-2.44-.186.24-.426.573-.72 1-.28.427-.566.88-.86 1.36-.28.48-.546.94-.8 1.38-.253.44-.44.787-.56 1.04h-3.56a49.733 49.733 0 012.04-3.4c.787-1.187 1.66-2.447 2.62-3.78l-4.46-6.68h3.78l2.7 4.32 2.64-4.32h3.56l-4.4 6.72c1.12 1.453 2.06 2.8 2.82 4.04.76 1.227 1.36 2.26 1.8 3.1h-3.74z" fill="#fff"/></svg></svg>