<?xml version="1.0" encoding="utf-8"?><svg viewBox="0 0 29 29" xmlns="http://www.w3.org/2000/svg" xmlns:xlink="http://www.w3.org/1999/xlink"><style>:root>svg{display:none}:root>svg:target{display:block}</style><svg fill="none" viewBox="0 0 29 29" id="icon-card" xmlns="http://www.w3.org/2000/svg"><path fill="#2E2E2E" d="M0 0h29v29H0z"/><g clip-path="url(#aclip0)"><path d="M17 22a2 2 0 103.998.09A2 2 0 0017 22zM7 22a2 2 0 104 0 2 2 0 00-4 0zm3.547-4.828l11.068-3.162A.564.564 0 0022 13.5V8H8V6.4c0-.22-.181-.4-.399-.4H4.399A.401.401 0 004 6.4V8h2l1.91 8.957.09.943v1.649c0 .219.18.4.4.4h13.2c.22 0 .4-.182.4-.4V18H10.752c-1.15 0-1.174-.551-.205-.828z" fill="#fff"/></g><defs><clipPath id="aclip0"><path fill="#fff" transform="translate(4 5)" d="M0 0h20v20H0z"/></clipPath></defs></svg><svg fill="none" viewBox="0 0 21 21" id="icon-close" xmlns="http://www.w3.org/2000/svg"><path d="M13.734 10.521L21 17.787l-3.234 3.234-7.266-7.266-7.266 7.266L0 17.787l7.266-7.266L0 3.255 3.234.021 10.5 7.287 17.766.021 21 3.255l-7.266 7.266z" fill="#fff"/></svg><svg fill="none" viewBox="0 0 18 18" id="icon-home" xmlns="http://www.w3.org/2000/svg"><path d="M17.767 9.292L9.667.285c-.34-.38-.996-.38-1.337 0L.231 9.292A.9.9 0 00.9 10.795h1.8v6.304a.901.901 0 00.9.901h2.7a.9.9 0 00.9-.9v-3.603h3.599v3.602a.9.9 0 00.9.901h2.7a.9.9 0 00.9-.9v-6.305h1.8a.898.898 0 00.668-1.503z" fill="#2E2E2E"/></svg><svg fill="none" viewBox="0 0 29 29" id="icon-profile" xmlns="http://www.w3.org/2000/svg"><path fill="#2E2E2E" d="M0 0h29v29H0z"/><path d="M10.563 8.688a3.942 3.942 0 003.937 3.937 3.942 3.942 0 003.938-3.938A3.942 3.942 0 0014.5 4.75a3.942 3.942 0 00-3.938 3.938zM21.5 21.374h.875V20.5a6.133 6.133 0 00-6.125-6.125h-3.5A6.132 6.132 0 006.625 20.5v.875H21.5z" fill="#fff"/></svg><svg fill="none" viewBox="0 0 24 24" id="icon-search" xmlns="http://www.w3.org/2000/svg"><path d="M23.632 21.591l-5.44-5.44a10.05 10.05 0 002.014-6.048C20.206 4.533 15.674 0 10.103 0 4.533 0 0 4.532 0 10.103c0 5.57 4.532 10.103 10.103 10.103a10.05 10.05 0 006.047-2.014l5.441 5.44a1.446 1.446 0 002.041-2.041zM2.887 10.103a7.216 7.216 0 117.216 7.217 7.225 7.225 0 01-7.216-7.217z" fill="#2E2E2E"/></svg><svg fill="none" viewBox="0 0 18 12" id="icon-top-menu" xmlns="http://www.w3.org/2000/svg"><path d="M1 12h11c.55 0 1-.45 1-1s-.45-1-1-1H1c-.55 0-1 .45-1 1s.45 1 1 1zm0-5h8c.55 0 1-.45 1-1s-.45-1-1-1H1c-.55 0-1 .45-1 1s.45 1 1 1zM0 1c0 .55.45 1 1 1h11c.55 0 1-.45 1-1s-.45-1-1-1H1C.45 0 0 .45 0 1zm17.3 7.88L14.42 6l2.88-2.88a.997.997 0 10-1.41-1.41L12.3 5.3a.995.995 0 000 1.41l3.59 3.59c.39.39 1.02.39 1.41 0 .38-.39.39-1.03 0-1.42z" fill="#333"/></svg></svg>