<svg width="80" height="80" viewBox="0 0 80 80" fill="none" xmlns="http://www.w3.org/2000/svg">
<path d="M36.6667 20H30V30H20V36.6667H30V46.6667H36.6667V36.6667H46.6667V30H36.6667V20Z" fill="#F9F9F9"/>
<path d="M33.3346 6.66675C18.6313 6.66675 6.66797 18.6301 6.66797 33.3334C6.66797 48.0367 18.6313 60.0001 33.3346 60.0001C39.2512 59.9989 44.9973 58.0182 49.658 54.3734L64.3113 69.0267L69.0246 64.3134L54.3713 49.6601C58.018 44.999 59.9999 39.2515 60.0013 33.3334C60.0013 18.6301 48.038 6.66675 33.3346 6.66675ZM33.3346 53.3334C22.3046 53.3334 13.3346 44.3634 13.3346 33.3334C13.3346 22.3034 22.3046 13.3334 33.3346 13.3334C44.3646 13.3334 53.3346 22.3034 53.3346 33.3334C53.3346 44.3634 44.3646 53.3334 33.3346 53.3334Z" fill="#F9F9F9"/>
</svg>
