<?xml version="1.0" encoding="UTF-8"?>
<!DOCTYPE svg PUBLIC "-//W3C//DTD SVG 1.1//EN" "http://www.w3.org/Graphics/SVG/1.1/DTD/svg11.dtd">
<!-- Creator: CorelDRAW 2018 (64-Bit) -->
<svg xmlns="http://www.w3.org/2000/svg" xml:space="preserve" width="1593px" height="329px" version="1.1" style="shape-rendering:geometricPrecision; text-rendering:geometricPrecision; image-rendering:optimizeQuality; fill-rule:evenodd; clip-rule:evenodd"
viewBox="0 0 133357 27560"
 xmlns:xlink="http://www.w3.org/1999/xlink">
 <defs>
  <style type="text/css">
   <![CDATA[
    .fil0 {fill:none}
    .fil3 {fill:#FEFEFE}
    .fil1 {fill:#00B152}
    .fil4 {fill:#00B152;fill-rule:nonzero}
    .fil2 {fill:#00B152;fill-rule:nonzero}
   ]]>
  </style>
 </defs>
 <g id="Слой_x0020_1">
  <metadata id="CorelCorpID_0Corel-Layer"/>
  <line class="fil0" x1="15650" y1="0" x2="31301" y2= "27108" />
  <line class="fil0" x1="15650" y1="0" x2="31301" y2= "27108" />
  <polygon class="fil1" points="7192,5710 12334,5708 10316,9243 21009,9221 18972,5707 24181,5706 24179,9293 10769,9290 10769,22636 20607,22637 20606,18203 10796,18203 10795,16169 11625,14627 24094,14625 24186,14784 24185,27107 7193,27107 "/>
  <path class="fil2" d="M7192 5673l16989 -3 36 0 0 36 -2 3587 0 36 -36 0 -13373 -3 0 6746 787 -1463 11 -19 21 0 12469 -1 21 -1 10 19 92 159 5 8 0 10 -1 12323 0 37 -36 0 -16992 0 -36 0 0 -37 -1 -21397 0 -37 36 0zm16952 69l-16916 4 1 21325 16919 0 2 -12277 -77 -133 -12426 2 -816 1515 1 1989 9774 -1 36 0 0 37 1 4434 0 36 -36 0 -9838 -1 -36 0 0 -36 0 -13346 0 -37 36 0 13374 4 1 -3515zm-13338 12497l-1 4361 9765 1 -1 -4362 -9763 0z"/>
  <polygon class="fil1" points="15651,0 31300,27106 26827,27106 15650,7745 4472,27108 0,27108 "/>
  <polygon class="fil3" points="7192,14651 10770,8450 10772,16200 7192,22397 "/>
  <polygon class="fil3" points="7192,14651 10770,8450 10772,16200 7192,22397 "/>
  <polygon class="fil3" points="19636,14642 24157,14642 24246,14796 24248,22633 "/>
  <polygon class="fil3" points="12344,5690 18961,5687 21009,9221 10316,9243 "/>
  <polygon class="fil4" points="31238,16470 133314,16470 133314,17426 31238,17426 "/>
  <path class="fil4" d="M37910 4994l-6583 0 0 8884 4646 0c1817,0 2780,-735 2780,-2725 0,-1990 -939,-2724 -2780,-2724l-2239 0 0 -1588 4176 0 0 -1847zm-4176 5283l1673 0c686,0 939,165 939,900 0,687 -253,853 -939,853l-1673 0 0 -1753zm11806 2073l470 1528 2455 0 -2744 -8884 -3659 0 -2708 8884 2504 0 445 -1528 3237 0zm-493 -1718l-2227 0 1096 -3862 24 0 1107 3862zm5223 -5638l0 5828c0,876 -229,1208 -891,1208 -325,0 -517,-12 -734,-83l0 1919c373,73 710,109 1228,109 1829,0 2684,-1246 2684,-3189l0 -3731 2611 0 0 6823 2407 0 0 -8884 -7305 0zm13166 2061l2431 0 0 -2061 -7269 0 0 2061 2431 0 0 6823 2407 0 0 -6823zm4056 -2061l0 5828c0,876 -229,1208 -891,1208 -325,0 -517,-12 -734,-83l0 1919c373,73 710,109 1227,109 1830,0 2684,-1246 2684,-3189l0 -3731 2612 0 0 6823 2407 0 0 -8884 -7305 0zm14333 7356l469 1528 2455 0 -2744 -8884 -3658 0 -2708 8884 2503 0 445 -1528 3238 0zm-494 -1718l-2226 0 1095 -3862 24 0 1107 3862zm4261 -5638l0 8884 2407 0 -241 -6811 108 -24 2275 6835 2082 0 2262 -6835 109 24 -241 6811 2407 0 0 -8884 -3911 0 -1637 5579 -85 0 -1720 -5579 -3815 0zm15019 0l-2287 0 0 8884 3274 0 2708 -5852 84 0 0 5852 2286 0 0 -8884 -3165 0 -2816 5851 -84 0 0 -5851zm10037 0l-2407 0 0 8884 2407 0 0 -3483 3141 0 0 3483 2407 0 0 -8884 -2407 0 0 3340 -3141 0 0 -3340zm12576 7356l469 1528 2455 0 -2744 -8884 -3658 0 -2708 8884 2503 0 446 -1528 3237 0zm-493 -1718l-2227 0 1095 -3862 24 0 1108 3862zm8195 -3577l2431 0 0 -2061 -7269 0 0 2061 2431 0 0 6823 2407 0 0 -6823z"/>
  <g id="_2850553683936">
   <path class="fil4" d="M44467 23175l0 1211 1181 0c324,0 549,-42 674,-124 126,-83 189,-234 189,-452 0,-225 -56,-387 -169,-486 -112,-99 -304,-149 -575,-149l-1300 0zm0 2064l0 1329 1359 0c536,0 804,-221 804,-664 0,-239 -66,-409 -198,-511 -133,-103 -315,-154 -546,-154l-1419 0zm-1240 2232l0 -5199 2887 0c582,0 1000,114 1255,343 255,228 382,587 382,1076 0,271 -83,503 -248,695 -165,191 -397,320 -694,386 337,80 592,216 763,407 199,219 298,506 298,863 0,510 -117,875 -352,1097 -235,221 -653,332 -1255,332l-3036 0zm9058 -1964l1211 0c0,754 -171,1285 -511,1592 -341,308 -951,461 -1831,461 -899,0 -1523,-193 -1870,-580 -347,-387 -521,-1086 -521,-2098 0,-1019 172,-1722 516,-2109 344,-387 969,-580 1875,-580 708,0 1243,109 1607,327 457,272 685,734 685,1389l0 189 -1210 0 0 -70c0,-357 -75,-592 -224,-704 -148,-112 -435,-169 -858,-169 -436,0 -732,121 -888,363 -155,241 -233,696 -233,1364 0,661 78,1113 233,1354 156,241 452,362 888,362 470,0 776,-74 918,-223 142,-149 213,-438 213,-868zm5596 317l1240 0 0 189c0,615 -225,1038 -674,1270 -358,185 -943,277 -1757,277 -893,0 -1514,-195 -1865,-585 -350,-390 -526,-1088 -526,-2093 0,-986 179,-1680 536,-2084 357,-403 979,-605 1865,-605 887,0 1512,198 1875,597 364,398 546,1055 546,1971l0 349 -3552 0c0,631 75,1046 223,1247 149,200 452,301 908,301 424,0 726,-50 908,-149 182,-100 273,-291 273,-576l0 -109zm0 -1488c0,-466 -86,-790 -258,-971 -172,-180 -476,-269 -913,-269 -430,0 -727,89 -893,269 -165,181 -248,505 -248,971l2312 0zm-1816 -3770l0 883 -982 0 0 -883 982 0zm2024 0l0 883 -982 0 0 -883 982 0zm29239 1706l1875 0c291,854 559,1674 804,2461 138,443 267,893 386,1349 80,298 123,476 129,536 67,-364 225,-959 477,-1786 211,-701 492,-1554 843,-2560l1885 0 0 5199 -1180 0 0 -3175c0,-231 9,-458 29,-679 20,-222 47,-458 80,-710l-1528 4564 -1211 0 -1518 -4564c73,582 109,1045 109,1389l0 3175 -1180 0 0 -5199zm11072 3552l1240 0 0 189c0,615 -225,1038 -674,1270 -358,185 -943,277 -1756,277 -893,0 -1515,-195 -1866,-585 -350,-390 -526,-1088 -526,-2093 0,-986 179,-1680 536,-2084 357,-403 979,-605 1865,-605 887,0 1512,198 1876,595 363,397 545,1052 545,1965l0 347 -3552 0c0,635 75,1053 224,1255 149,202 451,303 907,303 424,0 726,-50 908,-149 182,-100 273,-291 273,-576l0 -109zm0 -1498c0,-463 -86,-784 -258,-962 -172,-179 -476,-268 -913,-268 -430,0 -727,89 -893,268 -165,178 -248,499 -248,962l2312 0zm3423 -1181c139,-264 288,-453 446,-565 252,-179 596,-268 1032,-268 860,0 1472,205 1836,615 343,390 515,1035 515,1935 0,992 -165,1680 -496,2064 -363,423 -1021,634 -1974,634 -932,0 -1574,-188 -1925,-565 -350,-377 -525,-1068 -525,-2074l0 -1657c0,-807 148,-1431 446,-1875 397,-588 1055,-883 1974,-883 490,0 806,-21 948,-64 142,-43 213,-141 213,-293l933 0c0,496 -176,837 -526,1022 -285,152 -771,228 -1459,228 -502,0 -876,146 -1121,437 -211,251 -317,585 -317,1002l0 307zm178 1717c0,734 100,1220 298,1458 152,185 447,278 883,278 437,0 734,-93 893,-278 205,-238 308,-724 308,-1458 0,-622 -90,-1042 -268,-1260 -179,-219 -486,-327 -923,-327 -430,0 -731,105 -903,317 -192,238 -288,661 -288,1270zm8126 962l1240 0 0 189c0,615 -225,1038 -674,1270 -358,185 -943,277 -1757,277 -893,0 -1514,-195 -1865,-585 -350,-390 -526,-1088 -526,-2093 0,-986 179,-1680 536,-2084 357,-403 979,-605 1865,-605 887,0 1512,198 1875,595 364,397 546,1052 546,1965l0 347 -3552 0c0,635 75,1053 224,1255 149,202 451,303 907,303 424,0 726,-50 908,-149 182,-100 273,-291 273,-576l0 -109zm0 -1498c0,-463 -86,-784 -258,-962 -172,-179 -476,-268 -913,-268 -430,0 -727,89 -893,268 -165,178 -248,499 -248,962l2312 0zm2808 -2054l4335 0 0 5199 -1240 0 0 -4236 -1855 0 0 2629c0,503 -109,903 -327,1200 -245,331 -599,496 -1062,496 -357,0 -612,-16 -764,-49l0 -933 317 30c239,0 397,-66 477,-199 79,-132 119,-347 119,-644l0 -3493zm6865 0l0 1975 1737 0c476,0 850,132 1121,396 271,265 406,669 406,1211 0,536 -135,939 -406,1210 -271,272 -645,407 -1121,407l-2977 0 0 -5199 1240 0zm0 2878l0 1418 1241 0c264,0 456,-53 575,-159 119,-105 179,-290 179,-555 0,-278 -58,-465 -174,-561 -116,-96 -309,-143 -580,-143l-1241 0z"/>
   <path class="fil4" d="M64290 25031l0 2440 -1429 0 0 -7441 3165 0c979,0 1671,152 2074,458 470,357 704,1020 704,1988 0,1000 -190,1676 -570,2027 -380,352 -1073,528 -2079,528l-1865 0zm0 -3791l0 2580 1726 0c510,0 854,-76 1032,-230 205,-172 308,-501 308,-985 0,-531 -98,-892 -293,-1080 -195,-190 -544,-285 -1047,-285l-1726 0zm7134 3741l0 2490 -1429 0 0 -7441 3631 0c827,0 1435,177 1826,531 390,355 585,946 585,1774 0,576 -79,1017 -238,1321 -205,404 -572,639 -1101,705l0 41c416,0 727,126 932,377 205,252 308,602 308,1053l0 1639 -1429 0 0 -1518c0,-350 -97,-600 -293,-749 -195,-149 -467,-223 -818,-223l-1974 0zm0 -3741l0 2531 1974 0c430,0 736,-98 918,-295 182,-195 273,-513 273,-951 0,-464 -77,-790 -229,-975 -172,-207 -473,-310 -902,-310l-2034 0zm5705 2362c0,-1436 215,-2401 644,-2897 430,-496 1274,-744 2531,-744 1249,0 2093,248 2529,744 437,496 655,1461 655,2897 0,1620 -213,2685 -640,3195 -426,509 -1275,763 -2544,763 -1330,0 -2192,-246 -2585,-739 -394,-493 -590,-1566 -590,-3219zm1448 159c0,1157 98,1878 293,2162 195,285 673,427 1434,427 753,0 1231,-145 1433,-437 202,-291 303,-1008 303,-2152 0,-1165 -110,-1896 -328,-2193 -191,-265 -661,-397 -1408,-397 -761,0 -1234,129 -1419,387 -205,291 -308,1025 -308,2203z"/>
  </g>
 </g>
</svg>
